G04 (created by PCBNEW (2013-jul-07)-stable) date Wed 25 Feb 2015 17:07:09 CET*
%MOIN*%
G04 Gerber Fmt 3.4, Leading zero omitted, Abs format*
%FSLAX34Y34*%
G01*
G70*
G90*
G04 APERTURE LIST*
%ADD10C,0.00590551*%
%ADD11O,0.1X0.06*%
%ADD12R,0.06X0.06*%
%ADD13C,0.06*%
%ADD14C,0.066*%
%ADD15R,0.0748031X0.0708661*%
%ADD16R,0.0748031X0.0551181*%
%ADD17R,0.0669291X0.0551181*%
%ADD18C,0.0748031*%
%ADD19C,0.0708661*%
%ADD20C,0.0787402*%
%ADD21C,0.035*%
%ADD22C,0.04*%
%ADD23C,0.05*%
%ADD24C,0.01*%
G04 APERTURE END LIST*
G54D10*
G54D11*
X61250Y-24250D03*
X61250Y-25250D03*
X61250Y-26250D03*
X61250Y-29250D03*
X61250Y-28250D03*
X61250Y-27250D03*
X61250Y-31250D03*
X61250Y-32250D03*
X61250Y-33250D03*
X61250Y-35250D03*
X61250Y-36250D03*
X80250Y-24250D03*
X80250Y-25250D03*
X80250Y-26250D03*
X80250Y-27250D03*
X80250Y-28250D03*
X80250Y-29250D03*
X80250Y-30250D03*
X80250Y-31250D03*
X80250Y-32850D03*
X80250Y-33850D03*
X80250Y-34850D03*
X80250Y-35850D03*
X80250Y-36850D03*
X80250Y-37850D03*
X80250Y-38850D03*
X80250Y-39850D03*
X61250Y-34250D03*
G54D12*
X64905Y-28460D03*
G54D13*
X64905Y-27460D03*
X64905Y-26460D03*
X66094Y-26460D03*
X66094Y-27460D03*
X66094Y-28460D03*
G54D14*
X70000Y-31250D03*
X70000Y-30250D03*
G54D15*
X65750Y-41500D03*
G54D16*
X65750Y-40500D03*
X65750Y-39500D03*
X65750Y-38500D03*
X65750Y-37500D03*
X65750Y-36500D03*
X65750Y-35500D03*
X68750Y-35500D03*
X68750Y-36500D03*
X68750Y-37500D03*
X68750Y-38500D03*
X68750Y-39500D03*
X68750Y-40500D03*
G54D17*
X68750Y-41500D03*
G54D18*
X61250Y-40750D03*
X61250Y-41734D03*
X61250Y-39000D03*
X61250Y-38000D03*
G54D15*
X71000Y-39500D03*
G54D16*
X71000Y-38500D03*
X71000Y-37500D03*
X71000Y-36500D03*
X74000Y-36500D03*
X74000Y-37500D03*
X74000Y-38500D03*
X74000Y-39500D03*
G54D19*
X77750Y-24750D03*
X77750Y-28750D03*
X75750Y-24750D03*
X75750Y-28750D03*
X73750Y-24750D03*
X73750Y-28750D03*
G54D20*
X77750Y-31261D03*
X77750Y-30238D03*
X75750Y-31261D03*
X75750Y-30238D03*
X73700Y-31211D03*
X73700Y-30188D03*
G54D19*
X72000Y-28750D03*
X72000Y-24750D03*
X70000Y-24750D03*
X70000Y-28750D03*
G54D21*
X73250Y-35000D03*
G54D22*
X73750Y-31261D02*
X73750Y-32000D01*
X76600Y-33850D02*
X80250Y-33850D01*
X75250Y-32500D02*
X76600Y-33850D01*
X74250Y-32500D02*
X75250Y-32500D01*
X73750Y-32000D02*
X74250Y-32500D01*
G54D23*
X66094Y-28460D02*
X64905Y-28460D01*
X62500Y-34250D02*
X61250Y-34250D01*
X62750Y-34000D02*
X62500Y-34250D01*
X62750Y-28750D02*
X62750Y-34000D01*
X63000Y-28500D02*
X62750Y-28750D01*
X64866Y-28500D02*
X63000Y-28500D01*
X64905Y-28460D02*
X64866Y-28500D01*
G54D22*
X61250Y-36250D02*
X61250Y-38000D01*
X74000Y-38500D02*
X75500Y-38500D01*
X75500Y-38500D02*
X75750Y-38750D01*
X68750Y-36500D02*
X67750Y-36500D01*
X67750Y-36500D02*
X67750Y-42750D01*
X67750Y-42750D02*
X68000Y-43000D01*
X68000Y-43000D02*
X75000Y-43000D01*
X75000Y-43000D02*
X76000Y-42000D01*
X76000Y-42000D02*
X76000Y-39000D01*
X76000Y-39000D02*
X75750Y-38750D01*
X75750Y-38750D02*
X75750Y-38750D01*
X80250Y-37850D02*
X76650Y-37850D01*
X76000Y-38500D02*
X74000Y-38500D01*
X76650Y-37850D02*
X76000Y-38500D01*
X61250Y-39000D02*
X61250Y-40750D01*
X77750Y-30238D02*
X77750Y-28750D01*
X75750Y-30238D02*
X75750Y-28750D01*
X73750Y-30238D02*
X73750Y-28750D01*
X65750Y-38500D02*
X66500Y-38500D01*
X67250Y-34000D02*
X71750Y-34000D01*
X66750Y-34500D02*
X67250Y-34000D01*
X66750Y-38250D02*
X66750Y-34500D01*
X66500Y-38500D02*
X66750Y-38250D01*
X71000Y-39500D02*
X71849Y-39500D01*
X72250Y-34500D02*
X71750Y-34000D01*
X72250Y-39099D02*
X72250Y-34500D01*
X71849Y-39500D02*
X72250Y-39099D01*
X80250Y-34850D02*
X76100Y-34850D01*
X75250Y-34000D02*
X72500Y-34000D01*
X76100Y-34850D02*
X75250Y-34000D01*
X71750Y-34000D02*
X72500Y-34000D01*
X80250Y-32850D02*
X76600Y-32850D01*
X75750Y-32000D02*
X75750Y-31261D01*
X76600Y-32850D02*
X75750Y-32000D01*
X80250Y-31250D02*
X77761Y-31250D01*
X77761Y-31250D02*
X77750Y-31261D01*
X68750Y-35500D02*
X69500Y-35500D01*
X73250Y-37500D02*
X74000Y-37500D01*
X73000Y-37750D02*
X73250Y-37500D01*
X73000Y-39500D02*
X73000Y-37750D01*
X71500Y-41000D02*
X73000Y-39500D01*
X70500Y-41000D02*
X71500Y-41000D01*
X70000Y-40500D02*
X70500Y-41000D01*
X70000Y-36000D02*
X70000Y-40500D01*
X69500Y-35500D02*
X70000Y-36000D01*
X80250Y-36850D02*
X76400Y-36850D01*
X75750Y-37500D02*
X74000Y-37500D01*
X76400Y-36850D02*
X75750Y-37500D01*
X74850Y-35850D02*
X76150Y-35850D01*
X74000Y-35000D02*
X74850Y-35850D01*
X73250Y-35000D02*
X74000Y-35000D01*
X74000Y-36500D02*
X75500Y-36500D01*
X75500Y-36500D02*
X76150Y-35850D01*
X80250Y-35850D02*
X76150Y-35850D01*
G54D23*
X64905Y-26460D02*
X66094Y-26460D01*
X66094Y-26460D02*
X66133Y-26500D01*
X66133Y-26500D02*
X71000Y-26500D01*
X71000Y-26500D02*
X72000Y-27500D01*
X72000Y-27500D02*
X72000Y-28750D01*
G54D22*
X70000Y-30250D02*
X70000Y-28750D01*
G54D10*
G36*
X81200Y-49200D02*
X80983Y-49200D01*
X80983Y-38985D01*
X80983Y-38714D01*
X80977Y-38685D01*
X80874Y-38496D01*
X80871Y-38494D01*
X80871Y-37850D01*
X80871Y-36850D01*
X80871Y-35850D01*
X80871Y-34850D01*
X80871Y-33850D01*
X80871Y-32850D01*
X80871Y-31250D01*
X80871Y-30250D01*
X80871Y-29250D01*
X80871Y-28250D01*
X80871Y-27250D01*
X80871Y-26250D01*
X80871Y-25250D01*
X80871Y-24250D01*
X80840Y-24093D01*
X80751Y-23960D01*
X80618Y-23871D01*
X80461Y-23840D01*
X80038Y-23840D01*
X79881Y-23871D01*
X79748Y-23960D01*
X79659Y-24093D01*
X79628Y-24250D01*
X79659Y-24406D01*
X79748Y-24539D01*
X79881Y-24628D01*
X80038Y-24660D01*
X80461Y-24660D01*
X80618Y-24628D01*
X80751Y-24539D01*
X80840Y-24406D01*
X80871Y-24250D01*
X80871Y-25250D01*
X80840Y-25093D01*
X80751Y-24960D01*
X80618Y-24871D01*
X80461Y-24840D01*
X80038Y-24840D01*
X79881Y-24871D01*
X79748Y-24960D01*
X79659Y-25093D01*
X79628Y-25250D01*
X79659Y-25406D01*
X79748Y-25539D01*
X79881Y-25628D01*
X80038Y-25660D01*
X80461Y-25660D01*
X80618Y-25628D01*
X80751Y-25539D01*
X80840Y-25406D01*
X80871Y-25250D01*
X80871Y-26250D01*
X80840Y-26093D01*
X80751Y-25960D01*
X80618Y-25871D01*
X80461Y-25840D01*
X80038Y-25840D01*
X79881Y-25871D01*
X79748Y-25960D01*
X79659Y-26093D01*
X79628Y-26250D01*
X79659Y-26406D01*
X79748Y-26539D01*
X79881Y-26628D01*
X80038Y-26660D01*
X80461Y-26660D01*
X80618Y-26628D01*
X80751Y-26539D01*
X80840Y-26406D01*
X80871Y-26250D01*
X80871Y-27250D01*
X80840Y-27093D01*
X80751Y-26960D01*
X80618Y-26871D01*
X80461Y-26840D01*
X80038Y-26840D01*
X79881Y-26871D01*
X79748Y-26960D01*
X79659Y-27093D01*
X79628Y-27250D01*
X79659Y-27406D01*
X79748Y-27539D01*
X79881Y-27628D01*
X80038Y-27660D01*
X80461Y-27660D01*
X80618Y-27628D01*
X80751Y-27539D01*
X80840Y-27406D01*
X80871Y-27250D01*
X80871Y-28250D01*
X80840Y-28093D01*
X80751Y-27960D01*
X80618Y-27871D01*
X80461Y-27840D01*
X80038Y-27840D01*
X79881Y-27871D01*
X79748Y-27960D01*
X79659Y-28093D01*
X79628Y-28250D01*
X79659Y-28406D01*
X79748Y-28539D01*
X79881Y-28628D01*
X80038Y-28660D01*
X80461Y-28660D01*
X80618Y-28628D01*
X80751Y-28539D01*
X80840Y-28406D01*
X80871Y-28250D01*
X80871Y-29250D01*
X80840Y-29093D01*
X80751Y-28960D01*
X80618Y-28871D01*
X80461Y-28840D01*
X80038Y-28840D01*
X79881Y-28871D01*
X79748Y-28960D01*
X79659Y-29093D01*
X79628Y-29250D01*
X79659Y-29406D01*
X79748Y-29539D01*
X79881Y-29628D01*
X80038Y-29660D01*
X80461Y-29660D01*
X80618Y-29628D01*
X80751Y-29539D01*
X80840Y-29406D01*
X80871Y-29250D01*
X80871Y-30250D01*
X80840Y-30093D01*
X80751Y-29960D01*
X80618Y-29871D01*
X80461Y-29840D01*
X80038Y-29840D01*
X79881Y-29871D01*
X79748Y-29960D01*
X79659Y-30093D01*
X79628Y-30250D01*
X79659Y-30406D01*
X79748Y-30539D01*
X79881Y-30628D01*
X80038Y-30660D01*
X80461Y-30660D01*
X80618Y-30628D01*
X80751Y-30539D01*
X80840Y-30406D01*
X80871Y-30250D01*
X80871Y-31250D01*
X80840Y-31093D01*
X80751Y-30960D01*
X80618Y-30871D01*
X80461Y-30840D01*
X80038Y-30840D01*
X79881Y-30871D01*
X79778Y-30940D01*
X78358Y-30940D01*
X78358Y-24844D01*
X78348Y-24604D01*
X78276Y-24429D01*
X78175Y-24395D01*
X78104Y-24466D01*
X78104Y-24324D01*
X78070Y-24223D01*
X77844Y-24141D01*
X77604Y-24151D01*
X77429Y-24223D01*
X77395Y-24324D01*
X77750Y-24679D01*
X78104Y-24324D01*
X78104Y-24466D01*
X77820Y-24750D01*
X78175Y-25104D01*
X78276Y-25070D01*
X78358Y-24844D01*
X78358Y-30940D01*
X78253Y-30940D01*
X78253Y-30138D01*
X78177Y-29953D01*
X78060Y-29835D01*
X78060Y-29096D01*
X78143Y-29013D01*
X78214Y-28842D01*
X78214Y-28658D01*
X78143Y-28487D01*
X78104Y-28447D01*
X78104Y-25175D01*
X77750Y-24820D01*
X77679Y-24891D01*
X77679Y-24750D01*
X77324Y-24395D01*
X77223Y-24429D01*
X77141Y-24655D01*
X77151Y-24895D01*
X77223Y-25070D01*
X77324Y-25104D01*
X77679Y-24750D01*
X77679Y-24891D01*
X77395Y-25175D01*
X77429Y-25276D01*
X77655Y-25358D01*
X77895Y-25348D01*
X78070Y-25276D01*
X78104Y-25175D01*
X78104Y-28447D01*
X78013Y-28356D01*
X77842Y-28285D01*
X77658Y-28285D01*
X77487Y-28356D01*
X77356Y-28486D01*
X77285Y-28657D01*
X77285Y-28841D01*
X77356Y-29012D01*
X77440Y-29096D01*
X77440Y-29835D01*
X77323Y-29952D01*
X77246Y-30137D01*
X77246Y-30337D01*
X77322Y-30523D01*
X77464Y-30664D01*
X77649Y-30741D01*
X77849Y-30741D01*
X78034Y-30665D01*
X78176Y-30523D01*
X78253Y-30338D01*
X78253Y-30138D01*
X78253Y-30940D01*
X78140Y-30940D01*
X78035Y-30835D01*
X77850Y-30758D01*
X77650Y-30758D01*
X77465Y-30834D01*
X77323Y-30976D01*
X77246Y-31161D01*
X77246Y-31361D01*
X77322Y-31546D01*
X77464Y-31688D01*
X77649Y-31765D01*
X77849Y-31765D01*
X78034Y-31689D01*
X78164Y-31560D01*
X79778Y-31560D01*
X79881Y-31628D01*
X80038Y-31660D01*
X80461Y-31660D01*
X80618Y-31628D01*
X80751Y-31539D01*
X80840Y-31406D01*
X80871Y-31250D01*
X80871Y-32850D01*
X80840Y-32693D01*
X80751Y-32560D01*
X80618Y-32471D01*
X80461Y-32440D01*
X80038Y-32440D01*
X79881Y-32471D01*
X79778Y-32540D01*
X76728Y-32540D01*
X76358Y-32170D01*
X76358Y-24844D01*
X76348Y-24604D01*
X76276Y-24429D01*
X76175Y-24395D01*
X76104Y-24466D01*
X76104Y-24324D01*
X76070Y-24223D01*
X75844Y-24141D01*
X75604Y-24151D01*
X75429Y-24223D01*
X75395Y-24324D01*
X75750Y-24679D01*
X76104Y-24324D01*
X76104Y-24466D01*
X75820Y-24750D01*
X76175Y-25104D01*
X76276Y-25070D01*
X76358Y-24844D01*
X76358Y-32170D01*
X76060Y-31871D01*
X76060Y-31664D01*
X76176Y-31547D01*
X76253Y-31362D01*
X76253Y-31162D01*
X76253Y-30138D01*
X76177Y-29953D01*
X76060Y-29835D01*
X76060Y-29096D01*
X76143Y-29013D01*
X76214Y-28842D01*
X76214Y-28658D01*
X76143Y-28487D01*
X76104Y-28447D01*
X76104Y-25175D01*
X75750Y-24820D01*
X75679Y-24891D01*
X75679Y-24750D01*
X75324Y-24395D01*
X75223Y-24429D01*
X75141Y-24655D01*
X75151Y-24895D01*
X75223Y-25070D01*
X75324Y-25104D01*
X75679Y-24750D01*
X75679Y-24891D01*
X75395Y-25175D01*
X75429Y-25276D01*
X75655Y-25358D01*
X75895Y-25348D01*
X76070Y-25276D01*
X76104Y-25175D01*
X76104Y-28447D01*
X76013Y-28356D01*
X75842Y-28285D01*
X75658Y-28285D01*
X75487Y-28356D01*
X75356Y-28486D01*
X75285Y-28657D01*
X75285Y-28841D01*
X75356Y-29012D01*
X75440Y-29096D01*
X75440Y-29835D01*
X75323Y-29952D01*
X75246Y-30137D01*
X75246Y-30337D01*
X75322Y-30523D01*
X75464Y-30664D01*
X75649Y-30741D01*
X75849Y-30741D01*
X76034Y-30665D01*
X76176Y-30523D01*
X76253Y-30338D01*
X76253Y-30138D01*
X76253Y-31162D01*
X76177Y-30976D01*
X76035Y-30835D01*
X75850Y-30758D01*
X75650Y-30758D01*
X75465Y-30834D01*
X75323Y-30976D01*
X75246Y-31161D01*
X75246Y-31361D01*
X75322Y-31546D01*
X75440Y-31664D01*
X75440Y-32000D01*
X75463Y-32118D01*
X75530Y-32219D01*
X76380Y-33069D01*
X76481Y-33136D01*
X76600Y-33160D01*
X79778Y-33160D01*
X79881Y-33228D01*
X80038Y-33260D01*
X80461Y-33260D01*
X80618Y-33228D01*
X80751Y-33139D01*
X80840Y-33006D01*
X80871Y-32850D01*
X80871Y-33850D01*
X80840Y-33693D01*
X80751Y-33560D01*
X80618Y-33471D01*
X80461Y-33440D01*
X80038Y-33440D01*
X79881Y-33471D01*
X79778Y-33540D01*
X76728Y-33540D01*
X75469Y-32280D01*
X75368Y-32213D01*
X75250Y-32190D01*
X74378Y-32190D01*
X74358Y-32170D01*
X74358Y-24844D01*
X74348Y-24604D01*
X74276Y-24429D01*
X74175Y-24395D01*
X74104Y-24466D01*
X74104Y-24324D01*
X74070Y-24223D01*
X73844Y-24141D01*
X73604Y-24151D01*
X73429Y-24223D01*
X73395Y-24324D01*
X73750Y-24679D01*
X74104Y-24324D01*
X74104Y-24466D01*
X73820Y-24750D01*
X74175Y-25104D01*
X74276Y-25070D01*
X74358Y-24844D01*
X74358Y-32170D01*
X74214Y-32026D01*
X74214Y-28658D01*
X74143Y-28487D01*
X74104Y-28447D01*
X74104Y-25175D01*
X73750Y-24820D01*
X73679Y-24891D01*
X73679Y-24750D01*
X73324Y-24395D01*
X73223Y-24429D01*
X73141Y-24655D01*
X73151Y-24895D01*
X73223Y-25070D01*
X73324Y-25104D01*
X73679Y-24750D01*
X73679Y-24891D01*
X73395Y-25175D01*
X73429Y-25276D01*
X73655Y-25358D01*
X73895Y-25348D01*
X74070Y-25276D01*
X74104Y-25175D01*
X74104Y-28447D01*
X74013Y-28356D01*
X73842Y-28285D01*
X73658Y-28285D01*
X73487Y-28356D01*
X73356Y-28486D01*
X73285Y-28657D01*
X73285Y-28841D01*
X73356Y-29012D01*
X73440Y-29096D01*
X73440Y-29750D01*
X73415Y-29760D01*
X73273Y-29902D01*
X73196Y-30087D01*
X73196Y-30287D01*
X73272Y-30473D01*
X73414Y-30614D01*
X73599Y-30691D01*
X73799Y-30691D01*
X73984Y-30615D01*
X74126Y-30473D01*
X74203Y-30288D01*
X74203Y-30088D01*
X74127Y-29903D01*
X74060Y-29835D01*
X74060Y-29096D01*
X74143Y-29013D01*
X74214Y-28842D01*
X74214Y-28658D01*
X74214Y-32026D01*
X74060Y-31871D01*
X74060Y-31564D01*
X74126Y-31497D01*
X74203Y-31312D01*
X74203Y-31112D01*
X74127Y-30926D01*
X73985Y-30785D01*
X73800Y-30708D01*
X73600Y-30708D01*
X73415Y-30784D01*
X73273Y-30926D01*
X73196Y-31111D01*
X73196Y-31311D01*
X73272Y-31496D01*
X73414Y-31638D01*
X73440Y-31649D01*
X73440Y-32000D01*
X73463Y-32118D01*
X73530Y-32219D01*
X74030Y-32719D01*
X74131Y-32786D01*
X74250Y-32810D01*
X75121Y-32810D01*
X76380Y-34069D01*
X76481Y-34136D01*
X76600Y-34160D01*
X79778Y-34160D01*
X79881Y-34228D01*
X80038Y-34260D01*
X80461Y-34260D01*
X80618Y-34228D01*
X80751Y-34139D01*
X80840Y-34006D01*
X80871Y-33850D01*
X80871Y-34850D01*
X80840Y-34693D01*
X80751Y-34560D01*
X80618Y-34471D01*
X80461Y-34440D01*
X80038Y-34440D01*
X79881Y-34471D01*
X79778Y-34540D01*
X76228Y-34540D01*
X75469Y-33780D01*
X75368Y-33713D01*
X75250Y-33690D01*
X72608Y-33690D01*
X72608Y-24844D01*
X72598Y-24604D01*
X72526Y-24429D01*
X72425Y-24395D01*
X72354Y-24466D01*
X72354Y-24324D01*
X72320Y-24223D01*
X72094Y-24141D01*
X71854Y-24151D01*
X71679Y-24223D01*
X71645Y-24324D01*
X72000Y-24679D01*
X72354Y-24324D01*
X72354Y-24466D01*
X72070Y-24750D01*
X72425Y-25104D01*
X72526Y-25070D01*
X72608Y-24844D01*
X72608Y-33690D01*
X72500Y-33690D01*
X72464Y-33690D01*
X72464Y-28658D01*
X72393Y-28487D01*
X72360Y-28453D01*
X72360Y-27500D01*
X72354Y-27472D01*
X72354Y-25175D01*
X72000Y-24820D01*
X71929Y-24891D01*
X71929Y-24750D01*
X71574Y-24395D01*
X71473Y-24429D01*
X71391Y-24655D01*
X71401Y-24895D01*
X71473Y-25070D01*
X71574Y-25104D01*
X71929Y-24750D01*
X71929Y-24891D01*
X71645Y-25175D01*
X71679Y-25276D01*
X71905Y-25358D01*
X72145Y-25348D01*
X72320Y-25276D01*
X72354Y-25175D01*
X72354Y-27472D01*
X72332Y-27362D01*
X72254Y-27245D01*
X72254Y-27245D01*
X71254Y-26245D01*
X71137Y-26167D01*
X71000Y-26140D01*
X70608Y-26140D01*
X70608Y-24844D01*
X70598Y-24604D01*
X70526Y-24429D01*
X70425Y-24395D01*
X70354Y-24466D01*
X70354Y-24324D01*
X70320Y-24223D01*
X70094Y-24141D01*
X69854Y-24151D01*
X69679Y-24223D01*
X69645Y-24324D01*
X70000Y-24679D01*
X70354Y-24324D01*
X70354Y-24466D01*
X70070Y-24750D01*
X70425Y-25104D01*
X70526Y-25070D01*
X70608Y-24844D01*
X70608Y-26140D01*
X70354Y-26140D01*
X70354Y-25175D01*
X70000Y-24820D01*
X69929Y-24891D01*
X69929Y-24750D01*
X69574Y-24395D01*
X69473Y-24429D01*
X69391Y-24655D01*
X69401Y-24895D01*
X69473Y-25070D01*
X69574Y-25104D01*
X69929Y-24750D01*
X69929Y-24891D01*
X69645Y-25175D01*
X69679Y-25276D01*
X69905Y-25358D01*
X70145Y-25348D01*
X70320Y-25276D01*
X70354Y-25175D01*
X70354Y-26140D01*
X66353Y-26140D01*
X66327Y-26113D01*
X66176Y-26050D01*
X66013Y-26050D01*
X65892Y-26100D01*
X65107Y-26100D01*
X64987Y-26050D01*
X64824Y-26050D01*
X64673Y-26112D01*
X64558Y-26228D01*
X64495Y-26378D01*
X64495Y-26541D01*
X64557Y-26692D01*
X64672Y-26808D01*
X64823Y-26870D01*
X64986Y-26870D01*
X65107Y-26820D01*
X65892Y-26820D01*
X66012Y-26870D01*
X66175Y-26870D01*
X66201Y-26860D01*
X70850Y-26860D01*
X71640Y-27649D01*
X71640Y-28453D01*
X71606Y-28486D01*
X71535Y-28657D01*
X71535Y-28841D01*
X71606Y-29012D01*
X71736Y-29143D01*
X71907Y-29214D01*
X72091Y-29214D01*
X72262Y-29143D01*
X72393Y-29013D01*
X72464Y-28842D01*
X72464Y-28658D01*
X72464Y-33690D01*
X71750Y-33690D01*
X70464Y-33690D01*
X70464Y-28658D01*
X70393Y-28487D01*
X70263Y-28356D01*
X70092Y-28285D01*
X69908Y-28285D01*
X69737Y-28356D01*
X69606Y-28486D01*
X69535Y-28657D01*
X69535Y-28841D01*
X69606Y-29012D01*
X69690Y-29096D01*
X69690Y-29937D01*
X69627Y-30000D01*
X69560Y-30162D01*
X69559Y-30337D01*
X69626Y-30498D01*
X69750Y-30622D01*
X69912Y-30689D01*
X70087Y-30690D01*
X70248Y-30623D01*
X70372Y-30499D01*
X70439Y-30337D01*
X70440Y-30162D01*
X70373Y-30001D01*
X70310Y-29937D01*
X70310Y-29096D01*
X70393Y-29013D01*
X70464Y-28842D01*
X70464Y-28658D01*
X70464Y-33690D01*
X70440Y-33690D01*
X70440Y-31162D01*
X70373Y-31001D01*
X70249Y-30877D01*
X70087Y-30810D01*
X69912Y-30809D01*
X69751Y-30876D01*
X69627Y-31000D01*
X69560Y-31162D01*
X69559Y-31337D01*
X69626Y-31498D01*
X69750Y-31622D01*
X69912Y-31689D01*
X70087Y-31690D01*
X70248Y-31623D01*
X70372Y-31499D01*
X70439Y-31337D01*
X70440Y-31162D01*
X70440Y-33690D01*
X67250Y-33690D01*
X67131Y-33713D01*
X67030Y-33780D01*
X66530Y-34280D01*
X66504Y-34320D01*
X66504Y-28379D01*
X66504Y-27379D01*
X66442Y-27228D01*
X66327Y-27113D01*
X66176Y-27050D01*
X66013Y-27050D01*
X65862Y-27112D01*
X65747Y-27228D01*
X65684Y-27378D01*
X65684Y-27541D01*
X65746Y-27692D01*
X65861Y-27808D01*
X66012Y-27870D01*
X66175Y-27870D01*
X66326Y-27808D01*
X66441Y-27693D01*
X66504Y-27542D01*
X66504Y-27379D01*
X66504Y-28379D01*
X66442Y-28228D01*
X66327Y-28113D01*
X66176Y-28050D01*
X66013Y-28050D01*
X65892Y-28100D01*
X65315Y-28100D01*
X65315Y-27379D01*
X65253Y-27228D01*
X65138Y-27113D01*
X64987Y-27050D01*
X64824Y-27050D01*
X64673Y-27112D01*
X64558Y-27228D01*
X64495Y-27378D01*
X64495Y-27541D01*
X64557Y-27692D01*
X64672Y-27808D01*
X64823Y-27870D01*
X64986Y-27870D01*
X65137Y-27808D01*
X65252Y-27693D01*
X65315Y-27542D01*
X65315Y-27379D01*
X65315Y-28100D01*
X65299Y-28100D01*
X65298Y-28098D01*
X65267Y-28067D01*
X65227Y-28050D01*
X65183Y-28050D01*
X64583Y-28050D01*
X64543Y-28067D01*
X64512Y-28098D01*
X64495Y-28138D01*
X64495Y-28140D01*
X63000Y-28140D01*
X62862Y-28167D01*
X62745Y-28245D01*
X62495Y-28495D01*
X62417Y-28612D01*
X62390Y-28750D01*
X62390Y-33850D01*
X62350Y-33890D01*
X61983Y-33890D01*
X61983Y-33385D01*
X61983Y-33114D01*
X61977Y-33085D01*
X61874Y-32896D01*
X61706Y-32761D01*
X61669Y-32750D01*
X61706Y-32738D01*
X61874Y-32603D01*
X61977Y-32414D01*
X61983Y-32385D01*
X61983Y-32114D01*
X61977Y-32085D01*
X61874Y-31896D01*
X61871Y-31894D01*
X61871Y-31250D01*
X61871Y-29250D01*
X61871Y-28250D01*
X61871Y-27250D01*
X61871Y-26250D01*
X61871Y-25250D01*
X61871Y-24250D01*
X61840Y-24093D01*
X61751Y-23960D01*
X61618Y-23871D01*
X61461Y-23840D01*
X61038Y-23840D01*
X60881Y-23871D01*
X60748Y-23960D01*
X60659Y-24093D01*
X60628Y-24250D01*
X60659Y-24406D01*
X60748Y-24539D01*
X60881Y-24628D01*
X61038Y-24660D01*
X61461Y-24660D01*
X61618Y-24628D01*
X61751Y-24539D01*
X61840Y-24406D01*
X61871Y-24250D01*
X61871Y-25250D01*
X61840Y-25093D01*
X61751Y-24960D01*
X61618Y-24871D01*
X61461Y-24840D01*
X61038Y-24840D01*
X60881Y-24871D01*
X60748Y-24960D01*
X60659Y-25093D01*
X60628Y-25250D01*
X60659Y-25406D01*
X60748Y-25539D01*
X60881Y-25628D01*
X61038Y-25660D01*
X61461Y-25660D01*
X61618Y-25628D01*
X61751Y-25539D01*
X61840Y-25406D01*
X61871Y-25250D01*
X61871Y-26250D01*
X61840Y-26093D01*
X61751Y-25960D01*
X61618Y-25871D01*
X61461Y-25840D01*
X61038Y-25840D01*
X60881Y-25871D01*
X60748Y-25960D01*
X60659Y-26093D01*
X60628Y-26250D01*
X60659Y-26406D01*
X60748Y-26539D01*
X60881Y-26628D01*
X61038Y-26660D01*
X61461Y-26660D01*
X61618Y-26628D01*
X61751Y-26539D01*
X61840Y-26406D01*
X61871Y-26250D01*
X61871Y-27250D01*
X61840Y-27093D01*
X61751Y-26960D01*
X61618Y-26871D01*
X61461Y-26840D01*
X61038Y-26840D01*
X60881Y-26871D01*
X60748Y-26960D01*
X60659Y-27093D01*
X60628Y-27250D01*
X60659Y-27406D01*
X60748Y-27539D01*
X60881Y-27628D01*
X61038Y-27660D01*
X61461Y-27660D01*
X61618Y-27628D01*
X61751Y-27539D01*
X61840Y-27406D01*
X61871Y-27250D01*
X61871Y-28250D01*
X61840Y-28093D01*
X61751Y-27960D01*
X61618Y-27871D01*
X61461Y-27840D01*
X61038Y-27840D01*
X60881Y-27871D01*
X60748Y-27960D01*
X60659Y-28093D01*
X60628Y-28250D01*
X60659Y-28406D01*
X60748Y-28539D01*
X60881Y-28628D01*
X61038Y-28660D01*
X61461Y-28660D01*
X61618Y-28628D01*
X61751Y-28539D01*
X61840Y-28406D01*
X61871Y-28250D01*
X61871Y-29250D01*
X61840Y-29093D01*
X61751Y-28960D01*
X61618Y-28871D01*
X61461Y-28840D01*
X61038Y-28840D01*
X60881Y-28871D01*
X60748Y-28960D01*
X60659Y-29093D01*
X60628Y-29250D01*
X60659Y-29406D01*
X60748Y-29539D01*
X60881Y-29628D01*
X61038Y-29660D01*
X61461Y-29660D01*
X61618Y-29628D01*
X61751Y-29539D01*
X61840Y-29406D01*
X61871Y-29250D01*
X61871Y-31250D01*
X61840Y-31093D01*
X61751Y-30960D01*
X61618Y-30871D01*
X61461Y-30840D01*
X61038Y-30840D01*
X60881Y-30871D01*
X60748Y-30960D01*
X60659Y-31093D01*
X60628Y-31250D01*
X60659Y-31406D01*
X60748Y-31539D01*
X60881Y-31628D01*
X61038Y-31660D01*
X61461Y-31660D01*
X61618Y-31628D01*
X61751Y-31539D01*
X61840Y-31406D01*
X61871Y-31250D01*
X61871Y-31894D01*
X61706Y-31761D01*
X61500Y-31700D01*
X61300Y-31700D01*
X61300Y-32200D01*
X61934Y-32200D01*
X61983Y-32114D01*
X61983Y-32385D01*
X61934Y-32300D01*
X61300Y-32300D01*
X61300Y-32700D01*
X61300Y-32800D01*
X61300Y-33200D01*
X61934Y-33200D01*
X61983Y-33114D01*
X61983Y-33385D01*
X61934Y-33300D01*
X61300Y-33300D01*
X61300Y-33800D01*
X61500Y-33800D01*
X61706Y-33738D01*
X61874Y-33603D01*
X61977Y-33414D01*
X61983Y-33385D01*
X61983Y-33890D01*
X61646Y-33890D01*
X61618Y-33871D01*
X61461Y-33840D01*
X61200Y-33840D01*
X61200Y-33800D01*
X61200Y-33300D01*
X61200Y-33200D01*
X61200Y-32800D01*
X61200Y-32700D01*
X61200Y-32300D01*
X61200Y-32200D01*
X61200Y-31700D01*
X61000Y-31700D01*
X60793Y-31761D01*
X60625Y-31896D01*
X60522Y-32085D01*
X60516Y-32114D01*
X60565Y-32200D01*
X61200Y-32200D01*
X61200Y-32300D01*
X60565Y-32300D01*
X60516Y-32385D01*
X60522Y-32414D01*
X60625Y-32603D01*
X60793Y-32738D01*
X60830Y-32750D01*
X60793Y-32761D01*
X60625Y-32896D01*
X60522Y-33085D01*
X60516Y-33114D01*
X60565Y-33200D01*
X61200Y-33200D01*
X61200Y-33300D01*
X60565Y-33300D01*
X60516Y-33385D01*
X60522Y-33414D01*
X60625Y-33603D01*
X60793Y-33738D01*
X61000Y-33800D01*
X61200Y-33800D01*
X61200Y-33840D01*
X61038Y-33840D01*
X60881Y-33871D01*
X60748Y-33960D01*
X60659Y-34093D01*
X60628Y-34250D01*
X60659Y-34406D01*
X60748Y-34539D01*
X60881Y-34628D01*
X61038Y-34660D01*
X61461Y-34660D01*
X61618Y-34628D01*
X61646Y-34610D01*
X62500Y-34610D01*
X62500Y-34609D01*
X62637Y-34582D01*
X62637Y-34582D01*
X62754Y-34504D01*
X63004Y-34254D01*
X63004Y-34254D01*
X63082Y-34137D01*
X63109Y-34000D01*
X63110Y-34000D01*
X63110Y-28899D01*
X63149Y-28860D01*
X64557Y-28860D01*
X64583Y-28870D01*
X64627Y-28870D01*
X65227Y-28870D01*
X65267Y-28853D01*
X65298Y-28823D01*
X65299Y-28820D01*
X65892Y-28820D01*
X66012Y-28870D01*
X66175Y-28870D01*
X66326Y-28808D01*
X66441Y-28693D01*
X66504Y-28542D01*
X66504Y-28379D01*
X66504Y-34320D01*
X66463Y-34381D01*
X66440Y-34500D01*
X66440Y-38121D01*
X66371Y-38190D01*
X66234Y-38190D01*
X66234Y-37753D01*
X66234Y-37202D01*
X66234Y-36753D01*
X66234Y-36202D01*
X66234Y-35753D01*
X66234Y-35202D01*
X66217Y-35162D01*
X66186Y-35131D01*
X66145Y-35114D01*
X66102Y-35114D01*
X65354Y-35114D01*
X65313Y-35131D01*
X65282Y-35162D01*
X65266Y-35202D01*
X65265Y-35246D01*
X65265Y-35797D01*
X65282Y-35837D01*
X65313Y-35868D01*
X65354Y-35885D01*
X65397Y-35885D01*
X66145Y-35885D01*
X66186Y-35868D01*
X66217Y-35837D01*
X66233Y-35797D01*
X66234Y-35753D01*
X66234Y-36202D01*
X66217Y-36162D01*
X66186Y-36131D01*
X66145Y-36114D01*
X66102Y-36114D01*
X65354Y-36114D01*
X65313Y-36131D01*
X65282Y-36162D01*
X65266Y-36202D01*
X65265Y-36246D01*
X65265Y-36797D01*
X65282Y-36837D01*
X65313Y-36868D01*
X65354Y-36885D01*
X65397Y-36885D01*
X66145Y-36885D01*
X66186Y-36868D01*
X66217Y-36837D01*
X66233Y-36797D01*
X66234Y-36753D01*
X66234Y-37202D01*
X66217Y-37162D01*
X66186Y-37131D01*
X66145Y-37114D01*
X66102Y-37114D01*
X65354Y-37114D01*
X65313Y-37131D01*
X65282Y-37162D01*
X65266Y-37202D01*
X65265Y-37246D01*
X65265Y-37797D01*
X65282Y-37837D01*
X65313Y-37868D01*
X65354Y-37885D01*
X65397Y-37885D01*
X66145Y-37885D01*
X66186Y-37868D01*
X66217Y-37837D01*
X66233Y-37797D01*
X66234Y-37753D01*
X66234Y-38190D01*
X66228Y-38190D01*
X66217Y-38162D01*
X66186Y-38131D01*
X66145Y-38114D01*
X66102Y-38114D01*
X65354Y-38114D01*
X65313Y-38131D01*
X65282Y-38162D01*
X65266Y-38202D01*
X65265Y-38246D01*
X65265Y-38797D01*
X65282Y-38837D01*
X65313Y-38868D01*
X65354Y-38885D01*
X65397Y-38885D01*
X66145Y-38885D01*
X66186Y-38868D01*
X66217Y-38837D01*
X66228Y-38810D01*
X66500Y-38810D01*
X66618Y-38786D01*
X66719Y-38719D01*
X66969Y-38469D01*
X66969Y-38469D01*
X66969Y-38469D01*
X67009Y-38408D01*
X67036Y-38368D01*
X67036Y-38368D01*
X67060Y-38250D01*
X67060Y-34628D01*
X67378Y-34310D01*
X71621Y-34310D01*
X71940Y-34628D01*
X71940Y-38971D01*
X71721Y-39190D01*
X71624Y-39190D01*
X71624Y-36825D01*
X71624Y-36174D01*
X71586Y-36082D01*
X71515Y-36012D01*
X71423Y-35974D01*
X71324Y-35974D01*
X71112Y-35974D01*
X71050Y-36036D01*
X71050Y-36450D01*
X71561Y-36450D01*
X71624Y-36387D01*
X71624Y-36174D01*
X71624Y-36825D01*
X71624Y-36612D01*
X71561Y-36550D01*
X71050Y-36550D01*
X71050Y-36963D01*
X71112Y-37025D01*
X71324Y-37025D01*
X71423Y-37025D01*
X71515Y-36987D01*
X71586Y-36917D01*
X71624Y-36825D01*
X71624Y-39190D01*
X71484Y-39190D01*
X71484Y-39123D01*
X71484Y-38753D01*
X71484Y-38202D01*
X71484Y-37753D01*
X71484Y-37202D01*
X71467Y-37162D01*
X71436Y-37131D01*
X71395Y-37114D01*
X71352Y-37114D01*
X70950Y-37114D01*
X70950Y-36963D01*
X70950Y-36550D01*
X70950Y-36450D01*
X70950Y-36036D01*
X70887Y-35974D01*
X70675Y-35974D01*
X70576Y-35974D01*
X70484Y-36012D01*
X70413Y-36082D01*
X70375Y-36174D01*
X70375Y-36387D01*
X70438Y-36450D01*
X70950Y-36450D01*
X70950Y-36550D01*
X70438Y-36550D01*
X70375Y-36612D01*
X70375Y-36825D01*
X70413Y-36917D01*
X70484Y-36987D01*
X70576Y-37025D01*
X70675Y-37025D01*
X70887Y-37025D01*
X70950Y-36963D01*
X70950Y-37114D01*
X70604Y-37114D01*
X70563Y-37131D01*
X70532Y-37162D01*
X70516Y-37202D01*
X70515Y-37246D01*
X70515Y-37797D01*
X70532Y-37837D01*
X70563Y-37868D01*
X70604Y-37885D01*
X70647Y-37885D01*
X71395Y-37885D01*
X71436Y-37868D01*
X71467Y-37837D01*
X71483Y-37797D01*
X71484Y-37753D01*
X71484Y-38202D01*
X71467Y-38162D01*
X71436Y-38131D01*
X71395Y-38114D01*
X71352Y-38114D01*
X70604Y-38114D01*
X70563Y-38131D01*
X70532Y-38162D01*
X70516Y-38202D01*
X70515Y-38246D01*
X70515Y-38797D01*
X70532Y-38837D01*
X70563Y-38868D01*
X70604Y-38885D01*
X70647Y-38885D01*
X71395Y-38885D01*
X71436Y-38868D01*
X71467Y-38837D01*
X71483Y-38797D01*
X71484Y-38753D01*
X71484Y-39123D01*
X71467Y-39083D01*
X71436Y-39052D01*
X71395Y-39035D01*
X71352Y-39035D01*
X70604Y-39035D01*
X70563Y-39052D01*
X70532Y-39083D01*
X70516Y-39123D01*
X70515Y-39167D01*
X70515Y-39876D01*
X70532Y-39916D01*
X70563Y-39947D01*
X70604Y-39964D01*
X70647Y-39964D01*
X71395Y-39964D01*
X71436Y-39947D01*
X71467Y-39916D01*
X71483Y-39876D01*
X71484Y-39832D01*
X71484Y-39810D01*
X71849Y-39810D01*
X71968Y-39786D01*
X72069Y-39719D01*
X72469Y-39319D01*
X72469Y-39319D01*
X72469Y-39319D01*
X72536Y-39218D01*
X72536Y-39218D01*
X72555Y-39123D01*
X72560Y-39099D01*
X72559Y-39099D01*
X72560Y-39099D01*
X72560Y-34500D01*
X72536Y-34381D01*
X72488Y-34310D01*
X72500Y-34310D01*
X75121Y-34310D01*
X75880Y-35069D01*
X75981Y-35136D01*
X76100Y-35160D01*
X79778Y-35160D01*
X79881Y-35228D01*
X80038Y-35260D01*
X80461Y-35260D01*
X80618Y-35228D01*
X80751Y-35139D01*
X80840Y-35006D01*
X80871Y-34850D01*
X80871Y-35850D01*
X80840Y-35693D01*
X80751Y-35560D01*
X80618Y-35471D01*
X80461Y-35440D01*
X80038Y-35440D01*
X79881Y-35471D01*
X79778Y-35540D01*
X76150Y-35540D01*
X74978Y-35540D01*
X74219Y-34780D01*
X74118Y-34713D01*
X74000Y-34690D01*
X73250Y-34690D01*
X73131Y-34713D01*
X73030Y-34780D01*
X72963Y-34881D01*
X72940Y-35000D01*
X72963Y-35118D01*
X73030Y-35219D01*
X73131Y-35286D01*
X73250Y-35310D01*
X73871Y-35310D01*
X74630Y-36069D01*
X74731Y-36136D01*
X74850Y-36160D01*
X75401Y-36160D01*
X75371Y-36190D01*
X74478Y-36190D01*
X74467Y-36162D01*
X74436Y-36131D01*
X74395Y-36114D01*
X74352Y-36114D01*
X73604Y-36114D01*
X73563Y-36131D01*
X73532Y-36162D01*
X73516Y-36202D01*
X73515Y-36246D01*
X73515Y-36797D01*
X73532Y-36837D01*
X73563Y-36868D01*
X73604Y-36885D01*
X73647Y-36885D01*
X74395Y-36885D01*
X74436Y-36868D01*
X74467Y-36837D01*
X74478Y-36810D01*
X75500Y-36810D01*
X75618Y-36786D01*
X75719Y-36719D01*
X76278Y-36160D01*
X79778Y-36160D01*
X79881Y-36228D01*
X80038Y-36260D01*
X80461Y-36260D01*
X80618Y-36228D01*
X80751Y-36139D01*
X80840Y-36006D01*
X80871Y-35850D01*
X80871Y-36850D01*
X80840Y-36693D01*
X80751Y-36560D01*
X80618Y-36471D01*
X80461Y-36440D01*
X80038Y-36440D01*
X79881Y-36471D01*
X79778Y-36540D01*
X76400Y-36540D01*
X76281Y-36563D01*
X76180Y-36630D01*
X76180Y-36630D01*
X75621Y-37190D01*
X74478Y-37190D01*
X74467Y-37162D01*
X74436Y-37131D01*
X74395Y-37114D01*
X74352Y-37114D01*
X73604Y-37114D01*
X73563Y-37131D01*
X73532Y-37162D01*
X73521Y-37190D01*
X73250Y-37190D01*
X73131Y-37213D01*
X73091Y-37240D01*
X73030Y-37280D01*
X73030Y-37280D01*
X72780Y-37530D01*
X72713Y-37631D01*
X72690Y-37750D01*
X72690Y-39371D01*
X71371Y-40690D01*
X70628Y-40690D01*
X70310Y-40371D01*
X70310Y-36000D01*
X70286Y-35881D01*
X70219Y-35780D01*
X69719Y-35280D01*
X69618Y-35213D01*
X69500Y-35190D01*
X69228Y-35190D01*
X69217Y-35162D01*
X69186Y-35131D01*
X69145Y-35114D01*
X69102Y-35114D01*
X68354Y-35114D01*
X68313Y-35131D01*
X68282Y-35162D01*
X68266Y-35202D01*
X68265Y-35246D01*
X68265Y-35797D01*
X68282Y-35837D01*
X68313Y-35868D01*
X68354Y-35885D01*
X68397Y-35885D01*
X69145Y-35885D01*
X69186Y-35868D01*
X69217Y-35837D01*
X69228Y-35810D01*
X69371Y-35810D01*
X69690Y-36128D01*
X69690Y-40500D01*
X69713Y-40618D01*
X69780Y-40719D01*
X70280Y-41219D01*
X70381Y-41286D01*
X70500Y-41310D01*
X71500Y-41310D01*
X71618Y-41286D01*
X71719Y-41219D01*
X73219Y-39719D01*
X73219Y-39719D01*
X73219Y-39719D01*
X73286Y-39618D01*
X73286Y-39618D01*
X73310Y-39500D01*
X73310Y-37878D01*
X73378Y-37810D01*
X73521Y-37810D01*
X73532Y-37837D01*
X73563Y-37868D01*
X73604Y-37885D01*
X73647Y-37885D01*
X74395Y-37885D01*
X74436Y-37868D01*
X74467Y-37837D01*
X74478Y-37810D01*
X75750Y-37810D01*
X75868Y-37786D01*
X75969Y-37719D01*
X76528Y-37160D01*
X79778Y-37160D01*
X79881Y-37228D01*
X80038Y-37260D01*
X80461Y-37260D01*
X80618Y-37228D01*
X80751Y-37139D01*
X80840Y-37006D01*
X80871Y-36850D01*
X80871Y-37850D01*
X80840Y-37693D01*
X80751Y-37560D01*
X80618Y-37471D01*
X80461Y-37440D01*
X80038Y-37440D01*
X79881Y-37471D01*
X79778Y-37540D01*
X76650Y-37540D01*
X76531Y-37563D01*
X76430Y-37630D01*
X76430Y-37630D01*
X75871Y-38190D01*
X75500Y-38190D01*
X74478Y-38190D01*
X74467Y-38162D01*
X74436Y-38131D01*
X74395Y-38114D01*
X74352Y-38114D01*
X73604Y-38114D01*
X73563Y-38131D01*
X73532Y-38162D01*
X73516Y-38202D01*
X73515Y-38246D01*
X73515Y-38797D01*
X73532Y-38837D01*
X73563Y-38868D01*
X73604Y-38885D01*
X73647Y-38885D01*
X74395Y-38885D01*
X74436Y-38868D01*
X74467Y-38837D01*
X74478Y-38810D01*
X75371Y-38810D01*
X75530Y-38969D01*
X75530Y-38969D01*
X75690Y-39128D01*
X75690Y-41871D01*
X74871Y-42690D01*
X74484Y-42690D01*
X74484Y-39753D01*
X74484Y-39202D01*
X74467Y-39162D01*
X74436Y-39131D01*
X74395Y-39114D01*
X74352Y-39114D01*
X73604Y-39114D01*
X73563Y-39131D01*
X73532Y-39162D01*
X73516Y-39202D01*
X73515Y-39246D01*
X73515Y-39797D01*
X73532Y-39837D01*
X73563Y-39868D01*
X73604Y-39885D01*
X73647Y-39885D01*
X74395Y-39885D01*
X74436Y-39868D01*
X74467Y-39837D01*
X74483Y-39797D01*
X74484Y-39753D01*
X74484Y-42690D01*
X69334Y-42690D01*
X69334Y-41825D01*
X69334Y-41174D01*
X69296Y-41082D01*
X69234Y-41020D01*
X69234Y-40753D01*
X69234Y-40202D01*
X69234Y-39753D01*
X69234Y-39202D01*
X69234Y-38753D01*
X69234Y-38202D01*
X69234Y-37753D01*
X69234Y-37202D01*
X69217Y-37162D01*
X69186Y-37131D01*
X69145Y-37114D01*
X69102Y-37114D01*
X68354Y-37114D01*
X68313Y-37131D01*
X68282Y-37162D01*
X68266Y-37202D01*
X68265Y-37246D01*
X68265Y-37797D01*
X68282Y-37837D01*
X68313Y-37868D01*
X68354Y-37885D01*
X68397Y-37885D01*
X69145Y-37885D01*
X69186Y-37868D01*
X69217Y-37837D01*
X69233Y-37797D01*
X69234Y-37753D01*
X69234Y-38202D01*
X69217Y-38162D01*
X69186Y-38131D01*
X69145Y-38114D01*
X69102Y-38114D01*
X68354Y-38114D01*
X68313Y-38131D01*
X68282Y-38162D01*
X68266Y-38202D01*
X68265Y-38246D01*
X68265Y-38797D01*
X68282Y-38837D01*
X68313Y-38868D01*
X68354Y-38885D01*
X68397Y-38885D01*
X69145Y-38885D01*
X69186Y-38868D01*
X69217Y-38837D01*
X69233Y-38797D01*
X69234Y-38753D01*
X69234Y-39202D01*
X69217Y-39162D01*
X69186Y-39131D01*
X69145Y-39114D01*
X69102Y-39114D01*
X68354Y-39114D01*
X68313Y-39131D01*
X68282Y-39162D01*
X68266Y-39202D01*
X68265Y-39246D01*
X68265Y-39797D01*
X68282Y-39837D01*
X68313Y-39868D01*
X68354Y-39885D01*
X68397Y-39885D01*
X69145Y-39885D01*
X69186Y-39868D01*
X69217Y-39837D01*
X69233Y-39797D01*
X69234Y-39753D01*
X69234Y-40202D01*
X69217Y-40162D01*
X69186Y-40131D01*
X69145Y-40114D01*
X69102Y-40114D01*
X68354Y-40114D01*
X68313Y-40131D01*
X68282Y-40162D01*
X68266Y-40202D01*
X68265Y-40246D01*
X68265Y-40797D01*
X68282Y-40837D01*
X68313Y-40868D01*
X68354Y-40885D01*
X68397Y-40885D01*
X69145Y-40885D01*
X69186Y-40868D01*
X69217Y-40837D01*
X69233Y-40797D01*
X69234Y-40753D01*
X69234Y-41020D01*
X69226Y-41012D01*
X69134Y-40974D01*
X69035Y-40974D01*
X68862Y-40974D01*
X68800Y-41036D01*
X68800Y-41450D01*
X69272Y-41450D01*
X69334Y-41387D01*
X69334Y-41174D01*
X69334Y-41825D01*
X69334Y-41612D01*
X69272Y-41550D01*
X68800Y-41550D01*
X68800Y-41963D01*
X68862Y-42025D01*
X69035Y-42025D01*
X69134Y-42025D01*
X69226Y-41987D01*
X69296Y-41917D01*
X69334Y-41825D01*
X69334Y-42690D01*
X68700Y-42690D01*
X68700Y-41963D01*
X68700Y-41550D01*
X68700Y-41450D01*
X68700Y-41036D01*
X68637Y-40974D01*
X68464Y-40974D01*
X68365Y-40974D01*
X68273Y-41012D01*
X68203Y-41082D01*
X68165Y-41174D01*
X68165Y-41387D01*
X68227Y-41450D01*
X68700Y-41450D01*
X68700Y-41550D01*
X68227Y-41550D01*
X68165Y-41612D01*
X68165Y-41825D01*
X68203Y-41917D01*
X68273Y-41987D01*
X68365Y-42025D01*
X68464Y-42025D01*
X68637Y-42025D01*
X68700Y-41963D01*
X68700Y-42690D01*
X68128Y-42690D01*
X68060Y-42621D01*
X68060Y-36810D01*
X68271Y-36810D01*
X68282Y-36837D01*
X68313Y-36868D01*
X68354Y-36885D01*
X68397Y-36885D01*
X69145Y-36885D01*
X69186Y-36868D01*
X69217Y-36837D01*
X69233Y-36797D01*
X69234Y-36753D01*
X69234Y-36202D01*
X69217Y-36162D01*
X69186Y-36131D01*
X69145Y-36114D01*
X69102Y-36114D01*
X68354Y-36114D01*
X68313Y-36131D01*
X68282Y-36162D01*
X68271Y-36190D01*
X67750Y-36190D01*
X67631Y-36213D01*
X67530Y-36280D01*
X67463Y-36381D01*
X67440Y-36500D01*
X67440Y-42750D01*
X67463Y-42868D01*
X67530Y-42969D01*
X67780Y-43219D01*
X67780Y-43219D01*
X67841Y-43259D01*
X67881Y-43286D01*
X67881Y-43286D01*
X68000Y-43310D01*
X75000Y-43310D01*
X75118Y-43286D01*
X75219Y-43219D01*
X76219Y-42219D01*
X76286Y-42118D01*
X76310Y-42000D01*
X76310Y-39000D01*
X76286Y-38881D01*
X76286Y-38881D01*
X76259Y-38841D01*
X76219Y-38780D01*
X76219Y-38780D01*
X76182Y-38743D01*
X76219Y-38719D01*
X76778Y-38160D01*
X79778Y-38160D01*
X79881Y-38228D01*
X80038Y-38260D01*
X80461Y-38260D01*
X80618Y-38228D01*
X80751Y-38139D01*
X80840Y-38006D01*
X80871Y-37850D01*
X80871Y-38494D01*
X80706Y-38361D01*
X80500Y-38300D01*
X80300Y-38300D01*
X80300Y-38800D01*
X80934Y-38800D01*
X80983Y-38714D01*
X80983Y-38985D01*
X80934Y-38900D01*
X80300Y-38900D01*
X80300Y-39400D01*
X80500Y-39400D01*
X80706Y-39338D01*
X80874Y-39203D01*
X80977Y-39014D01*
X80983Y-38985D01*
X80983Y-49200D01*
X80871Y-49200D01*
X80871Y-39850D01*
X80840Y-39693D01*
X80751Y-39560D01*
X80618Y-39471D01*
X80461Y-39440D01*
X80200Y-39440D01*
X80200Y-39400D01*
X80200Y-38900D01*
X80200Y-38800D01*
X80200Y-38300D01*
X80000Y-38300D01*
X79793Y-38361D01*
X79625Y-38496D01*
X79522Y-38685D01*
X79516Y-38714D01*
X79565Y-38800D01*
X80200Y-38800D01*
X80200Y-38900D01*
X79565Y-38900D01*
X79516Y-38985D01*
X79522Y-39014D01*
X79625Y-39203D01*
X79793Y-39338D01*
X80000Y-39400D01*
X80200Y-39400D01*
X80200Y-39440D01*
X80038Y-39440D01*
X79881Y-39471D01*
X79748Y-39560D01*
X79659Y-39693D01*
X79628Y-39850D01*
X79659Y-40006D01*
X79748Y-40139D01*
X79881Y-40228D01*
X80038Y-40260D01*
X80461Y-40260D01*
X80618Y-40228D01*
X80751Y-40139D01*
X80840Y-40006D01*
X80871Y-39850D01*
X80871Y-49200D01*
X76750Y-49200D01*
X66234Y-49200D01*
X66234Y-41832D01*
X66234Y-41123D01*
X66234Y-40753D01*
X66234Y-40202D01*
X66234Y-39753D01*
X66234Y-39202D01*
X66217Y-39162D01*
X66186Y-39131D01*
X66145Y-39114D01*
X66102Y-39114D01*
X65354Y-39114D01*
X65313Y-39131D01*
X65282Y-39162D01*
X65266Y-39202D01*
X65265Y-39246D01*
X65265Y-39797D01*
X65282Y-39837D01*
X65313Y-39868D01*
X65354Y-39885D01*
X65397Y-39885D01*
X66145Y-39885D01*
X66186Y-39868D01*
X66217Y-39837D01*
X66233Y-39797D01*
X66234Y-39753D01*
X66234Y-40202D01*
X66217Y-40162D01*
X66186Y-40131D01*
X66145Y-40114D01*
X66102Y-40114D01*
X65354Y-40114D01*
X65313Y-40131D01*
X65282Y-40162D01*
X65266Y-40202D01*
X65265Y-40246D01*
X65265Y-40797D01*
X65282Y-40837D01*
X65313Y-40868D01*
X65354Y-40885D01*
X65397Y-40885D01*
X66145Y-40885D01*
X66186Y-40868D01*
X66217Y-40837D01*
X66233Y-40797D01*
X66234Y-40753D01*
X66234Y-41123D01*
X66217Y-41083D01*
X66186Y-41052D01*
X66145Y-41035D01*
X66102Y-41035D01*
X65354Y-41035D01*
X65313Y-41052D01*
X65282Y-41083D01*
X65266Y-41123D01*
X65265Y-41167D01*
X65265Y-41876D01*
X65282Y-41916D01*
X65313Y-41947D01*
X65354Y-41964D01*
X65397Y-41964D01*
X66145Y-41964D01*
X66186Y-41947D01*
X66217Y-41916D01*
X66233Y-41876D01*
X66234Y-41832D01*
X66234Y-49200D01*
X65250Y-49200D01*
X65050Y-49200D01*
X65050Y-44488D01*
X65043Y-44453D01*
X65023Y-44424D01*
X64994Y-44405D01*
X64960Y-44398D01*
X62204Y-44398D01*
X62170Y-44405D01*
X62141Y-44424D01*
X62122Y-44453D01*
X62115Y-44488D01*
X62115Y-49200D01*
X62000Y-49200D01*
X61878Y-49200D01*
X61878Y-41833D01*
X61871Y-41669D01*
X61871Y-36250D01*
X61871Y-35250D01*
X61840Y-35093D01*
X61751Y-34960D01*
X61618Y-34871D01*
X61461Y-34840D01*
X61038Y-34840D01*
X60881Y-34871D01*
X60748Y-34960D01*
X60659Y-35093D01*
X60628Y-35250D01*
X60659Y-35406D01*
X60748Y-35539D01*
X60881Y-35628D01*
X61038Y-35660D01*
X61461Y-35660D01*
X61618Y-35628D01*
X61751Y-35539D01*
X61840Y-35406D01*
X61871Y-35250D01*
X61871Y-36250D01*
X61840Y-36093D01*
X61751Y-35960D01*
X61618Y-35871D01*
X61461Y-35840D01*
X61038Y-35840D01*
X60881Y-35871D01*
X60748Y-35960D01*
X60659Y-36093D01*
X60628Y-36250D01*
X60659Y-36406D01*
X60748Y-36539D01*
X60881Y-36628D01*
X60940Y-36640D01*
X60940Y-37625D01*
X60839Y-37725D01*
X60766Y-37903D01*
X60765Y-38095D01*
X60839Y-38273D01*
X60975Y-38410D01*
X61153Y-38483D01*
X61345Y-38484D01*
X61523Y-38410D01*
X61660Y-38274D01*
X61733Y-38096D01*
X61734Y-37904D01*
X61660Y-37726D01*
X61560Y-37625D01*
X61560Y-36640D01*
X61618Y-36628D01*
X61751Y-36539D01*
X61840Y-36406D01*
X61871Y-36250D01*
X61871Y-41669D01*
X61868Y-41585D01*
X61792Y-41401D01*
X61734Y-41381D01*
X61734Y-40654D01*
X61660Y-40476D01*
X61560Y-40375D01*
X61560Y-39374D01*
X61660Y-39274D01*
X61733Y-39096D01*
X61734Y-38904D01*
X61660Y-38726D01*
X61524Y-38589D01*
X61346Y-38516D01*
X61154Y-38515D01*
X60976Y-38589D01*
X60839Y-38725D01*
X60766Y-38903D01*
X60765Y-39095D01*
X60839Y-39273D01*
X60940Y-39374D01*
X60940Y-40375D01*
X60839Y-40475D01*
X60766Y-40653D01*
X60765Y-40845D01*
X60839Y-41023D01*
X60975Y-41160D01*
X60984Y-41163D01*
X60917Y-41191D01*
X60881Y-41294D01*
X61250Y-41663D01*
X61618Y-41294D01*
X61582Y-41191D01*
X61511Y-41165D01*
X61523Y-41160D01*
X61660Y-41024D01*
X61733Y-40846D01*
X61734Y-40654D01*
X61734Y-41381D01*
X61689Y-41365D01*
X61320Y-41734D01*
X61689Y-42103D01*
X61792Y-42066D01*
X61878Y-41833D01*
X61878Y-49200D01*
X61618Y-49200D01*
X61618Y-42173D01*
X61250Y-41804D01*
X61179Y-41875D01*
X61179Y-41734D01*
X60810Y-41365D01*
X60707Y-41401D01*
X60621Y-41634D01*
X60631Y-41882D01*
X60707Y-42066D01*
X60810Y-42103D01*
X61179Y-41734D01*
X61179Y-41875D01*
X60881Y-42173D01*
X60917Y-42276D01*
X61150Y-42362D01*
X61398Y-42352D01*
X61582Y-42276D01*
X61618Y-42173D01*
X61618Y-49200D01*
X60300Y-49200D01*
X60300Y-23300D01*
X61270Y-23300D01*
X62270Y-22300D01*
X75229Y-22300D01*
X76229Y-23300D01*
X80729Y-23300D01*
X81200Y-23770D01*
X81200Y-43500D01*
X81200Y-49200D01*
X81200Y-49200D01*
G37*
G54D24*
X81200Y-49200D02*
X80983Y-49200D01*
X80983Y-38985D01*
X80983Y-38714D01*
X80977Y-38685D01*
X80874Y-38496D01*
X80871Y-38494D01*
X80871Y-37850D01*
X80871Y-36850D01*
X80871Y-35850D01*
X80871Y-34850D01*
X80871Y-33850D01*
X80871Y-32850D01*
X80871Y-31250D01*
X80871Y-30250D01*
X80871Y-29250D01*
X80871Y-28250D01*
X80871Y-27250D01*
X80871Y-26250D01*
X80871Y-25250D01*
X80871Y-24250D01*
X80840Y-24093D01*
X80751Y-23960D01*
X80618Y-23871D01*
X80461Y-23840D01*
X80038Y-23840D01*
X79881Y-23871D01*
X79748Y-23960D01*
X79659Y-24093D01*
X79628Y-24250D01*
X79659Y-24406D01*
X79748Y-24539D01*
X79881Y-24628D01*
X80038Y-24660D01*
X80461Y-24660D01*
X80618Y-24628D01*
X80751Y-24539D01*
X80840Y-24406D01*
X80871Y-24250D01*
X80871Y-25250D01*
X80840Y-25093D01*
X80751Y-24960D01*
X80618Y-24871D01*
X80461Y-24840D01*
X80038Y-24840D01*
X79881Y-24871D01*
X79748Y-24960D01*
X79659Y-25093D01*
X79628Y-25250D01*
X79659Y-25406D01*
X79748Y-25539D01*
X79881Y-25628D01*
X80038Y-25660D01*
X80461Y-25660D01*
X80618Y-25628D01*
X80751Y-25539D01*
X80840Y-25406D01*
X80871Y-25250D01*
X80871Y-26250D01*
X80840Y-26093D01*
X80751Y-25960D01*
X80618Y-25871D01*
X80461Y-25840D01*
X80038Y-25840D01*
X79881Y-25871D01*
X79748Y-25960D01*
X79659Y-26093D01*
X79628Y-26250D01*
X79659Y-26406D01*
X79748Y-26539D01*
X79881Y-26628D01*
X80038Y-26660D01*
X80461Y-26660D01*
X80618Y-26628D01*
X80751Y-26539D01*
X80840Y-26406D01*
X80871Y-26250D01*
X80871Y-27250D01*
X80840Y-27093D01*
X80751Y-26960D01*
X80618Y-26871D01*
X80461Y-26840D01*
X80038Y-26840D01*
X79881Y-26871D01*
X79748Y-26960D01*
X79659Y-27093D01*
X79628Y-27250D01*
X79659Y-27406D01*
X79748Y-27539D01*
X79881Y-27628D01*
X80038Y-27660D01*
X80461Y-27660D01*
X80618Y-27628D01*
X80751Y-27539D01*
X80840Y-27406D01*
X80871Y-27250D01*
X80871Y-28250D01*
X80840Y-28093D01*
X80751Y-27960D01*
X80618Y-27871D01*
X80461Y-27840D01*
X80038Y-27840D01*
X79881Y-27871D01*
X79748Y-27960D01*
X79659Y-28093D01*
X79628Y-28250D01*
X79659Y-28406D01*
X79748Y-28539D01*
X79881Y-28628D01*
X80038Y-28660D01*
X80461Y-28660D01*
X80618Y-28628D01*
X80751Y-28539D01*
X80840Y-28406D01*
X80871Y-28250D01*
X80871Y-29250D01*
X80840Y-29093D01*
X80751Y-28960D01*
X80618Y-28871D01*
X80461Y-28840D01*
X80038Y-28840D01*
X79881Y-28871D01*
X79748Y-28960D01*
X79659Y-29093D01*
X79628Y-29250D01*
X79659Y-29406D01*
X79748Y-29539D01*
X79881Y-29628D01*
X80038Y-29660D01*
X80461Y-29660D01*
X80618Y-29628D01*
X80751Y-29539D01*
X80840Y-29406D01*
X80871Y-29250D01*
X80871Y-30250D01*
X80840Y-30093D01*
X80751Y-29960D01*
X80618Y-29871D01*
X80461Y-29840D01*
X80038Y-29840D01*
X79881Y-29871D01*
X79748Y-29960D01*
X79659Y-30093D01*
X79628Y-30250D01*
X79659Y-30406D01*
X79748Y-30539D01*
X79881Y-30628D01*
X80038Y-30660D01*
X80461Y-30660D01*
X80618Y-30628D01*
X80751Y-30539D01*
X80840Y-30406D01*
X80871Y-30250D01*
X80871Y-31250D01*
X80840Y-31093D01*
X80751Y-30960D01*
X80618Y-30871D01*
X80461Y-30840D01*
X80038Y-30840D01*
X79881Y-30871D01*
X79778Y-30940D01*
X78358Y-30940D01*
X78358Y-24844D01*
X78348Y-24604D01*
X78276Y-24429D01*
X78175Y-24395D01*
X78104Y-24466D01*
X78104Y-24324D01*
X78070Y-24223D01*
X77844Y-24141D01*
X77604Y-24151D01*
X77429Y-24223D01*
X77395Y-24324D01*
X77750Y-24679D01*
X78104Y-24324D01*
X78104Y-24466D01*
X77820Y-24750D01*
X78175Y-25104D01*
X78276Y-25070D01*
X78358Y-24844D01*
X78358Y-30940D01*
X78253Y-30940D01*
X78253Y-30138D01*
X78177Y-29953D01*
X78060Y-29835D01*
X78060Y-29096D01*
X78143Y-29013D01*
X78214Y-28842D01*
X78214Y-28658D01*
X78143Y-28487D01*
X78104Y-28447D01*
X78104Y-25175D01*
X77750Y-24820D01*
X77679Y-24891D01*
X77679Y-24750D01*
X77324Y-24395D01*
X77223Y-24429D01*
X77141Y-24655D01*
X77151Y-24895D01*
X77223Y-25070D01*
X77324Y-25104D01*
X77679Y-24750D01*
X77679Y-24891D01*
X77395Y-25175D01*
X77429Y-25276D01*
X77655Y-25358D01*
X77895Y-25348D01*
X78070Y-25276D01*
X78104Y-25175D01*
X78104Y-28447D01*
X78013Y-28356D01*
X77842Y-28285D01*
X77658Y-28285D01*
X77487Y-28356D01*
X77356Y-28486D01*
X77285Y-28657D01*
X77285Y-28841D01*
X77356Y-29012D01*
X77440Y-29096D01*
X77440Y-29835D01*
X77323Y-29952D01*
X77246Y-30137D01*
X77246Y-30337D01*
X77322Y-30523D01*
X77464Y-30664D01*
X77649Y-30741D01*
X77849Y-30741D01*
X78034Y-30665D01*
X78176Y-30523D01*
X78253Y-30338D01*
X78253Y-30138D01*
X78253Y-30940D01*
X78140Y-30940D01*
X78035Y-30835D01*
X77850Y-30758D01*
X77650Y-30758D01*
X77465Y-30834D01*
X77323Y-30976D01*
X77246Y-31161D01*
X77246Y-31361D01*
X77322Y-31546D01*
X77464Y-31688D01*
X77649Y-31765D01*
X77849Y-31765D01*
X78034Y-31689D01*
X78164Y-31560D01*
X79778Y-31560D01*
X79881Y-31628D01*
X80038Y-31660D01*
X80461Y-31660D01*
X80618Y-31628D01*
X80751Y-31539D01*
X80840Y-31406D01*
X80871Y-31250D01*
X80871Y-32850D01*
X80840Y-32693D01*
X80751Y-32560D01*
X80618Y-32471D01*
X80461Y-32440D01*
X80038Y-32440D01*
X79881Y-32471D01*
X79778Y-32540D01*
X76728Y-32540D01*
X76358Y-32170D01*
X76358Y-24844D01*
X76348Y-24604D01*
X76276Y-24429D01*
X76175Y-24395D01*
X76104Y-24466D01*
X76104Y-24324D01*
X76070Y-24223D01*
X75844Y-24141D01*
X75604Y-24151D01*
X75429Y-24223D01*
X75395Y-24324D01*
X75750Y-24679D01*
X76104Y-24324D01*
X76104Y-24466D01*
X75820Y-24750D01*
X76175Y-25104D01*
X76276Y-25070D01*
X76358Y-24844D01*
X76358Y-32170D01*
X76060Y-31871D01*
X76060Y-31664D01*
X76176Y-31547D01*
X76253Y-31362D01*
X76253Y-31162D01*
X76253Y-30138D01*
X76177Y-29953D01*
X76060Y-29835D01*
X76060Y-29096D01*
X76143Y-29013D01*
X76214Y-28842D01*
X76214Y-28658D01*
X76143Y-28487D01*
X76104Y-28447D01*
X76104Y-25175D01*
X75750Y-24820D01*
X75679Y-24891D01*
X75679Y-24750D01*
X75324Y-24395D01*
X75223Y-24429D01*
X75141Y-24655D01*
X75151Y-24895D01*
X75223Y-25070D01*
X75324Y-25104D01*
X75679Y-24750D01*
X75679Y-24891D01*
X75395Y-25175D01*
X75429Y-25276D01*
X75655Y-25358D01*
X75895Y-25348D01*
X76070Y-25276D01*
X76104Y-25175D01*
X76104Y-28447D01*
X76013Y-28356D01*
X75842Y-28285D01*
X75658Y-28285D01*
X75487Y-28356D01*
X75356Y-28486D01*
X75285Y-28657D01*
X75285Y-28841D01*
X75356Y-29012D01*
X75440Y-29096D01*
X75440Y-29835D01*
X75323Y-29952D01*
X75246Y-30137D01*
X75246Y-30337D01*
X75322Y-30523D01*
X75464Y-30664D01*
X75649Y-30741D01*
X75849Y-30741D01*
X76034Y-30665D01*
X76176Y-30523D01*
X76253Y-30338D01*
X76253Y-30138D01*
X76253Y-31162D01*
X76177Y-30976D01*
X76035Y-30835D01*
X75850Y-30758D01*
X75650Y-30758D01*
X75465Y-30834D01*
X75323Y-30976D01*
X75246Y-31161D01*
X75246Y-31361D01*
X75322Y-31546D01*
X75440Y-31664D01*
X75440Y-32000D01*
X75463Y-32118D01*
X75530Y-32219D01*
X76380Y-33069D01*
X76481Y-33136D01*
X76600Y-33160D01*
X79778Y-33160D01*
X79881Y-33228D01*
X80038Y-33260D01*
X80461Y-33260D01*
X80618Y-33228D01*
X80751Y-33139D01*
X80840Y-33006D01*
X80871Y-32850D01*
X80871Y-33850D01*
X80840Y-33693D01*
X80751Y-33560D01*
X80618Y-33471D01*
X80461Y-33440D01*
X80038Y-33440D01*
X79881Y-33471D01*
X79778Y-33540D01*
X76728Y-33540D01*
X75469Y-32280D01*
X75368Y-32213D01*
X75250Y-32190D01*
X74378Y-32190D01*
X74358Y-32170D01*
X74358Y-24844D01*
X74348Y-24604D01*
X74276Y-24429D01*
X74175Y-24395D01*
X74104Y-24466D01*
X74104Y-24324D01*
X74070Y-24223D01*
X73844Y-24141D01*
X73604Y-24151D01*
X73429Y-24223D01*
X73395Y-24324D01*
X73750Y-24679D01*
X74104Y-24324D01*
X74104Y-24466D01*
X73820Y-24750D01*
X74175Y-25104D01*
X74276Y-25070D01*
X74358Y-24844D01*
X74358Y-32170D01*
X74214Y-32026D01*
X74214Y-28658D01*
X74143Y-28487D01*
X74104Y-28447D01*
X74104Y-25175D01*
X73750Y-24820D01*
X73679Y-24891D01*
X73679Y-24750D01*
X73324Y-24395D01*
X73223Y-24429D01*
X73141Y-24655D01*
X73151Y-24895D01*
X73223Y-25070D01*
X73324Y-25104D01*
X73679Y-24750D01*
X73679Y-24891D01*
X73395Y-25175D01*
X73429Y-25276D01*
X73655Y-25358D01*
X73895Y-25348D01*
X74070Y-25276D01*
X74104Y-25175D01*
X74104Y-28447D01*
X74013Y-28356D01*
X73842Y-28285D01*
X73658Y-28285D01*
X73487Y-28356D01*
X73356Y-28486D01*
X73285Y-28657D01*
X73285Y-28841D01*
X73356Y-29012D01*
X73440Y-29096D01*
X73440Y-29750D01*
X73415Y-29760D01*
X73273Y-29902D01*
X73196Y-30087D01*
X73196Y-30287D01*
X73272Y-30473D01*
X73414Y-30614D01*
X73599Y-30691D01*
X73799Y-30691D01*
X73984Y-30615D01*
X74126Y-30473D01*
X74203Y-30288D01*
X74203Y-30088D01*
X74127Y-29903D01*
X74060Y-29835D01*
X74060Y-29096D01*
X74143Y-29013D01*
X74214Y-28842D01*
X74214Y-28658D01*
X74214Y-32026D01*
X74060Y-31871D01*
X74060Y-31564D01*
X74126Y-31497D01*
X74203Y-31312D01*
X74203Y-31112D01*
X74127Y-30926D01*
X73985Y-30785D01*
X73800Y-30708D01*
X73600Y-30708D01*
X73415Y-30784D01*
X73273Y-30926D01*
X73196Y-31111D01*
X73196Y-31311D01*
X73272Y-31496D01*
X73414Y-31638D01*
X73440Y-31649D01*
X73440Y-32000D01*
X73463Y-32118D01*
X73530Y-32219D01*
X74030Y-32719D01*
X74131Y-32786D01*
X74250Y-32810D01*
X75121Y-32810D01*
X76380Y-34069D01*
X76481Y-34136D01*
X76600Y-34160D01*
X79778Y-34160D01*
X79881Y-34228D01*
X80038Y-34260D01*
X80461Y-34260D01*
X80618Y-34228D01*
X80751Y-34139D01*
X80840Y-34006D01*
X80871Y-33850D01*
X80871Y-34850D01*
X80840Y-34693D01*
X80751Y-34560D01*
X80618Y-34471D01*
X80461Y-34440D01*
X80038Y-34440D01*
X79881Y-34471D01*
X79778Y-34540D01*
X76228Y-34540D01*
X75469Y-33780D01*
X75368Y-33713D01*
X75250Y-33690D01*
X72608Y-33690D01*
X72608Y-24844D01*
X72598Y-24604D01*
X72526Y-24429D01*
X72425Y-24395D01*
X72354Y-24466D01*
X72354Y-24324D01*
X72320Y-24223D01*
X72094Y-24141D01*
X71854Y-24151D01*
X71679Y-24223D01*
X71645Y-24324D01*
X72000Y-24679D01*
X72354Y-24324D01*
X72354Y-24466D01*
X72070Y-24750D01*
X72425Y-25104D01*
X72526Y-25070D01*
X72608Y-24844D01*
X72608Y-33690D01*
X72500Y-33690D01*
X72464Y-33690D01*
X72464Y-28658D01*
X72393Y-28487D01*
X72360Y-28453D01*
X72360Y-27500D01*
X72354Y-27472D01*
X72354Y-25175D01*
X72000Y-24820D01*
X71929Y-24891D01*
X71929Y-24750D01*
X71574Y-24395D01*
X71473Y-24429D01*
X71391Y-24655D01*
X71401Y-24895D01*
X71473Y-25070D01*
X71574Y-25104D01*
X71929Y-24750D01*
X71929Y-24891D01*
X71645Y-25175D01*
X71679Y-25276D01*
X71905Y-25358D01*
X72145Y-25348D01*
X72320Y-25276D01*
X72354Y-25175D01*
X72354Y-27472D01*
X72332Y-27362D01*
X72254Y-27245D01*
X72254Y-27245D01*
X71254Y-26245D01*
X71137Y-26167D01*
X71000Y-26140D01*
X70608Y-26140D01*
X70608Y-24844D01*
X70598Y-24604D01*
X70526Y-24429D01*
X70425Y-24395D01*
X70354Y-24466D01*
X70354Y-24324D01*
X70320Y-24223D01*
X70094Y-24141D01*
X69854Y-24151D01*
X69679Y-24223D01*
X69645Y-24324D01*
X70000Y-24679D01*
X70354Y-24324D01*
X70354Y-24466D01*
X70070Y-24750D01*
X70425Y-25104D01*
X70526Y-25070D01*
X70608Y-24844D01*
X70608Y-26140D01*
X70354Y-26140D01*
X70354Y-25175D01*
X70000Y-24820D01*
X69929Y-24891D01*
X69929Y-24750D01*
X69574Y-24395D01*
X69473Y-24429D01*
X69391Y-24655D01*
X69401Y-24895D01*
X69473Y-25070D01*
X69574Y-25104D01*
X69929Y-24750D01*
X69929Y-24891D01*
X69645Y-25175D01*
X69679Y-25276D01*
X69905Y-25358D01*
X70145Y-25348D01*
X70320Y-25276D01*
X70354Y-25175D01*
X70354Y-26140D01*
X66353Y-26140D01*
X66327Y-26113D01*
X66176Y-26050D01*
X66013Y-26050D01*
X65892Y-26100D01*
X65107Y-26100D01*
X64987Y-26050D01*
X64824Y-26050D01*
X64673Y-26112D01*
X64558Y-26228D01*
X64495Y-26378D01*
X64495Y-26541D01*
X64557Y-26692D01*
X64672Y-26808D01*
X64823Y-26870D01*
X64986Y-26870D01*
X65107Y-26820D01*
X65892Y-26820D01*
X66012Y-26870D01*
X66175Y-26870D01*
X66201Y-26860D01*
X70850Y-26860D01*
X71640Y-27649D01*
X71640Y-28453D01*
X71606Y-28486D01*
X71535Y-28657D01*
X71535Y-28841D01*
X71606Y-29012D01*
X71736Y-29143D01*
X71907Y-29214D01*
X72091Y-29214D01*
X72262Y-29143D01*
X72393Y-29013D01*
X72464Y-28842D01*
X72464Y-28658D01*
X72464Y-33690D01*
X71750Y-33690D01*
X70464Y-33690D01*
X70464Y-28658D01*
X70393Y-28487D01*
X70263Y-28356D01*
X70092Y-28285D01*
X69908Y-28285D01*
X69737Y-28356D01*
X69606Y-28486D01*
X69535Y-28657D01*
X69535Y-28841D01*
X69606Y-29012D01*
X69690Y-29096D01*
X69690Y-29937D01*
X69627Y-30000D01*
X69560Y-30162D01*
X69559Y-30337D01*
X69626Y-30498D01*
X69750Y-30622D01*
X69912Y-30689D01*
X70087Y-30690D01*
X70248Y-30623D01*
X70372Y-30499D01*
X70439Y-30337D01*
X70440Y-30162D01*
X70373Y-30001D01*
X70310Y-29937D01*
X70310Y-29096D01*
X70393Y-29013D01*
X70464Y-28842D01*
X70464Y-28658D01*
X70464Y-33690D01*
X70440Y-33690D01*
X70440Y-31162D01*
X70373Y-31001D01*
X70249Y-30877D01*
X70087Y-30810D01*
X69912Y-30809D01*
X69751Y-30876D01*
X69627Y-31000D01*
X69560Y-31162D01*
X69559Y-31337D01*
X69626Y-31498D01*
X69750Y-31622D01*
X69912Y-31689D01*
X70087Y-31690D01*
X70248Y-31623D01*
X70372Y-31499D01*
X70439Y-31337D01*
X70440Y-31162D01*
X70440Y-33690D01*
X67250Y-33690D01*
X67131Y-33713D01*
X67030Y-33780D01*
X66530Y-34280D01*
X66504Y-34320D01*
X66504Y-28379D01*
X66504Y-27379D01*
X66442Y-27228D01*
X66327Y-27113D01*
X66176Y-27050D01*
X66013Y-27050D01*
X65862Y-27112D01*
X65747Y-27228D01*
X65684Y-27378D01*
X65684Y-27541D01*
X65746Y-27692D01*
X65861Y-27808D01*
X66012Y-27870D01*
X66175Y-27870D01*
X66326Y-27808D01*
X66441Y-27693D01*
X66504Y-27542D01*
X66504Y-27379D01*
X66504Y-28379D01*
X66442Y-28228D01*
X66327Y-28113D01*
X66176Y-28050D01*
X66013Y-28050D01*
X65892Y-28100D01*
X65315Y-28100D01*
X65315Y-27379D01*
X65253Y-27228D01*
X65138Y-27113D01*
X64987Y-27050D01*
X64824Y-27050D01*
X64673Y-27112D01*
X64558Y-27228D01*
X64495Y-27378D01*
X64495Y-27541D01*
X64557Y-27692D01*
X64672Y-27808D01*
X64823Y-27870D01*
X64986Y-27870D01*
X65137Y-27808D01*
X65252Y-27693D01*
X65315Y-27542D01*
X65315Y-27379D01*
X65315Y-28100D01*
X65299Y-28100D01*
X65298Y-28098D01*
X65267Y-28067D01*
X65227Y-28050D01*
X65183Y-28050D01*
X64583Y-28050D01*
X64543Y-28067D01*
X64512Y-28098D01*
X64495Y-28138D01*
X64495Y-28140D01*
X63000Y-28140D01*
X62862Y-28167D01*
X62745Y-28245D01*
X62495Y-28495D01*
X62417Y-28612D01*
X62390Y-28750D01*
X62390Y-33850D01*
X62350Y-33890D01*
X61983Y-33890D01*
X61983Y-33385D01*
X61983Y-33114D01*
X61977Y-33085D01*
X61874Y-32896D01*
X61706Y-32761D01*
X61669Y-32750D01*
X61706Y-32738D01*
X61874Y-32603D01*
X61977Y-32414D01*
X61983Y-32385D01*
X61983Y-32114D01*
X61977Y-32085D01*
X61874Y-31896D01*
X61871Y-31894D01*
X61871Y-31250D01*
X61871Y-29250D01*
X61871Y-28250D01*
X61871Y-27250D01*
X61871Y-26250D01*
X61871Y-25250D01*
X61871Y-24250D01*
X61840Y-24093D01*
X61751Y-23960D01*
X61618Y-23871D01*
X61461Y-23840D01*
X61038Y-23840D01*
X60881Y-23871D01*
X60748Y-23960D01*
X60659Y-24093D01*
X60628Y-24250D01*
X60659Y-24406D01*
X60748Y-24539D01*
X60881Y-24628D01*
X61038Y-24660D01*
X61461Y-24660D01*
X61618Y-24628D01*
X61751Y-24539D01*
X61840Y-24406D01*
X61871Y-24250D01*
X61871Y-25250D01*
X61840Y-25093D01*
X61751Y-24960D01*
X61618Y-24871D01*
X61461Y-24840D01*
X61038Y-24840D01*
X60881Y-24871D01*
X60748Y-24960D01*
X60659Y-25093D01*
X60628Y-25250D01*
X60659Y-25406D01*
X60748Y-25539D01*
X60881Y-25628D01*
X61038Y-25660D01*
X61461Y-25660D01*
X61618Y-25628D01*
X61751Y-25539D01*
X61840Y-25406D01*
X61871Y-25250D01*
X61871Y-26250D01*
X61840Y-26093D01*
X61751Y-25960D01*
X61618Y-25871D01*
X61461Y-25840D01*
X61038Y-25840D01*
X60881Y-25871D01*
X60748Y-25960D01*
X60659Y-26093D01*
X60628Y-26250D01*
X60659Y-26406D01*
X60748Y-26539D01*
X60881Y-26628D01*
X61038Y-26660D01*
X61461Y-26660D01*
X61618Y-26628D01*
X61751Y-26539D01*
X61840Y-26406D01*
X61871Y-26250D01*
X61871Y-27250D01*
X61840Y-27093D01*
X61751Y-26960D01*
X61618Y-26871D01*
X61461Y-26840D01*
X61038Y-26840D01*
X60881Y-26871D01*
X60748Y-26960D01*
X60659Y-27093D01*
X60628Y-27250D01*
X60659Y-27406D01*
X60748Y-27539D01*
X60881Y-27628D01*
X61038Y-27660D01*
X61461Y-27660D01*
X61618Y-27628D01*
X61751Y-27539D01*
X61840Y-27406D01*
X61871Y-27250D01*
X61871Y-28250D01*
X61840Y-28093D01*
X61751Y-27960D01*
X61618Y-27871D01*
X61461Y-27840D01*
X61038Y-27840D01*
X60881Y-27871D01*
X60748Y-27960D01*
X60659Y-28093D01*
X60628Y-28250D01*
X60659Y-28406D01*
X60748Y-28539D01*
X60881Y-28628D01*
X61038Y-28660D01*
X61461Y-28660D01*
X61618Y-28628D01*
X61751Y-28539D01*
X61840Y-28406D01*
X61871Y-28250D01*
X61871Y-29250D01*
X61840Y-29093D01*
X61751Y-28960D01*
X61618Y-28871D01*
X61461Y-28840D01*
X61038Y-28840D01*
X60881Y-28871D01*
X60748Y-28960D01*
X60659Y-29093D01*
X60628Y-29250D01*
X60659Y-29406D01*
X60748Y-29539D01*
X60881Y-29628D01*
X61038Y-29660D01*
X61461Y-29660D01*
X61618Y-29628D01*
X61751Y-29539D01*
X61840Y-29406D01*
X61871Y-29250D01*
X61871Y-31250D01*
X61840Y-31093D01*
X61751Y-30960D01*
X61618Y-30871D01*
X61461Y-30840D01*
X61038Y-30840D01*
X60881Y-30871D01*
X60748Y-30960D01*
X60659Y-31093D01*
X60628Y-31250D01*
X60659Y-31406D01*
X60748Y-31539D01*
X60881Y-31628D01*
X61038Y-31660D01*
X61461Y-31660D01*
X61618Y-31628D01*
X61751Y-31539D01*
X61840Y-31406D01*
X61871Y-31250D01*
X61871Y-31894D01*
X61706Y-31761D01*
X61500Y-31700D01*
X61300Y-31700D01*
X61300Y-32200D01*
X61934Y-32200D01*
X61983Y-32114D01*
X61983Y-32385D01*
X61934Y-32300D01*
X61300Y-32300D01*
X61300Y-32700D01*
X61300Y-32800D01*
X61300Y-33200D01*
X61934Y-33200D01*
X61983Y-33114D01*
X61983Y-33385D01*
X61934Y-33300D01*
X61300Y-33300D01*
X61300Y-33800D01*
X61500Y-33800D01*
X61706Y-33738D01*
X61874Y-33603D01*
X61977Y-33414D01*
X61983Y-33385D01*
X61983Y-33890D01*
X61646Y-33890D01*
X61618Y-33871D01*
X61461Y-33840D01*
X61200Y-33840D01*
X61200Y-33800D01*
X61200Y-33300D01*
X61200Y-33200D01*
X61200Y-32800D01*
X61200Y-32700D01*
X61200Y-32300D01*
X61200Y-32200D01*
X61200Y-31700D01*
X61000Y-31700D01*
X60793Y-31761D01*
X60625Y-31896D01*
X60522Y-32085D01*
X60516Y-32114D01*
X60565Y-32200D01*
X61200Y-32200D01*
X61200Y-32300D01*
X60565Y-32300D01*
X60516Y-32385D01*
X60522Y-32414D01*
X60625Y-32603D01*
X60793Y-32738D01*
X60830Y-32750D01*
X60793Y-32761D01*
X60625Y-32896D01*
X60522Y-33085D01*
X60516Y-33114D01*
X60565Y-33200D01*
X61200Y-33200D01*
X61200Y-33300D01*
X60565Y-33300D01*
X60516Y-33385D01*
X60522Y-33414D01*
X60625Y-33603D01*
X60793Y-33738D01*
X61000Y-33800D01*
X61200Y-33800D01*
X61200Y-33840D01*
X61038Y-33840D01*
X60881Y-33871D01*
X60748Y-33960D01*
X60659Y-34093D01*
X60628Y-34250D01*
X60659Y-34406D01*
X60748Y-34539D01*
X60881Y-34628D01*
X61038Y-34660D01*
X61461Y-34660D01*
X61618Y-34628D01*
X61646Y-34610D01*
X62500Y-34610D01*
X62500Y-34609D01*
X62637Y-34582D01*
X62637Y-34582D01*
X62754Y-34504D01*
X63004Y-34254D01*
X63004Y-34254D01*
X63082Y-34137D01*
X63109Y-34000D01*
X63110Y-34000D01*
X63110Y-28899D01*
X63149Y-28860D01*
X64557Y-28860D01*
X64583Y-28870D01*
X64627Y-28870D01*
X65227Y-28870D01*
X65267Y-28853D01*
X65298Y-28823D01*
X65299Y-28820D01*
X65892Y-28820D01*
X66012Y-28870D01*
X66175Y-28870D01*
X66326Y-28808D01*
X66441Y-28693D01*
X66504Y-28542D01*
X66504Y-28379D01*
X66504Y-34320D01*
X66463Y-34381D01*
X66440Y-34500D01*
X66440Y-38121D01*
X66371Y-38190D01*
X66234Y-38190D01*
X66234Y-37753D01*
X66234Y-37202D01*
X66234Y-36753D01*
X66234Y-36202D01*
X66234Y-35753D01*
X66234Y-35202D01*
X66217Y-35162D01*
X66186Y-35131D01*
X66145Y-35114D01*
X66102Y-35114D01*
X65354Y-35114D01*
X65313Y-35131D01*
X65282Y-35162D01*
X65266Y-35202D01*
X65265Y-35246D01*
X65265Y-35797D01*
X65282Y-35837D01*
X65313Y-35868D01*
X65354Y-35885D01*
X65397Y-35885D01*
X66145Y-35885D01*
X66186Y-35868D01*
X66217Y-35837D01*
X66233Y-35797D01*
X66234Y-35753D01*
X66234Y-36202D01*
X66217Y-36162D01*
X66186Y-36131D01*
X66145Y-36114D01*
X66102Y-36114D01*
X65354Y-36114D01*
X65313Y-36131D01*
X65282Y-36162D01*
X65266Y-36202D01*
X65265Y-36246D01*
X65265Y-36797D01*
X65282Y-36837D01*
X65313Y-36868D01*
X65354Y-36885D01*
X65397Y-36885D01*
X66145Y-36885D01*
X66186Y-36868D01*
X66217Y-36837D01*
X66233Y-36797D01*
X66234Y-36753D01*
X66234Y-37202D01*
X66217Y-37162D01*
X66186Y-37131D01*
X66145Y-37114D01*
X66102Y-37114D01*
X65354Y-37114D01*
X65313Y-37131D01*
X65282Y-37162D01*
X65266Y-37202D01*
X65265Y-37246D01*
X65265Y-37797D01*
X65282Y-37837D01*
X65313Y-37868D01*
X65354Y-37885D01*
X65397Y-37885D01*
X66145Y-37885D01*
X66186Y-37868D01*
X66217Y-37837D01*
X66233Y-37797D01*
X66234Y-37753D01*
X66234Y-38190D01*
X66228Y-38190D01*
X66217Y-38162D01*
X66186Y-38131D01*
X66145Y-38114D01*
X66102Y-38114D01*
X65354Y-38114D01*
X65313Y-38131D01*
X65282Y-38162D01*
X65266Y-38202D01*
X65265Y-38246D01*
X65265Y-38797D01*
X65282Y-38837D01*
X65313Y-38868D01*
X65354Y-38885D01*
X65397Y-38885D01*
X66145Y-38885D01*
X66186Y-38868D01*
X66217Y-38837D01*
X66228Y-38810D01*
X66500Y-38810D01*
X66618Y-38786D01*
X66719Y-38719D01*
X66969Y-38469D01*
X66969Y-38469D01*
X66969Y-38469D01*
X67009Y-38408D01*
X67036Y-38368D01*
X67036Y-38368D01*
X67060Y-38250D01*
X67060Y-34628D01*
X67378Y-34310D01*
X71621Y-34310D01*
X71940Y-34628D01*
X71940Y-38971D01*
X71721Y-39190D01*
X71624Y-39190D01*
X71624Y-36825D01*
X71624Y-36174D01*
X71586Y-36082D01*
X71515Y-36012D01*
X71423Y-35974D01*
X71324Y-35974D01*
X71112Y-35974D01*
X71050Y-36036D01*
X71050Y-36450D01*
X71561Y-36450D01*
X71624Y-36387D01*
X71624Y-36174D01*
X71624Y-36825D01*
X71624Y-36612D01*
X71561Y-36550D01*
X71050Y-36550D01*
X71050Y-36963D01*
X71112Y-37025D01*
X71324Y-37025D01*
X71423Y-37025D01*
X71515Y-36987D01*
X71586Y-36917D01*
X71624Y-36825D01*
X71624Y-39190D01*
X71484Y-39190D01*
X71484Y-39123D01*
X71484Y-38753D01*
X71484Y-38202D01*
X71484Y-37753D01*
X71484Y-37202D01*
X71467Y-37162D01*
X71436Y-37131D01*
X71395Y-37114D01*
X71352Y-37114D01*
X70950Y-37114D01*
X70950Y-36963D01*
X70950Y-36550D01*
X70950Y-36450D01*
X70950Y-36036D01*
X70887Y-35974D01*
X70675Y-35974D01*
X70576Y-35974D01*
X70484Y-36012D01*
X70413Y-36082D01*
X70375Y-36174D01*
X70375Y-36387D01*
X70438Y-36450D01*
X70950Y-36450D01*
X70950Y-36550D01*
X70438Y-36550D01*
X70375Y-36612D01*
X70375Y-36825D01*
X70413Y-36917D01*
X70484Y-36987D01*
X70576Y-37025D01*
X70675Y-37025D01*
X70887Y-37025D01*
X70950Y-36963D01*
X70950Y-37114D01*
X70604Y-37114D01*
X70563Y-37131D01*
X70532Y-37162D01*
X70516Y-37202D01*
X70515Y-37246D01*
X70515Y-37797D01*
X70532Y-37837D01*
X70563Y-37868D01*
X70604Y-37885D01*
X70647Y-37885D01*
X71395Y-37885D01*
X71436Y-37868D01*
X71467Y-37837D01*
X71483Y-37797D01*
X71484Y-37753D01*
X71484Y-38202D01*
X71467Y-38162D01*
X71436Y-38131D01*
X71395Y-38114D01*
X71352Y-38114D01*
X70604Y-38114D01*
X70563Y-38131D01*
X70532Y-38162D01*
X70516Y-38202D01*
X70515Y-38246D01*
X70515Y-38797D01*
X70532Y-38837D01*
X70563Y-38868D01*
X70604Y-38885D01*
X70647Y-38885D01*
X71395Y-38885D01*
X71436Y-38868D01*
X71467Y-38837D01*
X71483Y-38797D01*
X71484Y-38753D01*
X71484Y-39123D01*
X71467Y-39083D01*
X71436Y-39052D01*
X71395Y-39035D01*
X71352Y-39035D01*
X70604Y-39035D01*
X70563Y-39052D01*
X70532Y-39083D01*
X70516Y-39123D01*
X70515Y-39167D01*
X70515Y-39876D01*
X70532Y-39916D01*
X70563Y-39947D01*
X70604Y-39964D01*
X70647Y-39964D01*
X71395Y-39964D01*
X71436Y-39947D01*
X71467Y-39916D01*
X71483Y-39876D01*
X71484Y-39832D01*
X71484Y-39810D01*
X71849Y-39810D01*
X71968Y-39786D01*
X72069Y-39719D01*
X72469Y-39319D01*
X72469Y-39319D01*
X72469Y-39319D01*
X72536Y-39218D01*
X72536Y-39218D01*
X72555Y-39123D01*
X72560Y-39099D01*
X72559Y-39099D01*
X72560Y-39099D01*
X72560Y-34500D01*
X72536Y-34381D01*
X72488Y-34310D01*
X72500Y-34310D01*
X75121Y-34310D01*
X75880Y-35069D01*
X75981Y-35136D01*
X76100Y-35160D01*
X79778Y-35160D01*
X79881Y-35228D01*
X80038Y-35260D01*
X80461Y-35260D01*
X80618Y-35228D01*
X80751Y-35139D01*
X80840Y-35006D01*
X80871Y-34850D01*
X80871Y-35850D01*
X80840Y-35693D01*
X80751Y-35560D01*
X80618Y-35471D01*
X80461Y-35440D01*
X80038Y-35440D01*
X79881Y-35471D01*
X79778Y-35540D01*
X76150Y-35540D01*
X74978Y-35540D01*
X74219Y-34780D01*
X74118Y-34713D01*
X74000Y-34690D01*
X73250Y-34690D01*
X73131Y-34713D01*
X73030Y-34780D01*
X72963Y-34881D01*
X72940Y-35000D01*
X72963Y-35118D01*
X73030Y-35219D01*
X73131Y-35286D01*
X73250Y-35310D01*
X73871Y-35310D01*
X74630Y-36069D01*
X74731Y-36136D01*
X74850Y-36160D01*
X75401Y-36160D01*
X75371Y-36190D01*
X74478Y-36190D01*
X74467Y-36162D01*
X74436Y-36131D01*
X74395Y-36114D01*
X74352Y-36114D01*
X73604Y-36114D01*
X73563Y-36131D01*
X73532Y-36162D01*
X73516Y-36202D01*
X73515Y-36246D01*
X73515Y-36797D01*
X73532Y-36837D01*
X73563Y-36868D01*
X73604Y-36885D01*
X73647Y-36885D01*
X74395Y-36885D01*
X74436Y-36868D01*
X74467Y-36837D01*
X74478Y-36810D01*
X75500Y-36810D01*
X75618Y-36786D01*
X75719Y-36719D01*
X76278Y-36160D01*
X79778Y-36160D01*
X79881Y-36228D01*
X80038Y-36260D01*
X80461Y-36260D01*
X80618Y-36228D01*
X80751Y-36139D01*
X80840Y-36006D01*
X80871Y-35850D01*
X80871Y-36850D01*
X80840Y-36693D01*
X80751Y-36560D01*
X80618Y-36471D01*
X80461Y-36440D01*
X80038Y-36440D01*
X79881Y-36471D01*
X79778Y-36540D01*
X76400Y-36540D01*
X76281Y-36563D01*
X76180Y-36630D01*
X76180Y-36630D01*
X75621Y-37190D01*
X74478Y-37190D01*
X74467Y-37162D01*
X74436Y-37131D01*
X74395Y-37114D01*
X74352Y-37114D01*
X73604Y-37114D01*
X73563Y-37131D01*
X73532Y-37162D01*
X73521Y-37190D01*
X73250Y-37190D01*
X73131Y-37213D01*
X73091Y-37240D01*
X73030Y-37280D01*
X73030Y-37280D01*
X72780Y-37530D01*
X72713Y-37631D01*
X72690Y-37750D01*
X72690Y-39371D01*
X71371Y-40690D01*
X70628Y-40690D01*
X70310Y-40371D01*
X70310Y-36000D01*
X70286Y-35881D01*
X70219Y-35780D01*
X69719Y-35280D01*
X69618Y-35213D01*
X69500Y-35190D01*
X69228Y-35190D01*
X69217Y-35162D01*
X69186Y-35131D01*
X69145Y-35114D01*
X69102Y-35114D01*
X68354Y-35114D01*
X68313Y-35131D01*
X68282Y-35162D01*
X68266Y-35202D01*
X68265Y-35246D01*
X68265Y-35797D01*
X68282Y-35837D01*
X68313Y-35868D01*
X68354Y-35885D01*
X68397Y-35885D01*
X69145Y-35885D01*
X69186Y-35868D01*
X69217Y-35837D01*
X69228Y-35810D01*
X69371Y-35810D01*
X69690Y-36128D01*
X69690Y-40500D01*
X69713Y-40618D01*
X69780Y-40719D01*
X70280Y-41219D01*
X70381Y-41286D01*
X70500Y-41310D01*
X71500Y-41310D01*
X71618Y-41286D01*
X71719Y-41219D01*
X73219Y-39719D01*
X73219Y-39719D01*
X73219Y-39719D01*
X73286Y-39618D01*
X73286Y-39618D01*
X73310Y-39500D01*
X73310Y-37878D01*
X73378Y-37810D01*
X73521Y-37810D01*
X73532Y-37837D01*
X73563Y-37868D01*
X73604Y-37885D01*
X73647Y-37885D01*
X74395Y-37885D01*
X74436Y-37868D01*
X74467Y-37837D01*
X74478Y-37810D01*
X75750Y-37810D01*
X75868Y-37786D01*
X75969Y-37719D01*
X76528Y-37160D01*
X79778Y-37160D01*
X79881Y-37228D01*
X80038Y-37260D01*
X80461Y-37260D01*
X80618Y-37228D01*
X80751Y-37139D01*
X80840Y-37006D01*
X80871Y-36850D01*
X80871Y-37850D01*
X80840Y-37693D01*
X80751Y-37560D01*
X80618Y-37471D01*
X80461Y-37440D01*
X80038Y-37440D01*
X79881Y-37471D01*
X79778Y-37540D01*
X76650Y-37540D01*
X76531Y-37563D01*
X76430Y-37630D01*
X76430Y-37630D01*
X75871Y-38190D01*
X75500Y-38190D01*
X74478Y-38190D01*
X74467Y-38162D01*
X74436Y-38131D01*
X74395Y-38114D01*
X74352Y-38114D01*
X73604Y-38114D01*
X73563Y-38131D01*
X73532Y-38162D01*
X73516Y-38202D01*
X73515Y-38246D01*
X73515Y-38797D01*
X73532Y-38837D01*
X73563Y-38868D01*
X73604Y-38885D01*
X73647Y-38885D01*
X74395Y-38885D01*
X74436Y-38868D01*
X74467Y-38837D01*
X74478Y-38810D01*
X75371Y-38810D01*
X75530Y-38969D01*
X75530Y-38969D01*
X75690Y-39128D01*
X75690Y-41871D01*
X74871Y-42690D01*
X74484Y-42690D01*
X74484Y-39753D01*
X74484Y-39202D01*
X74467Y-39162D01*
X74436Y-39131D01*
X74395Y-39114D01*
X74352Y-39114D01*
X73604Y-39114D01*
X73563Y-39131D01*
X73532Y-39162D01*
X73516Y-39202D01*
X73515Y-39246D01*
X73515Y-39797D01*
X73532Y-39837D01*
X73563Y-39868D01*
X73604Y-39885D01*
X73647Y-39885D01*
X74395Y-39885D01*
X74436Y-39868D01*
X74467Y-39837D01*
X74483Y-39797D01*
X74484Y-39753D01*
X74484Y-42690D01*
X69334Y-42690D01*
X69334Y-41825D01*
X69334Y-41174D01*
X69296Y-41082D01*
X69234Y-41020D01*
X69234Y-40753D01*
X69234Y-40202D01*
X69234Y-39753D01*
X69234Y-39202D01*
X69234Y-38753D01*
X69234Y-38202D01*
X69234Y-37753D01*
X69234Y-37202D01*
X69217Y-37162D01*
X69186Y-37131D01*
X69145Y-37114D01*
X69102Y-37114D01*
X68354Y-37114D01*
X68313Y-37131D01*
X68282Y-37162D01*
X68266Y-37202D01*
X68265Y-37246D01*
X68265Y-37797D01*
X68282Y-37837D01*
X68313Y-37868D01*
X68354Y-37885D01*
X68397Y-37885D01*
X69145Y-37885D01*
X69186Y-37868D01*
X69217Y-37837D01*
X69233Y-37797D01*
X69234Y-37753D01*
X69234Y-38202D01*
X69217Y-38162D01*
X69186Y-38131D01*
X69145Y-38114D01*
X69102Y-38114D01*
X68354Y-38114D01*
X68313Y-38131D01*
X68282Y-38162D01*
X68266Y-38202D01*
X68265Y-38246D01*
X68265Y-38797D01*
X68282Y-38837D01*
X68313Y-38868D01*
X68354Y-38885D01*
X68397Y-38885D01*
X69145Y-38885D01*
X69186Y-38868D01*
X69217Y-38837D01*
X69233Y-38797D01*
X69234Y-38753D01*
X69234Y-39202D01*
X69217Y-39162D01*
X69186Y-39131D01*
X69145Y-39114D01*
X69102Y-39114D01*
X68354Y-39114D01*
X68313Y-39131D01*
X68282Y-39162D01*
X68266Y-39202D01*
X68265Y-39246D01*
X68265Y-39797D01*
X68282Y-39837D01*
X68313Y-39868D01*
X68354Y-39885D01*
X68397Y-39885D01*
X69145Y-39885D01*
X69186Y-39868D01*
X69217Y-39837D01*
X69233Y-39797D01*
X69234Y-39753D01*
X69234Y-40202D01*
X69217Y-40162D01*
X69186Y-40131D01*
X69145Y-40114D01*
X69102Y-40114D01*
X68354Y-40114D01*
X68313Y-40131D01*
X68282Y-40162D01*
X68266Y-40202D01*
X68265Y-40246D01*
X68265Y-40797D01*
X68282Y-40837D01*
X68313Y-40868D01*
X68354Y-40885D01*
X68397Y-40885D01*
X69145Y-40885D01*
X69186Y-40868D01*
X69217Y-40837D01*
X69233Y-40797D01*
X69234Y-40753D01*
X69234Y-41020D01*
X69226Y-41012D01*
X69134Y-40974D01*
X69035Y-40974D01*
X68862Y-40974D01*
X68800Y-41036D01*
X68800Y-41450D01*
X69272Y-41450D01*
X69334Y-41387D01*
X69334Y-41174D01*
X69334Y-41825D01*
X69334Y-41612D01*
X69272Y-41550D01*
X68800Y-41550D01*
X68800Y-41963D01*
X68862Y-42025D01*
X69035Y-42025D01*
X69134Y-42025D01*
X69226Y-41987D01*
X69296Y-41917D01*
X69334Y-41825D01*
X69334Y-42690D01*
X68700Y-42690D01*
X68700Y-41963D01*
X68700Y-41550D01*
X68700Y-41450D01*
X68700Y-41036D01*
X68637Y-40974D01*
X68464Y-40974D01*
X68365Y-40974D01*
X68273Y-41012D01*
X68203Y-41082D01*
X68165Y-41174D01*
X68165Y-41387D01*
X68227Y-41450D01*
X68700Y-41450D01*
X68700Y-41550D01*
X68227Y-41550D01*
X68165Y-41612D01*
X68165Y-41825D01*
X68203Y-41917D01*
X68273Y-41987D01*
X68365Y-42025D01*
X68464Y-42025D01*
X68637Y-42025D01*
X68700Y-41963D01*
X68700Y-42690D01*
X68128Y-42690D01*
X68060Y-42621D01*
X68060Y-36810D01*
X68271Y-36810D01*
X68282Y-36837D01*
X68313Y-36868D01*
X68354Y-36885D01*
X68397Y-36885D01*
X69145Y-36885D01*
X69186Y-36868D01*
X69217Y-36837D01*
X69233Y-36797D01*
X69234Y-36753D01*
X69234Y-36202D01*
X69217Y-36162D01*
X69186Y-36131D01*
X69145Y-36114D01*
X69102Y-36114D01*
X68354Y-36114D01*
X68313Y-36131D01*
X68282Y-36162D01*
X68271Y-36190D01*
X67750Y-36190D01*
X67631Y-36213D01*
X67530Y-36280D01*
X67463Y-36381D01*
X67440Y-36500D01*
X67440Y-42750D01*
X67463Y-42868D01*
X67530Y-42969D01*
X67780Y-43219D01*
X67780Y-43219D01*
X67841Y-43259D01*
X67881Y-43286D01*
X67881Y-43286D01*
X68000Y-43310D01*
X75000Y-43310D01*
X75118Y-43286D01*
X75219Y-43219D01*
X76219Y-42219D01*
X76286Y-42118D01*
X76310Y-42000D01*
X76310Y-39000D01*
X76286Y-38881D01*
X76286Y-38881D01*
X76259Y-38841D01*
X76219Y-38780D01*
X76219Y-38780D01*
X76182Y-38743D01*
X76219Y-38719D01*
X76778Y-38160D01*
X79778Y-38160D01*
X79881Y-38228D01*
X80038Y-38260D01*
X80461Y-38260D01*
X80618Y-38228D01*
X80751Y-38139D01*
X80840Y-38006D01*
X80871Y-37850D01*
X80871Y-38494D01*
X80706Y-38361D01*
X80500Y-38300D01*
X80300Y-38300D01*
X80300Y-38800D01*
X80934Y-38800D01*
X80983Y-38714D01*
X80983Y-38985D01*
X80934Y-38900D01*
X80300Y-38900D01*
X80300Y-39400D01*
X80500Y-39400D01*
X80706Y-39338D01*
X80874Y-39203D01*
X80977Y-39014D01*
X80983Y-38985D01*
X80983Y-49200D01*
X80871Y-49200D01*
X80871Y-39850D01*
X80840Y-39693D01*
X80751Y-39560D01*
X80618Y-39471D01*
X80461Y-39440D01*
X80200Y-39440D01*
X80200Y-39400D01*
X80200Y-38900D01*
X80200Y-38800D01*
X80200Y-38300D01*
X80000Y-38300D01*
X79793Y-38361D01*
X79625Y-38496D01*
X79522Y-38685D01*
X79516Y-38714D01*
X79565Y-38800D01*
X80200Y-38800D01*
X80200Y-38900D01*
X79565Y-38900D01*
X79516Y-38985D01*
X79522Y-39014D01*
X79625Y-39203D01*
X79793Y-39338D01*
X80000Y-39400D01*
X80200Y-39400D01*
X80200Y-39440D01*
X80038Y-39440D01*
X79881Y-39471D01*
X79748Y-39560D01*
X79659Y-39693D01*
X79628Y-39850D01*
X79659Y-40006D01*
X79748Y-40139D01*
X79881Y-40228D01*
X80038Y-40260D01*
X80461Y-40260D01*
X80618Y-40228D01*
X80751Y-40139D01*
X80840Y-40006D01*
X80871Y-39850D01*
X80871Y-49200D01*
X76750Y-49200D01*
X66234Y-49200D01*
X66234Y-41832D01*
X66234Y-41123D01*
X66234Y-40753D01*
X66234Y-40202D01*
X66234Y-39753D01*
X66234Y-39202D01*
X66217Y-39162D01*
X66186Y-39131D01*
X66145Y-39114D01*
X66102Y-39114D01*
X65354Y-39114D01*
X65313Y-39131D01*
X65282Y-39162D01*
X65266Y-39202D01*
X65265Y-39246D01*
X65265Y-39797D01*
X65282Y-39837D01*
X65313Y-39868D01*
X65354Y-39885D01*
X65397Y-39885D01*
X66145Y-39885D01*
X66186Y-39868D01*
X66217Y-39837D01*
X66233Y-39797D01*
X66234Y-39753D01*
X66234Y-40202D01*
X66217Y-40162D01*
X66186Y-40131D01*
X66145Y-40114D01*
X66102Y-40114D01*
X65354Y-40114D01*
X65313Y-40131D01*
X65282Y-40162D01*
X65266Y-40202D01*
X65265Y-40246D01*
X65265Y-40797D01*
X65282Y-40837D01*
X65313Y-40868D01*
X65354Y-40885D01*
X65397Y-40885D01*
X66145Y-40885D01*
X66186Y-40868D01*
X66217Y-40837D01*
X66233Y-40797D01*
X66234Y-40753D01*
X66234Y-41123D01*
X66217Y-41083D01*
X66186Y-41052D01*
X66145Y-41035D01*
X66102Y-41035D01*
X65354Y-41035D01*
X65313Y-41052D01*
X65282Y-41083D01*
X65266Y-41123D01*
X65265Y-41167D01*
X65265Y-41876D01*
X65282Y-41916D01*
X65313Y-41947D01*
X65354Y-41964D01*
X65397Y-41964D01*
X66145Y-41964D01*
X66186Y-41947D01*
X66217Y-41916D01*
X66233Y-41876D01*
X66234Y-41832D01*
X66234Y-49200D01*
X65250Y-49200D01*
X65050Y-49200D01*
X65050Y-44488D01*
X65043Y-44453D01*
X65023Y-44424D01*
X64994Y-44405D01*
X64960Y-44398D01*
X62204Y-44398D01*
X62170Y-44405D01*
X62141Y-44424D01*
X62122Y-44453D01*
X62115Y-44488D01*
X62115Y-49200D01*
X62000Y-49200D01*
X61878Y-49200D01*
X61878Y-41833D01*
X61871Y-41669D01*
X61871Y-36250D01*
X61871Y-35250D01*
X61840Y-35093D01*
X61751Y-34960D01*
X61618Y-34871D01*
X61461Y-34840D01*
X61038Y-34840D01*
X60881Y-34871D01*
X60748Y-34960D01*
X60659Y-35093D01*
X60628Y-35250D01*
X60659Y-35406D01*
X60748Y-35539D01*
X60881Y-35628D01*
X61038Y-35660D01*
X61461Y-35660D01*
X61618Y-35628D01*
X61751Y-35539D01*
X61840Y-35406D01*
X61871Y-35250D01*
X61871Y-36250D01*
X61840Y-36093D01*
X61751Y-35960D01*
X61618Y-35871D01*
X61461Y-35840D01*
X61038Y-35840D01*
X60881Y-35871D01*
X60748Y-35960D01*
X60659Y-36093D01*
X60628Y-36250D01*
X60659Y-36406D01*
X60748Y-36539D01*
X60881Y-36628D01*
X60940Y-36640D01*
X60940Y-37625D01*
X60839Y-37725D01*
X60766Y-37903D01*
X60765Y-38095D01*
X60839Y-38273D01*
X60975Y-38410D01*
X61153Y-38483D01*
X61345Y-38484D01*
X61523Y-38410D01*
X61660Y-38274D01*
X61733Y-38096D01*
X61734Y-37904D01*
X61660Y-37726D01*
X61560Y-37625D01*
X61560Y-36640D01*
X61618Y-36628D01*
X61751Y-36539D01*
X61840Y-36406D01*
X61871Y-36250D01*
X61871Y-41669D01*
X61868Y-41585D01*
X61792Y-41401D01*
X61734Y-41381D01*
X61734Y-40654D01*
X61660Y-40476D01*
X61560Y-40375D01*
X61560Y-39374D01*
X61660Y-39274D01*
X61733Y-39096D01*
X61734Y-38904D01*
X61660Y-38726D01*
X61524Y-38589D01*
X61346Y-38516D01*
X61154Y-38515D01*
X60976Y-38589D01*
X60839Y-38725D01*
X60766Y-38903D01*
X60765Y-39095D01*
X60839Y-39273D01*
X60940Y-39374D01*
X60940Y-40375D01*
X60839Y-40475D01*
X60766Y-40653D01*
X60765Y-40845D01*
X60839Y-41023D01*
X60975Y-41160D01*
X60984Y-41163D01*
X60917Y-41191D01*
X60881Y-41294D01*
X61250Y-41663D01*
X61618Y-41294D01*
X61582Y-41191D01*
X61511Y-41165D01*
X61523Y-41160D01*
X61660Y-41024D01*
X61733Y-40846D01*
X61734Y-40654D01*
X61734Y-41381D01*
X61689Y-41365D01*
X61320Y-41734D01*
X61689Y-42103D01*
X61792Y-42066D01*
X61878Y-41833D01*
X61878Y-49200D01*
X61618Y-49200D01*
X61618Y-42173D01*
X61250Y-41804D01*
X61179Y-41875D01*
X61179Y-41734D01*
X60810Y-41365D01*
X60707Y-41401D01*
X60621Y-41634D01*
X60631Y-41882D01*
X60707Y-42066D01*
X60810Y-42103D01*
X61179Y-41734D01*
X61179Y-41875D01*
X60881Y-42173D01*
X60917Y-42276D01*
X61150Y-42362D01*
X61398Y-42352D01*
X61582Y-42276D01*
X61618Y-42173D01*
X61618Y-49200D01*
X60300Y-49200D01*
X60300Y-23300D01*
X61270Y-23300D01*
X62270Y-22300D01*
X75229Y-22300D01*
X76229Y-23300D01*
X80729Y-23300D01*
X81200Y-23770D01*
X81200Y-43500D01*
X81200Y-49200D01*
M02*
