G04 (created by PCBNEW (2013-jul-07)-stable) date Wed 25 Feb 2015 17:07:09 CET*
%MOIN*%
G04 Gerber Fmt 3.4, Leading zero omitted, Abs format*
%FSLAX34Y34*%
G01*
G70*
G90*
G04 APERTURE LIST*
%ADD10C,0.00590551*%
%ADD11O,0.1X0.06*%
%ADD12R,0.06X0.06*%
%ADD13C,0.06*%
%ADD14C,0.066*%
%ADD15R,0.0748031X0.0708661*%
%ADD16R,0.0748031X0.0551181*%
%ADD17R,0.0669291X0.0551181*%
%ADD18C,0.0748031*%
%ADD19C,0.0708661*%
%ADD20C,0.0787402*%
%ADD21C,0.035*%
%ADD22C,0.04*%
%ADD23C,0.05*%
G04 APERTURE END LIST*
G54D10*
G54D11*
X61250Y-24250D03*
X61250Y-25250D03*
X61250Y-26250D03*
X61250Y-29250D03*
X61250Y-28250D03*
X61250Y-27250D03*
X61250Y-31250D03*
X61250Y-32250D03*
X61250Y-33250D03*
X61250Y-35250D03*
X61250Y-36250D03*
X80250Y-24250D03*
X80250Y-25250D03*
X80250Y-26250D03*
X80250Y-27250D03*
X80250Y-28250D03*
X80250Y-29250D03*
X80250Y-30250D03*
X80250Y-31250D03*
X80250Y-32850D03*
X80250Y-33850D03*
X80250Y-34850D03*
X80250Y-35850D03*
X80250Y-36850D03*
X80250Y-37850D03*
X80250Y-38850D03*
X80250Y-39850D03*
X61250Y-34250D03*
G54D12*
X64905Y-28460D03*
G54D13*
X64905Y-27460D03*
X64905Y-26460D03*
X66094Y-26460D03*
X66094Y-27460D03*
X66094Y-28460D03*
G54D14*
X70000Y-31250D03*
X70000Y-30250D03*
G54D15*
X65750Y-41500D03*
G54D16*
X65750Y-40500D03*
X65750Y-39500D03*
X65750Y-38500D03*
X65750Y-37500D03*
X65750Y-36500D03*
X65750Y-35500D03*
X68750Y-35500D03*
X68750Y-36500D03*
X68750Y-37500D03*
X68750Y-38500D03*
X68750Y-39500D03*
X68750Y-40500D03*
G54D17*
X68750Y-41500D03*
G54D18*
X61250Y-40750D03*
X61250Y-41734D03*
X61250Y-39000D03*
X61250Y-38000D03*
G54D15*
X71000Y-39500D03*
G54D16*
X71000Y-38500D03*
X71000Y-37500D03*
X71000Y-36500D03*
X74000Y-36500D03*
X74000Y-37500D03*
X74000Y-38500D03*
X74000Y-39500D03*
G54D19*
X77750Y-24750D03*
X77750Y-28750D03*
X75750Y-24750D03*
X75750Y-28750D03*
X73750Y-24750D03*
X73750Y-28750D03*
G54D20*
X77750Y-31261D03*
X77750Y-30238D03*
X75750Y-31261D03*
X75750Y-30238D03*
X73700Y-31211D03*
X73700Y-30188D03*
G54D19*
X72000Y-28750D03*
X72000Y-24750D03*
X70000Y-24750D03*
X70000Y-28750D03*
G54D21*
X73250Y-35000D03*
G54D22*
X65750Y-35500D02*
X67000Y-35500D01*
X70750Y-35000D02*
X73250Y-35000D01*
X70500Y-34750D02*
X70750Y-35000D01*
X67750Y-34750D02*
X70500Y-34750D01*
X67000Y-35500D02*
X67750Y-34750D01*
G54D23*
X74000Y-39500D02*
X76000Y-39500D01*
X67000Y-41500D02*
X65750Y-41500D01*
X69250Y-43750D02*
X67000Y-41500D01*
X75500Y-43750D02*
X69250Y-43750D01*
X77000Y-42250D02*
X75500Y-43750D01*
X77000Y-40500D02*
X77000Y-42250D01*
X76000Y-39500D02*
X77000Y-40500D01*
X70000Y-31250D02*
X65750Y-31250D01*
X66000Y-31250D02*
X66000Y-31000D01*
X65750Y-31250D02*
X66000Y-31250D01*
X66094Y-27460D02*
X64905Y-27460D01*
X65750Y-41500D02*
X64750Y-41500D01*
X66710Y-27460D02*
X66094Y-27460D01*
X67000Y-27750D02*
X66710Y-27460D01*
X67000Y-30000D02*
X67000Y-27750D01*
X63500Y-33500D02*
X66000Y-31000D01*
X66000Y-31000D02*
X67000Y-30000D01*
X63500Y-40250D02*
X63500Y-33500D01*
X64750Y-41500D02*
X63500Y-40250D01*
M02*
