G04 (created by PCBNEW (2013-jul-07)-stable) date Mon 16 Feb 2015 12:54:56 CET*
%MOIN*%
G04 Gerber Fmt 3.4, Leading zero omitted, Abs format*
%FSLAX34Y34*%
G01*
G70*
G90*
G04 APERTURE LIST*
%ADD10C,0.00590551*%
%ADD11C,0.0001*%
%ADD12C,0.0748031*%
%ADD13R,0.0748031X0.0708661*%
%ADD14R,0.0748031X0.0551181*%
%ADD15R,0.0669291X0.0551181*%
%ADD16C,0.0708661*%
%ADD17O,0.1X0.06*%
%ADD18C,0.0787402*%
%ADD19C,0.04*%
%ADD20C,0.05*%
%ADD21C,0.01*%
G04 APERTURE END LIST*
G54D10*
G54D11*
G36*
X63036Y-24567D02*
X63268Y-24569D01*
X63555Y-24573D01*
X63849Y-24577D01*
X64206Y-24582D01*
X64502Y-24587D01*
X64743Y-24593D01*
X64934Y-24602D01*
X65082Y-24614D01*
X65192Y-24631D01*
X65269Y-24654D01*
X65320Y-24685D01*
X65351Y-24726D01*
X65366Y-24776D01*
X65372Y-24839D01*
X65374Y-24915D01*
X65375Y-24937D01*
X65374Y-25058D01*
X65363Y-25158D01*
X65348Y-25209D01*
X65291Y-25275D01*
X65206Y-25321D01*
X65081Y-25350D01*
X64908Y-25364D01*
X64752Y-25367D01*
X64604Y-25369D01*
X64485Y-25375D01*
X64407Y-25383D01*
X64384Y-25392D01*
X64393Y-25436D01*
X64416Y-25521D01*
X64429Y-25566D01*
X63307Y-25566D01*
X63132Y-25582D01*
X62974Y-25629D01*
X62847Y-25708D01*
X62816Y-25741D01*
X62759Y-25856D01*
X62756Y-25984D01*
X62803Y-26107D01*
X62893Y-26209D01*
X62973Y-26255D01*
X63092Y-26285D01*
X63248Y-26299D01*
X63415Y-26296D01*
X63567Y-26277D01*
X63671Y-26246D01*
X63784Y-26172D01*
X63871Y-26079D01*
X63914Y-25985D01*
X63917Y-25961D01*
X63902Y-25887D01*
X63866Y-25798D01*
X63865Y-25796D01*
X63778Y-25696D01*
X63646Y-25623D01*
X63484Y-25580D01*
X63307Y-25566D01*
X64429Y-25566D01*
X64434Y-25580D01*
X64475Y-25792D01*
X64482Y-26028D01*
X64457Y-26258D01*
X64413Y-26420D01*
X64317Y-26610D01*
X64186Y-26778D01*
X64036Y-26903D01*
X63989Y-26931D01*
X63873Y-26990D01*
X64022Y-27092D01*
X64186Y-27238D01*
X64319Y-27432D01*
X64403Y-27617D01*
X64410Y-27647D01*
X63222Y-27647D01*
X63053Y-27681D01*
X62915Y-27747D01*
X62815Y-27837D01*
X62759Y-27946D01*
X62753Y-28066D01*
X62806Y-28191D01*
X62836Y-28230D01*
X62957Y-28326D01*
X63115Y-28384D01*
X63294Y-28404D01*
X63477Y-28388D01*
X63646Y-28335D01*
X63784Y-28245D01*
X63814Y-28215D01*
X63894Y-28097D01*
X63911Y-27989D01*
X63867Y-27881D01*
X63847Y-27854D01*
X63745Y-27756D01*
X63612Y-27691D01*
X63431Y-27653D01*
X63415Y-27651D01*
X63222Y-27647D01*
X64410Y-27647D01*
X64449Y-27796D01*
X64467Y-28005D01*
X64459Y-28220D01*
X64424Y-28414D01*
X64390Y-28512D01*
X64349Y-28610D01*
X64337Y-28671D01*
X64350Y-28718D01*
X64367Y-28744D01*
X64406Y-28844D01*
X64419Y-28977D01*
X64408Y-29117D01*
X64373Y-29236D01*
X64348Y-29279D01*
X64279Y-29367D01*
X62851Y-29367D01*
X61423Y-29367D01*
X61336Y-29264D01*
X61269Y-29139D01*
X61245Y-28989D01*
X61263Y-28841D01*
X61325Y-28716D01*
X61331Y-28710D01*
X61366Y-28672D01*
X61402Y-28646D01*
X61452Y-28629D01*
X61528Y-28618D01*
X61644Y-28612D01*
X61812Y-28607D01*
X61845Y-28606D01*
X62279Y-28595D01*
X62226Y-28456D01*
X62193Y-28324D01*
X62174Y-28138D01*
X62170Y-28000D01*
X62171Y-27840D01*
X62180Y-27725D01*
X62200Y-27632D01*
X62236Y-27540D01*
X62254Y-27500D01*
X62373Y-27304D01*
X62520Y-27143D01*
X62664Y-27043D01*
X62730Y-27006D01*
X62741Y-26982D01*
X62704Y-26956D01*
X62700Y-26954D01*
X62578Y-26864D01*
X62451Y-26736D01*
X62336Y-26590D01*
X62251Y-26448D01*
X62230Y-26397D01*
X62188Y-26219D01*
X62168Y-26011D01*
X62169Y-25797D01*
X62192Y-25598D01*
X62237Y-25437D01*
X62243Y-25422D01*
X62284Y-25324D01*
X62297Y-25263D01*
X62283Y-25216D01*
X62266Y-25189D01*
X62235Y-25105D01*
X62219Y-24985D01*
X62221Y-24859D01*
X62241Y-24755D01*
X62251Y-24732D01*
X62304Y-24673D01*
X62385Y-24616D01*
X62393Y-24612D01*
X62425Y-24598D01*
X62466Y-24587D01*
X62523Y-24578D01*
X62602Y-24572D01*
X62709Y-24568D01*
X62852Y-24567D01*
X63036Y-24567D01*
X63036Y-24567D01*
X63036Y-24567D01*
G37*
G54D12*
X68000Y-34750D03*
X69250Y-41500D03*
X69250Y-44250D03*
X67750Y-44250D03*
G54D13*
X60500Y-41250D03*
G54D14*
X60500Y-40250D03*
X60500Y-39250D03*
X60500Y-38250D03*
X60500Y-37250D03*
X60500Y-36250D03*
X60500Y-35250D03*
X63500Y-35250D03*
X63500Y-36250D03*
X63500Y-37250D03*
X63500Y-38250D03*
X63500Y-39250D03*
X63500Y-40250D03*
G54D15*
X63500Y-41250D03*
G54D16*
X65750Y-35000D03*
G54D12*
X65750Y-31750D03*
X56000Y-40500D03*
X56000Y-41484D03*
X56000Y-38750D03*
X56000Y-37750D03*
G54D13*
X65750Y-39250D03*
G54D14*
X65750Y-38250D03*
X65750Y-37250D03*
X65750Y-36250D03*
X68750Y-36250D03*
X68750Y-37250D03*
X68750Y-38250D03*
X68750Y-39250D03*
G54D17*
X56000Y-24000D03*
X56000Y-25000D03*
X56000Y-26000D03*
X56000Y-29000D03*
X56000Y-28000D03*
X56000Y-27000D03*
X56000Y-31000D03*
X56000Y-32000D03*
X56000Y-33000D03*
X56000Y-35000D03*
X56000Y-36000D03*
X75000Y-24000D03*
X75000Y-25000D03*
X75000Y-26000D03*
X75000Y-27000D03*
X75000Y-28000D03*
X75000Y-29000D03*
X75000Y-30000D03*
X75000Y-31000D03*
X75000Y-32600D03*
X75000Y-33600D03*
X75000Y-34600D03*
X75000Y-35600D03*
X75000Y-36600D03*
X75000Y-37600D03*
X75000Y-38600D03*
X75000Y-39600D03*
X56000Y-34000D03*
G54D18*
X72500Y-31011D03*
X72500Y-29988D03*
X70500Y-31011D03*
X70500Y-29988D03*
X68500Y-31011D03*
X68500Y-29988D03*
G54D16*
X72500Y-24500D03*
X72500Y-28500D03*
X70500Y-24500D03*
X70500Y-28500D03*
X68500Y-24500D03*
X68500Y-28500D03*
G54D12*
X67750Y-41500D03*
X68000Y-32750D03*
G54D19*
X75000Y-32600D02*
X71350Y-32600D01*
X70500Y-31750D02*
X70500Y-31011D01*
X71350Y-32600D02*
X70500Y-31750D01*
X68750Y-38250D02*
X70250Y-38250D01*
X70250Y-38250D02*
X70500Y-38500D01*
X70500Y-38500D02*
X70750Y-38500D01*
X70750Y-38500D02*
X70500Y-38500D01*
X63500Y-36250D02*
X62500Y-36250D01*
X62500Y-36250D02*
X62500Y-42500D01*
X62500Y-42500D02*
X62750Y-42750D01*
X62750Y-42750D02*
X69750Y-42750D01*
X69750Y-42750D02*
X70750Y-41750D01*
X70750Y-41750D02*
X70750Y-38750D01*
X70750Y-38750D02*
X70500Y-38500D01*
X70500Y-38500D02*
X70500Y-38500D01*
X75000Y-37600D02*
X71400Y-37600D01*
X70750Y-38250D02*
X68750Y-38250D01*
X71400Y-37600D02*
X70750Y-38250D01*
X68000Y-32750D02*
X60250Y-32750D01*
X59750Y-35250D02*
X60500Y-35250D01*
X59250Y-34750D02*
X59750Y-35250D01*
X59250Y-33750D02*
X59250Y-34750D01*
X60250Y-32750D02*
X59250Y-33750D01*
X68000Y-34750D02*
X68750Y-34750D01*
X68750Y-34750D02*
X69600Y-35600D01*
X75000Y-35600D02*
X69600Y-35600D01*
X69600Y-35600D02*
X69400Y-35600D01*
X69400Y-35600D02*
X68750Y-36250D01*
X65750Y-39250D02*
X66599Y-39250D01*
X67000Y-34250D02*
X66500Y-33750D01*
X67000Y-38849D02*
X67000Y-34250D01*
X66599Y-39250D02*
X67000Y-38849D01*
X75000Y-34600D02*
X70850Y-34600D01*
X70000Y-33750D02*
X67250Y-33750D01*
X70850Y-34600D02*
X70000Y-33750D01*
X60500Y-38250D02*
X61500Y-38250D01*
X62750Y-33750D02*
X66500Y-33750D01*
X66500Y-33750D02*
X67250Y-33750D01*
X61750Y-34750D02*
X62750Y-33750D01*
X61750Y-38000D02*
X61750Y-34750D01*
X61500Y-38250D02*
X61750Y-38000D01*
X75000Y-31000D02*
X72511Y-31000D01*
X72511Y-31000D02*
X72500Y-31011D01*
X63500Y-35250D02*
X64250Y-35250D01*
X68000Y-37250D02*
X68750Y-37250D01*
X67750Y-37500D02*
X68000Y-37250D01*
X67750Y-39250D02*
X67750Y-37500D01*
X66250Y-40750D02*
X67750Y-39250D01*
X65250Y-40750D02*
X66250Y-40750D01*
X64750Y-40250D02*
X65250Y-40750D01*
X64750Y-35750D02*
X64750Y-40250D01*
X64250Y-35250D02*
X64750Y-35750D01*
X75000Y-36600D02*
X71150Y-36600D01*
X70500Y-37250D02*
X68750Y-37250D01*
X71150Y-36600D02*
X70500Y-37250D01*
X72500Y-29988D02*
X72500Y-28500D01*
X70500Y-29988D02*
X70500Y-28500D01*
X68500Y-29988D02*
X68500Y-28500D01*
X56000Y-38750D02*
X56000Y-40500D01*
X56000Y-36000D02*
X56000Y-37750D01*
X68500Y-31011D02*
X68500Y-31750D01*
X71350Y-33600D02*
X75000Y-33600D01*
X70000Y-32250D02*
X71350Y-33600D01*
X69000Y-32250D02*
X70000Y-32250D01*
X68500Y-31750D02*
X69000Y-32250D01*
G54D20*
X69250Y-44250D02*
X69250Y-45500D01*
X60500Y-44750D02*
X60500Y-41250D01*
X61750Y-46000D02*
X60500Y-44750D01*
X68750Y-46000D02*
X61750Y-46000D01*
X69250Y-45500D02*
X68750Y-46000D01*
X68750Y-39250D02*
X69250Y-39250D01*
X69250Y-40750D02*
X69250Y-41500D01*
X70000Y-40000D02*
X69250Y-40750D01*
X70000Y-39500D02*
X70000Y-40000D01*
X69750Y-39250D02*
X70000Y-39500D01*
X69250Y-39250D02*
X69750Y-39250D01*
X56000Y-34000D02*
X57500Y-34000D01*
X59500Y-41250D02*
X60500Y-41250D01*
X58750Y-40500D02*
X59500Y-41250D01*
X58750Y-35250D02*
X58750Y-40500D01*
X57500Y-34000D02*
X58750Y-35250D01*
G54D10*
G36*
X64150Y-35857D02*
X64250Y-35957D01*
X64250Y-40250D01*
X64288Y-40441D01*
X64396Y-40603D01*
X64396Y-40603D01*
X64896Y-41103D01*
X65058Y-41211D01*
X65250Y-41250D01*
X65250Y-41250D01*
X66249Y-41250D01*
X66250Y-41250D01*
X66441Y-41211D01*
X66603Y-41103D01*
X68089Y-39617D01*
X68121Y-39695D01*
X68205Y-39779D01*
X68316Y-39825D01*
X68435Y-39825D01*
X69183Y-39825D01*
X69245Y-39800D01*
X69250Y-39800D01*
X69422Y-39800D01*
X68861Y-40361D01*
X68741Y-40539D01*
X68700Y-40750D01*
X68700Y-40871D01*
X67849Y-40871D01*
X67601Y-40881D01*
X67417Y-40957D01*
X67381Y-41060D01*
X67451Y-41131D01*
X67310Y-41131D01*
X67207Y-41167D01*
X67158Y-41300D01*
X64022Y-41300D01*
X63550Y-41300D01*
X63550Y-41713D01*
X63612Y-41775D01*
X63785Y-41775D01*
X63884Y-41775D01*
X63976Y-41737D01*
X64046Y-41667D01*
X64084Y-41575D01*
X64084Y-41362D01*
X64022Y-41300D01*
X67158Y-41300D01*
X67121Y-41400D01*
X67131Y-41648D01*
X67207Y-41832D01*
X67310Y-41868D01*
X67679Y-41500D01*
X67310Y-41131D01*
X67451Y-41131D01*
X67750Y-41429D01*
X68118Y-41060D01*
X68082Y-40957D01*
X67849Y-40871D01*
X68700Y-40871D01*
X68700Y-41096D01*
X68678Y-41117D01*
X68673Y-41131D01*
X68189Y-41131D01*
X67820Y-41500D01*
X67891Y-41570D01*
X67750Y-41570D01*
X67381Y-41939D01*
X67417Y-42042D01*
X67650Y-42128D01*
X67898Y-42118D01*
X68082Y-42042D01*
X68118Y-41939D01*
X67750Y-41570D01*
X67891Y-41570D01*
X68189Y-41868D01*
X68292Y-41832D01*
X68378Y-41599D01*
X68368Y-41351D01*
X68292Y-41167D01*
X68189Y-41131D01*
X68673Y-41131D01*
X68576Y-41365D01*
X68575Y-41633D01*
X68678Y-41881D01*
X68867Y-42071D01*
X69115Y-42173D01*
X69383Y-42174D01*
X69631Y-42071D01*
X69821Y-41882D01*
X69923Y-41634D01*
X69924Y-41366D01*
X69821Y-41118D01*
X69800Y-41096D01*
X69800Y-40977D01*
X70250Y-40527D01*
X70250Y-41542D01*
X69542Y-42250D01*
X63000Y-42250D01*
X63000Y-41713D01*
X63023Y-41737D01*
X63115Y-41775D01*
X63214Y-41775D01*
X63387Y-41775D01*
X63450Y-41713D01*
X63450Y-41300D01*
X63442Y-41300D01*
X63442Y-41200D01*
X63450Y-41200D01*
X63450Y-41192D01*
X63550Y-41192D01*
X63550Y-41200D01*
X64022Y-41200D01*
X64084Y-41137D01*
X64084Y-40924D01*
X64046Y-40832D01*
X64008Y-40794D01*
X64043Y-40780D01*
X64128Y-40695D01*
X64173Y-40585D01*
X64174Y-40466D01*
X64174Y-39914D01*
X64128Y-39804D01*
X64073Y-39749D01*
X64128Y-39695D01*
X64173Y-39585D01*
X64174Y-39466D01*
X64174Y-38914D01*
X64128Y-38804D01*
X64073Y-38749D01*
X64128Y-38695D01*
X64173Y-38585D01*
X64174Y-38466D01*
X64174Y-37914D01*
X64128Y-37804D01*
X64073Y-37749D01*
X64128Y-37695D01*
X64173Y-37585D01*
X64174Y-37466D01*
X64174Y-36914D01*
X64128Y-36804D01*
X64073Y-36749D01*
X64128Y-36695D01*
X64173Y-36585D01*
X64174Y-36466D01*
X64174Y-35914D01*
X64150Y-35857D01*
X64150Y-35857D01*
G37*
G54D21*
X64150Y-35857D02*
X64250Y-35957D01*
X64250Y-40250D01*
X64288Y-40441D01*
X64396Y-40603D01*
X64396Y-40603D01*
X64896Y-41103D01*
X65058Y-41211D01*
X65250Y-41250D01*
X65250Y-41250D01*
X66249Y-41250D01*
X66250Y-41250D01*
X66441Y-41211D01*
X66603Y-41103D01*
X68089Y-39617D01*
X68121Y-39695D01*
X68205Y-39779D01*
X68316Y-39825D01*
X68435Y-39825D01*
X69183Y-39825D01*
X69245Y-39800D01*
X69250Y-39800D01*
X69422Y-39800D01*
X68861Y-40361D01*
X68741Y-40539D01*
X68700Y-40750D01*
X68700Y-40871D01*
X67849Y-40871D01*
X67601Y-40881D01*
X67417Y-40957D01*
X67381Y-41060D01*
X67451Y-41131D01*
X67310Y-41131D01*
X67207Y-41167D01*
X67158Y-41300D01*
X64022Y-41300D01*
X63550Y-41300D01*
X63550Y-41713D01*
X63612Y-41775D01*
X63785Y-41775D01*
X63884Y-41775D01*
X63976Y-41737D01*
X64046Y-41667D01*
X64084Y-41575D01*
X64084Y-41362D01*
X64022Y-41300D01*
X67158Y-41300D01*
X67121Y-41400D01*
X67131Y-41648D01*
X67207Y-41832D01*
X67310Y-41868D01*
X67679Y-41500D01*
X67310Y-41131D01*
X67451Y-41131D01*
X67750Y-41429D01*
X68118Y-41060D01*
X68082Y-40957D01*
X67849Y-40871D01*
X68700Y-40871D01*
X68700Y-41096D01*
X68678Y-41117D01*
X68673Y-41131D01*
X68189Y-41131D01*
X67820Y-41500D01*
X67891Y-41570D01*
X67750Y-41570D01*
X67381Y-41939D01*
X67417Y-42042D01*
X67650Y-42128D01*
X67898Y-42118D01*
X68082Y-42042D01*
X68118Y-41939D01*
X67750Y-41570D01*
X67891Y-41570D01*
X68189Y-41868D01*
X68292Y-41832D01*
X68378Y-41599D01*
X68368Y-41351D01*
X68292Y-41167D01*
X68189Y-41131D01*
X68673Y-41131D01*
X68576Y-41365D01*
X68575Y-41633D01*
X68678Y-41881D01*
X68867Y-42071D01*
X69115Y-42173D01*
X69383Y-42174D01*
X69631Y-42071D01*
X69821Y-41882D01*
X69923Y-41634D01*
X69924Y-41366D01*
X69821Y-41118D01*
X69800Y-41096D01*
X69800Y-40977D01*
X70250Y-40527D01*
X70250Y-41542D01*
X69542Y-42250D01*
X63000Y-42250D01*
X63000Y-41713D01*
X63023Y-41737D01*
X63115Y-41775D01*
X63214Y-41775D01*
X63387Y-41775D01*
X63450Y-41713D01*
X63450Y-41300D01*
X63442Y-41300D01*
X63442Y-41200D01*
X63450Y-41200D01*
X63450Y-41192D01*
X63550Y-41192D01*
X63550Y-41200D01*
X64022Y-41200D01*
X64084Y-41137D01*
X64084Y-40924D01*
X64046Y-40832D01*
X64008Y-40794D01*
X64043Y-40780D01*
X64128Y-40695D01*
X64173Y-40585D01*
X64174Y-40466D01*
X64174Y-39914D01*
X64128Y-39804D01*
X64073Y-39749D01*
X64128Y-39695D01*
X64173Y-39585D01*
X64174Y-39466D01*
X64174Y-38914D01*
X64128Y-38804D01*
X64073Y-38749D01*
X64128Y-38695D01*
X64173Y-38585D01*
X64174Y-38466D01*
X64174Y-37914D01*
X64128Y-37804D01*
X64073Y-37749D01*
X64128Y-37695D01*
X64173Y-37585D01*
X64174Y-37466D01*
X64174Y-36914D01*
X64128Y-36804D01*
X64073Y-36749D01*
X64128Y-36695D01*
X64173Y-36585D01*
X64174Y-36466D01*
X64174Y-35914D01*
X64150Y-35857D01*
G54D10*
G36*
X66292Y-34250D02*
X66434Y-34391D01*
X65844Y-34391D01*
X65604Y-34401D01*
X65429Y-34473D01*
X65395Y-34574D01*
X65466Y-34645D01*
X65324Y-34645D01*
X65223Y-34679D01*
X65141Y-34905D01*
X65151Y-35145D01*
X65223Y-35320D01*
X65324Y-35354D01*
X65679Y-35000D01*
X65324Y-34645D01*
X65466Y-34645D01*
X65750Y-34929D01*
X66104Y-34574D01*
X66070Y-34473D01*
X65844Y-34391D01*
X66434Y-34391D01*
X66500Y-34457D01*
X66500Y-34645D01*
X66175Y-34645D01*
X65820Y-35000D01*
X65891Y-35070D01*
X65750Y-35070D01*
X65395Y-35425D01*
X65429Y-35526D01*
X65655Y-35608D01*
X65895Y-35598D01*
X66070Y-35526D01*
X66104Y-35425D01*
X65750Y-35070D01*
X65891Y-35070D01*
X66175Y-35354D01*
X66276Y-35320D01*
X66358Y-35094D01*
X66348Y-34854D01*
X66276Y-34679D01*
X66175Y-34645D01*
X66500Y-34645D01*
X66500Y-35724D01*
X66074Y-35724D01*
X65862Y-35724D01*
X65800Y-35786D01*
X65800Y-36200D01*
X66311Y-36200D01*
X66374Y-36137D01*
X66374Y-35924D01*
X66336Y-35832D01*
X66265Y-35762D01*
X66173Y-35724D01*
X66074Y-35724D01*
X66500Y-35724D01*
X66500Y-38642D01*
X66392Y-38750D01*
X66388Y-38750D01*
X66378Y-38725D01*
X66363Y-38710D01*
X66378Y-38695D01*
X66423Y-38585D01*
X66424Y-38466D01*
X66424Y-37914D01*
X66378Y-37804D01*
X66323Y-37749D01*
X66378Y-37695D01*
X66423Y-37585D01*
X66424Y-37466D01*
X66424Y-36914D01*
X66378Y-36804D01*
X66294Y-36720D01*
X66286Y-36716D01*
X66336Y-36667D01*
X66374Y-36575D01*
X66374Y-36362D01*
X66311Y-36300D01*
X65800Y-36300D01*
X65800Y-36307D01*
X65700Y-36307D01*
X65700Y-36300D01*
X65692Y-36300D01*
X65692Y-36200D01*
X65700Y-36200D01*
X65700Y-35786D01*
X65637Y-35724D01*
X65425Y-35724D01*
X65326Y-35724D01*
X65250Y-35756D01*
X65250Y-35750D01*
X65250Y-35750D01*
X65250Y-35750D01*
X65211Y-35558D01*
X65103Y-35396D01*
X64603Y-34896D01*
X64603Y-34896D01*
X64603Y-34896D01*
X64441Y-34788D01*
X64250Y-34750D01*
X64073Y-34750D01*
X64044Y-34720D01*
X63933Y-34674D01*
X63814Y-34674D01*
X63066Y-34674D01*
X62956Y-34719D01*
X62871Y-34804D01*
X62826Y-34914D01*
X62825Y-35033D01*
X62825Y-35585D01*
X62871Y-35695D01*
X62926Y-35750D01*
X62500Y-35750D01*
X62308Y-35788D01*
X62250Y-35827D01*
X62250Y-34957D01*
X62957Y-34250D01*
X66292Y-34250D01*
X66292Y-34250D01*
G37*
G54D21*
X66292Y-34250D02*
X66434Y-34391D01*
X65844Y-34391D01*
X65604Y-34401D01*
X65429Y-34473D01*
X65395Y-34574D01*
X65466Y-34645D01*
X65324Y-34645D01*
X65223Y-34679D01*
X65141Y-34905D01*
X65151Y-35145D01*
X65223Y-35320D01*
X65324Y-35354D01*
X65679Y-35000D01*
X65324Y-34645D01*
X65466Y-34645D01*
X65750Y-34929D01*
X66104Y-34574D01*
X66070Y-34473D01*
X65844Y-34391D01*
X66434Y-34391D01*
X66500Y-34457D01*
X66500Y-34645D01*
X66175Y-34645D01*
X65820Y-35000D01*
X65891Y-35070D01*
X65750Y-35070D01*
X65395Y-35425D01*
X65429Y-35526D01*
X65655Y-35608D01*
X65895Y-35598D01*
X66070Y-35526D01*
X66104Y-35425D01*
X65750Y-35070D01*
X65891Y-35070D01*
X66175Y-35354D01*
X66276Y-35320D01*
X66358Y-35094D01*
X66348Y-34854D01*
X66276Y-34679D01*
X66175Y-34645D01*
X66500Y-34645D01*
X66500Y-35724D01*
X66074Y-35724D01*
X65862Y-35724D01*
X65800Y-35786D01*
X65800Y-36200D01*
X66311Y-36200D01*
X66374Y-36137D01*
X66374Y-35924D01*
X66336Y-35832D01*
X66265Y-35762D01*
X66173Y-35724D01*
X66074Y-35724D01*
X66500Y-35724D01*
X66500Y-38642D01*
X66392Y-38750D01*
X66388Y-38750D01*
X66378Y-38725D01*
X66363Y-38710D01*
X66378Y-38695D01*
X66423Y-38585D01*
X66424Y-38466D01*
X66424Y-37914D01*
X66378Y-37804D01*
X66323Y-37749D01*
X66378Y-37695D01*
X66423Y-37585D01*
X66424Y-37466D01*
X66424Y-36914D01*
X66378Y-36804D01*
X66294Y-36720D01*
X66286Y-36716D01*
X66336Y-36667D01*
X66374Y-36575D01*
X66374Y-36362D01*
X66311Y-36300D01*
X65800Y-36300D01*
X65800Y-36307D01*
X65700Y-36307D01*
X65700Y-36300D01*
X65692Y-36300D01*
X65692Y-36200D01*
X65700Y-36200D01*
X65700Y-35786D01*
X65637Y-35724D01*
X65425Y-35724D01*
X65326Y-35724D01*
X65250Y-35756D01*
X65250Y-35750D01*
X65250Y-35750D01*
X65250Y-35750D01*
X65211Y-35558D01*
X65103Y-35396D01*
X64603Y-34896D01*
X64603Y-34896D01*
X64603Y-34896D01*
X64441Y-34788D01*
X64250Y-34750D01*
X64073Y-34750D01*
X64044Y-34720D01*
X63933Y-34674D01*
X63814Y-34674D01*
X63066Y-34674D01*
X62956Y-34719D01*
X62871Y-34804D01*
X62826Y-34914D01*
X62825Y-35033D01*
X62825Y-35585D01*
X62871Y-35695D01*
X62926Y-35750D01*
X62500Y-35750D01*
X62308Y-35788D01*
X62250Y-35827D01*
X62250Y-34957D01*
X62957Y-34250D01*
X66292Y-34250D01*
G54D10*
G36*
X69979Y-22050D02*
X70979Y-23050D01*
X75479Y-23050D01*
X75829Y-23400D01*
X75215Y-23400D01*
X74784Y-23400D01*
X56215Y-23400D01*
X55784Y-23400D01*
X55554Y-23445D01*
X55360Y-23575D01*
X55229Y-23770D01*
X55184Y-24000D01*
X55229Y-24229D01*
X55360Y-24424D01*
X55473Y-24500D01*
X55360Y-24575D01*
X55229Y-24770D01*
X55184Y-25000D01*
X55229Y-25229D01*
X55360Y-25424D01*
X55473Y-25500D01*
X55360Y-25575D01*
X55229Y-25770D01*
X55184Y-26000D01*
X55229Y-26229D01*
X55360Y-26424D01*
X55473Y-26500D01*
X55360Y-26575D01*
X55229Y-26770D01*
X55184Y-27000D01*
X55229Y-27229D01*
X55360Y-27424D01*
X55473Y-27500D01*
X55360Y-27575D01*
X55229Y-27770D01*
X55184Y-28000D01*
X55229Y-28229D01*
X55360Y-28424D01*
X55473Y-28500D01*
X55360Y-28575D01*
X55229Y-28770D01*
X55184Y-29000D01*
X55229Y-29229D01*
X55360Y-29424D01*
X55554Y-29554D01*
X55784Y-29600D01*
X56215Y-29600D01*
X56445Y-29554D01*
X56639Y-29424D01*
X56770Y-29229D01*
X56815Y-29000D01*
X56770Y-28770D01*
X56639Y-28575D01*
X56526Y-28500D01*
X56639Y-28424D01*
X56770Y-28229D01*
X56815Y-28000D01*
X56770Y-27770D01*
X56639Y-27575D01*
X56526Y-27500D01*
X56639Y-27424D01*
X56770Y-27229D01*
X56815Y-27000D01*
X56770Y-26770D01*
X56639Y-26575D01*
X56526Y-26500D01*
X56639Y-26424D01*
X56770Y-26229D01*
X56815Y-26000D01*
X56770Y-25770D01*
X56639Y-25575D01*
X56526Y-25500D01*
X56639Y-25424D01*
X56770Y-25229D01*
X56815Y-25000D01*
X56770Y-24770D01*
X56639Y-24575D01*
X56526Y-24500D01*
X56639Y-24424D01*
X56770Y-24229D01*
X56815Y-24000D01*
X56770Y-23770D01*
X56639Y-23575D01*
X56445Y-23445D01*
X56215Y-23400D01*
X74784Y-23400D01*
X74554Y-23445D01*
X74360Y-23575D01*
X74229Y-23770D01*
X74205Y-23891D01*
X72594Y-23891D01*
X70594Y-23891D01*
X68594Y-23891D01*
X68354Y-23901D01*
X68179Y-23973D01*
X68145Y-24074D01*
X68216Y-24145D01*
X68074Y-24145D01*
X67973Y-24179D01*
X67966Y-24200D01*
X65800Y-24200D01*
X60700Y-24200D01*
X60700Y-30050D01*
X65800Y-30050D01*
X65800Y-24200D01*
X67966Y-24200D01*
X67891Y-24405D01*
X67901Y-24645D01*
X67973Y-24820D01*
X68074Y-24854D01*
X68429Y-24500D01*
X68129Y-24200D01*
X68074Y-24145D01*
X68216Y-24145D01*
X68270Y-24200D01*
X68500Y-24429D01*
X68729Y-24200D01*
X68854Y-24074D01*
X68820Y-23973D01*
X68594Y-23891D01*
X70594Y-23891D01*
X70354Y-23901D01*
X70179Y-23973D01*
X70145Y-24074D01*
X70216Y-24145D01*
X70074Y-24145D01*
X68925Y-24145D01*
X68870Y-24200D01*
X68570Y-24500D01*
X68641Y-24570D01*
X68500Y-24570D01*
X68145Y-24925D01*
X68179Y-25026D01*
X68405Y-25108D01*
X68645Y-25098D01*
X68820Y-25026D01*
X68854Y-24925D01*
X68500Y-24570D01*
X68641Y-24570D01*
X68925Y-24854D01*
X69026Y-24820D01*
X69108Y-24594D01*
X69098Y-24354D01*
X69034Y-24200D01*
X69026Y-24179D01*
X68925Y-24145D01*
X70074Y-24145D01*
X69973Y-24179D01*
X69966Y-24200D01*
X69891Y-24405D01*
X69901Y-24645D01*
X69973Y-24820D01*
X70074Y-24854D01*
X70429Y-24500D01*
X70129Y-24200D01*
X70074Y-24145D01*
X70216Y-24145D01*
X70270Y-24200D01*
X70500Y-24429D01*
X70729Y-24200D01*
X70854Y-24074D01*
X70820Y-23973D01*
X70594Y-23891D01*
X72594Y-23891D01*
X72354Y-23901D01*
X72179Y-23973D01*
X72145Y-24074D01*
X72216Y-24145D01*
X72074Y-24145D01*
X70925Y-24145D01*
X70870Y-24200D01*
X70570Y-24500D01*
X70641Y-24570D01*
X70500Y-24570D01*
X70145Y-24925D01*
X70179Y-25026D01*
X70405Y-25108D01*
X70645Y-25098D01*
X70820Y-25026D01*
X70854Y-24925D01*
X70500Y-24570D01*
X70641Y-24570D01*
X70925Y-24854D01*
X71026Y-24820D01*
X71108Y-24594D01*
X71098Y-24354D01*
X71034Y-24200D01*
X71026Y-24179D01*
X70925Y-24145D01*
X72074Y-24145D01*
X71973Y-24179D01*
X71966Y-24200D01*
X71891Y-24405D01*
X71901Y-24645D01*
X71973Y-24820D01*
X72074Y-24854D01*
X72429Y-24500D01*
X72129Y-24200D01*
X72074Y-24145D01*
X72216Y-24145D01*
X72270Y-24200D01*
X72500Y-24429D01*
X72729Y-24200D01*
X72854Y-24074D01*
X72820Y-23973D01*
X72594Y-23891D01*
X74205Y-23891D01*
X74184Y-24000D01*
X74213Y-24145D01*
X72925Y-24145D01*
X72870Y-24200D01*
X72570Y-24500D01*
X72641Y-24570D01*
X72500Y-24570D01*
X72145Y-24925D01*
X72179Y-25026D01*
X72405Y-25108D01*
X72645Y-25098D01*
X72820Y-25026D01*
X72854Y-24925D01*
X72500Y-24570D01*
X72641Y-24570D01*
X72925Y-24854D01*
X73026Y-24820D01*
X73108Y-24594D01*
X73098Y-24354D01*
X73034Y-24200D01*
X73026Y-24179D01*
X72925Y-24145D01*
X74213Y-24145D01*
X74224Y-24200D01*
X74229Y-24229D01*
X74360Y-24424D01*
X74473Y-24500D01*
X74360Y-24575D01*
X74229Y-24770D01*
X74184Y-25000D01*
X74229Y-25229D01*
X74360Y-25424D01*
X74473Y-25500D01*
X74360Y-25575D01*
X74229Y-25770D01*
X74184Y-26000D01*
X74229Y-26229D01*
X74360Y-26424D01*
X74473Y-26500D01*
X74360Y-26575D01*
X74229Y-26770D01*
X74184Y-27000D01*
X74229Y-27229D01*
X74360Y-27424D01*
X74473Y-27500D01*
X74360Y-27575D01*
X74229Y-27770D01*
X74184Y-28000D01*
X74229Y-28229D01*
X74360Y-28424D01*
X74473Y-28500D01*
X74360Y-28575D01*
X74229Y-28770D01*
X74184Y-29000D01*
X74229Y-29229D01*
X74360Y-29424D01*
X74473Y-29500D01*
X74360Y-29575D01*
X74229Y-29770D01*
X74184Y-30000D01*
X74229Y-30229D01*
X74360Y-30424D01*
X74473Y-30500D01*
X72969Y-30500D01*
X72969Y-30499D01*
X73087Y-30381D01*
X73193Y-30126D01*
X73193Y-29850D01*
X73088Y-29595D01*
X73000Y-29507D01*
X73000Y-28925D01*
X73054Y-28871D01*
X73154Y-28630D01*
X73154Y-28370D01*
X73055Y-28129D01*
X72871Y-27945D01*
X72630Y-27845D01*
X72370Y-27845D01*
X70370Y-27845D01*
X70129Y-27944D01*
X69945Y-28128D01*
X69845Y-28369D01*
X69845Y-28629D01*
X69944Y-28870D01*
X70000Y-28925D01*
X70000Y-29507D01*
X69912Y-29594D01*
X69806Y-29849D01*
X69806Y-30125D01*
X69911Y-30380D01*
X70030Y-30500D01*
X69912Y-30618D01*
X69806Y-30873D01*
X69806Y-31149D01*
X69911Y-31404D01*
X70000Y-31492D01*
X70000Y-31750D01*
X69207Y-31750D01*
X69000Y-31542D01*
X69000Y-31492D01*
X69087Y-31405D01*
X69193Y-31150D01*
X69193Y-30874D01*
X69088Y-30619D01*
X68969Y-30499D01*
X69087Y-30381D01*
X69193Y-30126D01*
X69193Y-29850D01*
X69088Y-29595D01*
X69000Y-29507D01*
X69000Y-28925D01*
X69054Y-28871D01*
X69154Y-28630D01*
X69154Y-28370D01*
X69055Y-28129D01*
X68871Y-27945D01*
X68630Y-27845D01*
X68370Y-27845D01*
X68129Y-27944D01*
X67945Y-28128D01*
X67845Y-28369D01*
X67845Y-28629D01*
X67944Y-28870D01*
X68000Y-28925D01*
X68000Y-29507D01*
X67912Y-29594D01*
X67806Y-29849D01*
X67806Y-30125D01*
X67911Y-30380D01*
X67930Y-30400D01*
X56215Y-30400D01*
X55784Y-30400D01*
X55554Y-30445D01*
X55360Y-30575D01*
X55229Y-30770D01*
X55184Y-31000D01*
X55229Y-31229D01*
X55360Y-31424D01*
X55519Y-31530D01*
X55375Y-31646D01*
X55272Y-31835D01*
X55266Y-31864D01*
X55315Y-31950D01*
X55950Y-31950D01*
X55950Y-31942D01*
X56050Y-31942D01*
X56050Y-31950D01*
X56684Y-31950D01*
X56733Y-31864D01*
X56727Y-31835D01*
X56624Y-31646D01*
X56480Y-31530D01*
X56639Y-31424D01*
X56770Y-31229D01*
X56815Y-31000D01*
X56770Y-30770D01*
X56639Y-30575D01*
X56445Y-30445D01*
X56215Y-30400D01*
X67930Y-30400D01*
X68030Y-30500D01*
X67912Y-30618D01*
X67806Y-30873D01*
X67806Y-31121D01*
X65849Y-31121D01*
X65601Y-31131D01*
X65417Y-31207D01*
X65381Y-31310D01*
X65451Y-31381D01*
X65310Y-31381D01*
X65207Y-31417D01*
X65121Y-31650D01*
X65131Y-31898D01*
X65194Y-32050D01*
X56684Y-32050D01*
X56050Y-32050D01*
X55950Y-32050D01*
X55315Y-32050D01*
X55266Y-32135D01*
X55272Y-32164D01*
X55375Y-32353D01*
X55543Y-32488D01*
X55580Y-32500D01*
X55543Y-32511D01*
X55375Y-32646D01*
X55272Y-32835D01*
X55266Y-32864D01*
X55315Y-32950D01*
X55950Y-32950D01*
X55950Y-32550D01*
X55950Y-32450D01*
X55950Y-32050D01*
X56050Y-32050D01*
X56050Y-32450D01*
X56050Y-32550D01*
X56050Y-32950D01*
X56684Y-32950D01*
X56733Y-32864D01*
X56727Y-32835D01*
X56624Y-32646D01*
X56456Y-32511D01*
X56419Y-32500D01*
X56456Y-32488D01*
X56624Y-32353D01*
X56727Y-32164D01*
X56733Y-32135D01*
X56684Y-32050D01*
X65194Y-32050D01*
X65207Y-32082D01*
X65310Y-32118D01*
X65679Y-31750D01*
X65310Y-31381D01*
X65451Y-31381D01*
X65750Y-31679D01*
X66118Y-31310D01*
X66082Y-31207D01*
X65849Y-31121D01*
X67806Y-31121D01*
X67806Y-31149D01*
X67902Y-31381D01*
X66189Y-31381D01*
X65820Y-31750D01*
X66189Y-32118D01*
X66292Y-32082D01*
X66378Y-31849D01*
X66368Y-31601D01*
X66292Y-31417D01*
X66189Y-31381D01*
X67902Y-31381D01*
X67911Y-31404D01*
X68000Y-31492D01*
X68000Y-31750D01*
X68038Y-31941D01*
X68128Y-32076D01*
X67866Y-32075D01*
X67618Y-32178D01*
X67546Y-32250D01*
X66097Y-32250D01*
X66118Y-32189D01*
X65750Y-31820D01*
X65381Y-32189D01*
X65402Y-32250D01*
X60250Y-32250D01*
X60058Y-32288D01*
X59896Y-32396D01*
X59896Y-32396D01*
X58896Y-33396D01*
X58788Y-33558D01*
X58749Y-33750D01*
X58750Y-33750D01*
X58750Y-34472D01*
X57888Y-33611D01*
X57710Y-33491D01*
X57500Y-33450D01*
X56504Y-33450D01*
X56624Y-33353D01*
X56727Y-33164D01*
X56733Y-33135D01*
X56684Y-33050D01*
X56050Y-33050D01*
X56050Y-33057D01*
X55950Y-33057D01*
X55950Y-33050D01*
X55315Y-33050D01*
X55266Y-33135D01*
X55272Y-33164D01*
X55375Y-33353D01*
X55519Y-33469D01*
X55360Y-33575D01*
X55229Y-33770D01*
X55184Y-34000D01*
X55229Y-34229D01*
X55360Y-34424D01*
X55473Y-34500D01*
X55360Y-34575D01*
X55229Y-34770D01*
X55184Y-35000D01*
X55229Y-35229D01*
X55360Y-35424D01*
X55473Y-35500D01*
X55360Y-35575D01*
X55229Y-35770D01*
X55184Y-36000D01*
X55229Y-36229D01*
X55360Y-36424D01*
X55500Y-36517D01*
X55500Y-37296D01*
X55428Y-37367D01*
X55326Y-37615D01*
X55325Y-37883D01*
X55428Y-38131D01*
X55546Y-38250D01*
X55428Y-38367D01*
X55326Y-38615D01*
X55325Y-38883D01*
X55428Y-39131D01*
X55500Y-39203D01*
X55500Y-40046D01*
X55428Y-40117D01*
X55326Y-40365D01*
X55325Y-40633D01*
X55428Y-40881D01*
X55617Y-41071D01*
X55685Y-41099D01*
X55701Y-41115D01*
X55560Y-41115D01*
X55457Y-41151D01*
X55371Y-41384D01*
X55381Y-41632D01*
X55457Y-41816D01*
X55560Y-41853D01*
X55929Y-41484D01*
X55560Y-41115D01*
X55701Y-41115D01*
X56000Y-41413D01*
X56313Y-41099D01*
X56381Y-41071D01*
X56571Y-40882D01*
X56673Y-40634D01*
X56674Y-40366D01*
X56571Y-40118D01*
X56500Y-40046D01*
X56500Y-39203D01*
X56571Y-39132D01*
X56673Y-38884D01*
X56674Y-38616D01*
X56571Y-38368D01*
X56453Y-38249D01*
X56571Y-38132D01*
X56673Y-37884D01*
X56674Y-37616D01*
X56571Y-37368D01*
X56500Y-37296D01*
X56500Y-36517D01*
X56639Y-36424D01*
X56770Y-36229D01*
X56815Y-36000D01*
X56770Y-35770D01*
X56639Y-35575D01*
X56526Y-35500D01*
X56639Y-35424D01*
X56770Y-35229D01*
X56815Y-35000D01*
X56770Y-34770D01*
X56639Y-34575D01*
X56601Y-34550D01*
X57272Y-34550D01*
X58200Y-35477D01*
X58200Y-40500D01*
X58241Y-40710D01*
X58313Y-40817D01*
X58361Y-40888D01*
X58587Y-41115D01*
X56439Y-41115D01*
X56070Y-41484D01*
X56141Y-41554D01*
X56000Y-41554D01*
X55631Y-41923D01*
X55667Y-42026D01*
X55900Y-42112D01*
X56148Y-42102D01*
X56332Y-42026D01*
X56368Y-41923D01*
X56000Y-41554D01*
X56141Y-41554D01*
X56439Y-41853D01*
X56542Y-41816D01*
X56628Y-41583D01*
X56618Y-41335D01*
X56542Y-41151D01*
X56439Y-41115D01*
X58587Y-41115D01*
X59111Y-41638D01*
X59289Y-41758D01*
X59500Y-41800D01*
X59897Y-41800D01*
X59950Y-41852D01*
X59950Y-44750D01*
X59991Y-44960D01*
X60111Y-45138D01*
X61361Y-46388D01*
X61539Y-46508D01*
X61750Y-46550D01*
X68750Y-46550D01*
X68960Y-46508D01*
X69138Y-46388D01*
X69638Y-45888D01*
X69758Y-45710D01*
X69800Y-45500D01*
X69800Y-44653D01*
X69821Y-44632D01*
X69923Y-44384D01*
X69924Y-44116D01*
X69821Y-43868D01*
X69632Y-43678D01*
X69384Y-43576D01*
X69116Y-43575D01*
X69005Y-43621D01*
X67849Y-43621D01*
X67601Y-43631D01*
X67417Y-43707D01*
X67381Y-43810D01*
X67451Y-43881D01*
X67310Y-43881D01*
X67207Y-43917D01*
X67121Y-44150D01*
X67131Y-44398D01*
X67207Y-44582D01*
X67310Y-44618D01*
X67679Y-44250D01*
X67310Y-43881D01*
X67451Y-43881D01*
X67750Y-44179D01*
X68118Y-43810D01*
X68082Y-43707D01*
X67849Y-43621D01*
X69005Y-43621D01*
X68868Y-43678D01*
X68678Y-43867D01*
X68673Y-43881D01*
X68189Y-43881D01*
X67820Y-44250D01*
X67891Y-44320D01*
X67750Y-44320D01*
X67381Y-44689D01*
X67417Y-44792D01*
X67650Y-44878D01*
X67898Y-44868D01*
X68082Y-44792D01*
X68118Y-44689D01*
X67750Y-44320D01*
X67891Y-44320D01*
X68189Y-44618D01*
X68292Y-44582D01*
X68378Y-44349D01*
X68368Y-44101D01*
X68292Y-43917D01*
X68189Y-43881D01*
X68673Y-43881D01*
X68576Y-44115D01*
X68575Y-44383D01*
X68678Y-44631D01*
X68700Y-44653D01*
X68700Y-45272D01*
X68522Y-45450D01*
X61977Y-45450D01*
X61050Y-44522D01*
X61050Y-41852D01*
X61128Y-41774D01*
X61173Y-41664D01*
X61174Y-41544D01*
X61174Y-40836D01*
X61128Y-40725D01*
X61113Y-40710D01*
X61128Y-40695D01*
X61173Y-40585D01*
X61174Y-40466D01*
X61174Y-39914D01*
X61128Y-39804D01*
X61073Y-39749D01*
X61128Y-39695D01*
X61173Y-39585D01*
X61174Y-39466D01*
X61174Y-38914D01*
X61128Y-38804D01*
X61073Y-38750D01*
X61499Y-38750D01*
X61500Y-38750D01*
X61691Y-38711D01*
X61853Y-38603D01*
X62000Y-38457D01*
X62000Y-42500D01*
X62038Y-42691D01*
X62146Y-42853D01*
X62146Y-42853D01*
X62396Y-43103D01*
X62558Y-43211D01*
X62750Y-43250D01*
X62750Y-43250D01*
X69749Y-43250D01*
X69750Y-43250D01*
X69941Y-43211D01*
X70103Y-43103D01*
X71103Y-42103D01*
X71103Y-42103D01*
X71211Y-41941D01*
X71250Y-41750D01*
X71250Y-38750D01*
X71250Y-38750D01*
X71250Y-38750D01*
X71225Y-38625D01*
X71250Y-38500D01*
X71242Y-38464D01*
X71607Y-38100D01*
X74473Y-38100D01*
X74519Y-38130D01*
X74375Y-38246D01*
X74272Y-38435D01*
X74266Y-38464D01*
X74315Y-38550D01*
X74950Y-38550D01*
X74950Y-38542D01*
X75050Y-38542D01*
X75050Y-38550D01*
X75684Y-38550D01*
X75733Y-38464D01*
X75727Y-38435D01*
X75624Y-38246D01*
X75480Y-38130D01*
X75639Y-38024D01*
X75770Y-37829D01*
X75815Y-37600D01*
X75770Y-37370D01*
X75639Y-37175D01*
X75526Y-37100D01*
X75639Y-37024D01*
X75770Y-36829D01*
X75815Y-36600D01*
X75770Y-36370D01*
X75639Y-36175D01*
X75526Y-36100D01*
X75639Y-36024D01*
X75770Y-35829D01*
X75815Y-35600D01*
X75770Y-35370D01*
X75639Y-35175D01*
X75526Y-35100D01*
X75639Y-35024D01*
X75770Y-34829D01*
X75815Y-34600D01*
X75770Y-34370D01*
X75639Y-34175D01*
X75526Y-34100D01*
X75639Y-34024D01*
X75770Y-33829D01*
X75815Y-33600D01*
X75770Y-33370D01*
X75639Y-33175D01*
X75526Y-33100D01*
X75639Y-33024D01*
X75770Y-32829D01*
X75815Y-32600D01*
X75770Y-32370D01*
X75639Y-32175D01*
X75445Y-32045D01*
X75215Y-32000D01*
X74784Y-32000D01*
X74554Y-32045D01*
X74473Y-32100D01*
X71557Y-32100D01*
X71000Y-31542D01*
X71000Y-31492D01*
X71087Y-31405D01*
X71193Y-31150D01*
X71193Y-30874D01*
X71088Y-30619D01*
X70969Y-30499D01*
X71087Y-30381D01*
X71193Y-30126D01*
X71193Y-29850D01*
X71088Y-29595D01*
X71000Y-29507D01*
X71000Y-28925D01*
X71054Y-28871D01*
X71154Y-28630D01*
X71154Y-28370D01*
X71055Y-28129D01*
X70871Y-27945D01*
X70630Y-27845D01*
X70370Y-27845D01*
X72370Y-27845D01*
X72129Y-27944D01*
X71945Y-28128D01*
X71845Y-28369D01*
X71845Y-28629D01*
X71944Y-28870D01*
X72000Y-28925D01*
X72000Y-29507D01*
X71912Y-29594D01*
X71806Y-29849D01*
X71806Y-30125D01*
X71911Y-30380D01*
X72030Y-30500D01*
X71912Y-30618D01*
X71806Y-30873D01*
X71806Y-31149D01*
X71911Y-31404D01*
X72106Y-31599D01*
X72361Y-31705D01*
X72637Y-31705D01*
X72892Y-31600D01*
X72992Y-31500D01*
X74473Y-31500D01*
X74554Y-31554D01*
X74784Y-31600D01*
X75215Y-31600D01*
X75445Y-31554D01*
X75639Y-31424D01*
X75770Y-31229D01*
X75815Y-31000D01*
X75770Y-30770D01*
X75639Y-30575D01*
X75526Y-30500D01*
X75639Y-30424D01*
X75770Y-30229D01*
X75815Y-30000D01*
X75770Y-29770D01*
X75639Y-29575D01*
X75526Y-29500D01*
X75639Y-29424D01*
X75770Y-29229D01*
X75815Y-29000D01*
X75770Y-28770D01*
X75639Y-28575D01*
X75526Y-28500D01*
X75639Y-28424D01*
X75770Y-28229D01*
X75815Y-28000D01*
X75770Y-27770D01*
X75639Y-27575D01*
X75526Y-27500D01*
X75639Y-27424D01*
X75770Y-27229D01*
X75815Y-27000D01*
X75770Y-26770D01*
X75639Y-26575D01*
X75526Y-26500D01*
X75639Y-26424D01*
X75770Y-26229D01*
X75815Y-26000D01*
X75770Y-25770D01*
X75639Y-25575D01*
X75526Y-25500D01*
X75639Y-25424D01*
X75770Y-25229D01*
X75815Y-25000D01*
X75770Y-24770D01*
X75639Y-24575D01*
X75526Y-24500D01*
X75639Y-24424D01*
X75770Y-24229D01*
X75775Y-24200D01*
X75815Y-24000D01*
X75770Y-23770D01*
X75639Y-23575D01*
X75445Y-23445D01*
X75215Y-23400D01*
X75829Y-23400D01*
X75950Y-23520D01*
X75950Y-24200D01*
X75950Y-24250D01*
X75950Y-38650D01*
X75684Y-38650D01*
X75050Y-38650D01*
X75050Y-38657D01*
X74950Y-38657D01*
X74950Y-38650D01*
X74315Y-38650D01*
X74266Y-38735D01*
X74272Y-38764D01*
X74375Y-38953D01*
X74519Y-39069D01*
X74360Y-39175D01*
X74229Y-39370D01*
X74184Y-39600D01*
X74229Y-39829D01*
X74360Y-40024D01*
X74554Y-40154D01*
X74784Y-40200D01*
X75215Y-40200D01*
X75445Y-40154D01*
X75639Y-40024D01*
X75770Y-39829D01*
X75815Y-39600D01*
X75770Y-39370D01*
X75639Y-39175D01*
X75480Y-39069D01*
X75624Y-38953D01*
X75727Y-38764D01*
X75733Y-38735D01*
X75684Y-38650D01*
X75950Y-38650D01*
X75950Y-48950D01*
X55050Y-48950D01*
X55050Y-23050D01*
X56020Y-23050D01*
X57020Y-22050D01*
X60250Y-22050D01*
X60750Y-22050D01*
X65750Y-22050D01*
X66250Y-22050D01*
X69979Y-22050D01*
X69979Y-22050D01*
G37*
G54D21*
X69979Y-22050D02*
X70979Y-23050D01*
X75479Y-23050D01*
X75829Y-23400D01*
X75215Y-23400D01*
X74784Y-23400D01*
X56215Y-23400D01*
X55784Y-23400D01*
X55554Y-23445D01*
X55360Y-23575D01*
X55229Y-23770D01*
X55184Y-24000D01*
X55229Y-24229D01*
X55360Y-24424D01*
X55473Y-24500D01*
X55360Y-24575D01*
X55229Y-24770D01*
X55184Y-25000D01*
X55229Y-25229D01*
X55360Y-25424D01*
X55473Y-25500D01*
X55360Y-25575D01*
X55229Y-25770D01*
X55184Y-26000D01*
X55229Y-26229D01*
X55360Y-26424D01*
X55473Y-26500D01*
X55360Y-26575D01*
X55229Y-26770D01*
X55184Y-27000D01*
X55229Y-27229D01*
X55360Y-27424D01*
X55473Y-27500D01*
X55360Y-27575D01*
X55229Y-27770D01*
X55184Y-28000D01*
X55229Y-28229D01*
X55360Y-28424D01*
X55473Y-28500D01*
X55360Y-28575D01*
X55229Y-28770D01*
X55184Y-29000D01*
X55229Y-29229D01*
X55360Y-29424D01*
X55554Y-29554D01*
X55784Y-29600D01*
X56215Y-29600D01*
X56445Y-29554D01*
X56639Y-29424D01*
X56770Y-29229D01*
X56815Y-29000D01*
X56770Y-28770D01*
X56639Y-28575D01*
X56526Y-28500D01*
X56639Y-28424D01*
X56770Y-28229D01*
X56815Y-28000D01*
X56770Y-27770D01*
X56639Y-27575D01*
X56526Y-27500D01*
X56639Y-27424D01*
X56770Y-27229D01*
X56815Y-27000D01*
X56770Y-26770D01*
X56639Y-26575D01*
X56526Y-26500D01*
X56639Y-26424D01*
X56770Y-26229D01*
X56815Y-26000D01*
X56770Y-25770D01*
X56639Y-25575D01*
X56526Y-25500D01*
X56639Y-25424D01*
X56770Y-25229D01*
X56815Y-25000D01*
X56770Y-24770D01*
X56639Y-24575D01*
X56526Y-24500D01*
X56639Y-24424D01*
X56770Y-24229D01*
X56815Y-24000D01*
X56770Y-23770D01*
X56639Y-23575D01*
X56445Y-23445D01*
X56215Y-23400D01*
X74784Y-23400D01*
X74554Y-23445D01*
X74360Y-23575D01*
X74229Y-23770D01*
X74205Y-23891D01*
X72594Y-23891D01*
X70594Y-23891D01*
X68594Y-23891D01*
X68354Y-23901D01*
X68179Y-23973D01*
X68145Y-24074D01*
X68216Y-24145D01*
X68074Y-24145D01*
X67973Y-24179D01*
X67966Y-24200D01*
X65800Y-24200D01*
X60700Y-24200D01*
X60700Y-30050D01*
X65800Y-30050D01*
X65800Y-24200D01*
X67966Y-24200D01*
X67891Y-24405D01*
X67901Y-24645D01*
X67973Y-24820D01*
X68074Y-24854D01*
X68429Y-24500D01*
X68129Y-24200D01*
X68074Y-24145D01*
X68216Y-24145D01*
X68270Y-24200D01*
X68500Y-24429D01*
X68729Y-24200D01*
X68854Y-24074D01*
X68820Y-23973D01*
X68594Y-23891D01*
X70594Y-23891D01*
X70354Y-23901D01*
X70179Y-23973D01*
X70145Y-24074D01*
X70216Y-24145D01*
X70074Y-24145D01*
X68925Y-24145D01*
X68870Y-24200D01*
X68570Y-24500D01*
X68641Y-24570D01*
X68500Y-24570D01*
X68145Y-24925D01*
X68179Y-25026D01*
X68405Y-25108D01*
X68645Y-25098D01*
X68820Y-25026D01*
X68854Y-24925D01*
X68500Y-24570D01*
X68641Y-24570D01*
X68925Y-24854D01*
X69026Y-24820D01*
X69108Y-24594D01*
X69098Y-24354D01*
X69034Y-24200D01*
X69026Y-24179D01*
X68925Y-24145D01*
X70074Y-24145D01*
X69973Y-24179D01*
X69966Y-24200D01*
X69891Y-24405D01*
X69901Y-24645D01*
X69973Y-24820D01*
X70074Y-24854D01*
X70429Y-24500D01*
X70129Y-24200D01*
X70074Y-24145D01*
X70216Y-24145D01*
X70270Y-24200D01*
X70500Y-24429D01*
X70729Y-24200D01*
X70854Y-24074D01*
X70820Y-23973D01*
X70594Y-23891D01*
X72594Y-23891D01*
X72354Y-23901D01*
X72179Y-23973D01*
X72145Y-24074D01*
X72216Y-24145D01*
X72074Y-24145D01*
X70925Y-24145D01*
X70870Y-24200D01*
X70570Y-24500D01*
X70641Y-24570D01*
X70500Y-24570D01*
X70145Y-24925D01*
X70179Y-25026D01*
X70405Y-25108D01*
X70645Y-25098D01*
X70820Y-25026D01*
X70854Y-24925D01*
X70500Y-24570D01*
X70641Y-24570D01*
X70925Y-24854D01*
X71026Y-24820D01*
X71108Y-24594D01*
X71098Y-24354D01*
X71034Y-24200D01*
X71026Y-24179D01*
X70925Y-24145D01*
X72074Y-24145D01*
X71973Y-24179D01*
X71966Y-24200D01*
X71891Y-24405D01*
X71901Y-24645D01*
X71973Y-24820D01*
X72074Y-24854D01*
X72429Y-24500D01*
X72129Y-24200D01*
X72074Y-24145D01*
X72216Y-24145D01*
X72270Y-24200D01*
X72500Y-24429D01*
X72729Y-24200D01*
X72854Y-24074D01*
X72820Y-23973D01*
X72594Y-23891D01*
X74205Y-23891D01*
X74184Y-24000D01*
X74213Y-24145D01*
X72925Y-24145D01*
X72870Y-24200D01*
X72570Y-24500D01*
X72641Y-24570D01*
X72500Y-24570D01*
X72145Y-24925D01*
X72179Y-25026D01*
X72405Y-25108D01*
X72645Y-25098D01*
X72820Y-25026D01*
X72854Y-24925D01*
X72500Y-24570D01*
X72641Y-24570D01*
X72925Y-24854D01*
X73026Y-24820D01*
X73108Y-24594D01*
X73098Y-24354D01*
X73034Y-24200D01*
X73026Y-24179D01*
X72925Y-24145D01*
X74213Y-24145D01*
X74224Y-24200D01*
X74229Y-24229D01*
X74360Y-24424D01*
X74473Y-24500D01*
X74360Y-24575D01*
X74229Y-24770D01*
X74184Y-25000D01*
X74229Y-25229D01*
X74360Y-25424D01*
X74473Y-25500D01*
X74360Y-25575D01*
X74229Y-25770D01*
X74184Y-26000D01*
X74229Y-26229D01*
X74360Y-26424D01*
X74473Y-26500D01*
X74360Y-26575D01*
X74229Y-26770D01*
X74184Y-27000D01*
X74229Y-27229D01*
X74360Y-27424D01*
X74473Y-27500D01*
X74360Y-27575D01*
X74229Y-27770D01*
X74184Y-28000D01*
X74229Y-28229D01*
X74360Y-28424D01*
X74473Y-28500D01*
X74360Y-28575D01*
X74229Y-28770D01*
X74184Y-29000D01*
X74229Y-29229D01*
X74360Y-29424D01*
X74473Y-29500D01*
X74360Y-29575D01*
X74229Y-29770D01*
X74184Y-30000D01*
X74229Y-30229D01*
X74360Y-30424D01*
X74473Y-30500D01*
X72969Y-30500D01*
X72969Y-30499D01*
X73087Y-30381D01*
X73193Y-30126D01*
X73193Y-29850D01*
X73088Y-29595D01*
X73000Y-29507D01*
X73000Y-28925D01*
X73054Y-28871D01*
X73154Y-28630D01*
X73154Y-28370D01*
X73055Y-28129D01*
X72871Y-27945D01*
X72630Y-27845D01*
X72370Y-27845D01*
X70370Y-27845D01*
X70129Y-27944D01*
X69945Y-28128D01*
X69845Y-28369D01*
X69845Y-28629D01*
X69944Y-28870D01*
X70000Y-28925D01*
X70000Y-29507D01*
X69912Y-29594D01*
X69806Y-29849D01*
X69806Y-30125D01*
X69911Y-30380D01*
X70030Y-30500D01*
X69912Y-30618D01*
X69806Y-30873D01*
X69806Y-31149D01*
X69911Y-31404D01*
X70000Y-31492D01*
X70000Y-31750D01*
X69207Y-31750D01*
X69000Y-31542D01*
X69000Y-31492D01*
X69087Y-31405D01*
X69193Y-31150D01*
X69193Y-30874D01*
X69088Y-30619D01*
X68969Y-30499D01*
X69087Y-30381D01*
X69193Y-30126D01*
X69193Y-29850D01*
X69088Y-29595D01*
X69000Y-29507D01*
X69000Y-28925D01*
X69054Y-28871D01*
X69154Y-28630D01*
X69154Y-28370D01*
X69055Y-28129D01*
X68871Y-27945D01*
X68630Y-27845D01*
X68370Y-27845D01*
X68129Y-27944D01*
X67945Y-28128D01*
X67845Y-28369D01*
X67845Y-28629D01*
X67944Y-28870D01*
X68000Y-28925D01*
X68000Y-29507D01*
X67912Y-29594D01*
X67806Y-29849D01*
X67806Y-30125D01*
X67911Y-30380D01*
X67930Y-30400D01*
X56215Y-30400D01*
X55784Y-30400D01*
X55554Y-30445D01*
X55360Y-30575D01*
X55229Y-30770D01*
X55184Y-31000D01*
X55229Y-31229D01*
X55360Y-31424D01*
X55519Y-31530D01*
X55375Y-31646D01*
X55272Y-31835D01*
X55266Y-31864D01*
X55315Y-31950D01*
X55950Y-31950D01*
X55950Y-31942D01*
X56050Y-31942D01*
X56050Y-31950D01*
X56684Y-31950D01*
X56733Y-31864D01*
X56727Y-31835D01*
X56624Y-31646D01*
X56480Y-31530D01*
X56639Y-31424D01*
X56770Y-31229D01*
X56815Y-31000D01*
X56770Y-30770D01*
X56639Y-30575D01*
X56445Y-30445D01*
X56215Y-30400D01*
X67930Y-30400D01*
X68030Y-30500D01*
X67912Y-30618D01*
X67806Y-30873D01*
X67806Y-31121D01*
X65849Y-31121D01*
X65601Y-31131D01*
X65417Y-31207D01*
X65381Y-31310D01*
X65451Y-31381D01*
X65310Y-31381D01*
X65207Y-31417D01*
X65121Y-31650D01*
X65131Y-31898D01*
X65194Y-32050D01*
X56684Y-32050D01*
X56050Y-32050D01*
X55950Y-32050D01*
X55315Y-32050D01*
X55266Y-32135D01*
X55272Y-32164D01*
X55375Y-32353D01*
X55543Y-32488D01*
X55580Y-32500D01*
X55543Y-32511D01*
X55375Y-32646D01*
X55272Y-32835D01*
X55266Y-32864D01*
X55315Y-32950D01*
X55950Y-32950D01*
X55950Y-32550D01*
X55950Y-32450D01*
X55950Y-32050D01*
X56050Y-32050D01*
X56050Y-32450D01*
X56050Y-32550D01*
X56050Y-32950D01*
X56684Y-32950D01*
X56733Y-32864D01*
X56727Y-32835D01*
X56624Y-32646D01*
X56456Y-32511D01*
X56419Y-32500D01*
X56456Y-32488D01*
X56624Y-32353D01*
X56727Y-32164D01*
X56733Y-32135D01*
X56684Y-32050D01*
X65194Y-32050D01*
X65207Y-32082D01*
X65310Y-32118D01*
X65679Y-31750D01*
X65310Y-31381D01*
X65451Y-31381D01*
X65750Y-31679D01*
X66118Y-31310D01*
X66082Y-31207D01*
X65849Y-31121D01*
X67806Y-31121D01*
X67806Y-31149D01*
X67902Y-31381D01*
X66189Y-31381D01*
X65820Y-31750D01*
X66189Y-32118D01*
X66292Y-32082D01*
X66378Y-31849D01*
X66368Y-31601D01*
X66292Y-31417D01*
X66189Y-31381D01*
X67902Y-31381D01*
X67911Y-31404D01*
X68000Y-31492D01*
X68000Y-31750D01*
X68038Y-31941D01*
X68128Y-32076D01*
X67866Y-32075D01*
X67618Y-32178D01*
X67546Y-32250D01*
X66097Y-32250D01*
X66118Y-32189D01*
X65750Y-31820D01*
X65381Y-32189D01*
X65402Y-32250D01*
X60250Y-32250D01*
X60058Y-32288D01*
X59896Y-32396D01*
X59896Y-32396D01*
X58896Y-33396D01*
X58788Y-33558D01*
X58749Y-33750D01*
X58750Y-33750D01*
X58750Y-34472D01*
X57888Y-33611D01*
X57710Y-33491D01*
X57500Y-33450D01*
X56504Y-33450D01*
X56624Y-33353D01*
X56727Y-33164D01*
X56733Y-33135D01*
X56684Y-33050D01*
X56050Y-33050D01*
X56050Y-33057D01*
X55950Y-33057D01*
X55950Y-33050D01*
X55315Y-33050D01*
X55266Y-33135D01*
X55272Y-33164D01*
X55375Y-33353D01*
X55519Y-33469D01*
X55360Y-33575D01*
X55229Y-33770D01*
X55184Y-34000D01*
X55229Y-34229D01*
X55360Y-34424D01*
X55473Y-34500D01*
X55360Y-34575D01*
X55229Y-34770D01*
X55184Y-35000D01*
X55229Y-35229D01*
X55360Y-35424D01*
X55473Y-35500D01*
X55360Y-35575D01*
X55229Y-35770D01*
X55184Y-36000D01*
X55229Y-36229D01*
X55360Y-36424D01*
X55500Y-36517D01*
X55500Y-37296D01*
X55428Y-37367D01*
X55326Y-37615D01*
X55325Y-37883D01*
X55428Y-38131D01*
X55546Y-38250D01*
X55428Y-38367D01*
X55326Y-38615D01*
X55325Y-38883D01*
X55428Y-39131D01*
X55500Y-39203D01*
X55500Y-40046D01*
X55428Y-40117D01*
X55326Y-40365D01*
X55325Y-40633D01*
X55428Y-40881D01*
X55617Y-41071D01*
X55685Y-41099D01*
X55701Y-41115D01*
X55560Y-41115D01*
X55457Y-41151D01*
X55371Y-41384D01*
X55381Y-41632D01*
X55457Y-41816D01*
X55560Y-41853D01*
X55929Y-41484D01*
X55560Y-41115D01*
X55701Y-41115D01*
X56000Y-41413D01*
X56313Y-41099D01*
X56381Y-41071D01*
X56571Y-40882D01*
X56673Y-40634D01*
X56674Y-40366D01*
X56571Y-40118D01*
X56500Y-40046D01*
X56500Y-39203D01*
X56571Y-39132D01*
X56673Y-38884D01*
X56674Y-38616D01*
X56571Y-38368D01*
X56453Y-38249D01*
X56571Y-38132D01*
X56673Y-37884D01*
X56674Y-37616D01*
X56571Y-37368D01*
X56500Y-37296D01*
X56500Y-36517D01*
X56639Y-36424D01*
X56770Y-36229D01*
X56815Y-36000D01*
X56770Y-35770D01*
X56639Y-35575D01*
X56526Y-35500D01*
X56639Y-35424D01*
X56770Y-35229D01*
X56815Y-35000D01*
X56770Y-34770D01*
X56639Y-34575D01*
X56601Y-34550D01*
X57272Y-34550D01*
X58200Y-35477D01*
X58200Y-40500D01*
X58241Y-40710D01*
X58313Y-40817D01*
X58361Y-40888D01*
X58587Y-41115D01*
X56439Y-41115D01*
X56070Y-41484D01*
X56141Y-41554D01*
X56000Y-41554D01*
X55631Y-41923D01*
X55667Y-42026D01*
X55900Y-42112D01*
X56148Y-42102D01*
X56332Y-42026D01*
X56368Y-41923D01*
X56000Y-41554D01*
X56141Y-41554D01*
X56439Y-41853D01*
X56542Y-41816D01*
X56628Y-41583D01*
X56618Y-41335D01*
X56542Y-41151D01*
X56439Y-41115D01*
X58587Y-41115D01*
X59111Y-41638D01*
X59289Y-41758D01*
X59500Y-41800D01*
X59897Y-41800D01*
X59950Y-41852D01*
X59950Y-44750D01*
X59991Y-44960D01*
X60111Y-45138D01*
X61361Y-46388D01*
X61539Y-46508D01*
X61750Y-46550D01*
X68750Y-46550D01*
X68960Y-46508D01*
X69138Y-46388D01*
X69638Y-45888D01*
X69758Y-45710D01*
X69800Y-45500D01*
X69800Y-44653D01*
X69821Y-44632D01*
X69923Y-44384D01*
X69924Y-44116D01*
X69821Y-43868D01*
X69632Y-43678D01*
X69384Y-43576D01*
X69116Y-43575D01*
X69005Y-43621D01*
X67849Y-43621D01*
X67601Y-43631D01*
X67417Y-43707D01*
X67381Y-43810D01*
X67451Y-43881D01*
X67310Y-43881D01*
X67207Y-43917D01*
X67121Y-44150D01*
X67131Y-44398D01*
X67207Y-44582D01*
X67310Y-44618D01*
X67679Y-44250D01*
X67310Y-43881D01*
X67451Y-43881D01*
X67750Y-44179D01*
X68118Y-43810D01*
X68082Y-43707D01*
X67849Y-43621D01*
X69005Y-43621D01*
X68868Y-43678D01*
X68678Y-43867D01*
X68673Y-43881D01*
X68189Y-43881D01*
X67820Y-44250D01*
X67891Y-44320D01*
X67750Y-44320D01*
X67381Y-44689D01*
X67417Y-44792D01*
X67650Y-44878D01*
X67898Y-44868D01*
X68082Y-44792D01*
X68118Y-44689D01*
X67750Y-44320D01*
X67891Y-44320D01*
X68189Y-44618D01*
X68292Y-44582D01*
X68378Y-44349D01*
X68368Y-44101D01*
X68292Y-43917D01*
X68189Y-43881D01*
X68673Y-43881D01*
X68576Y-44115D01*
X68575Y-44383D01*
X68678Y-44631D01*
X68700Y-44653D01*
X68700Y-45272D01*
X68522Y-45450D01*
X61977Y-45450D01*
X61050Y-44522D01*
X61050Y-41852D01*
X61128Y-41774D01*
X61173Y-41664D01*
X61174Y-41544D01*
X61174Y-40836D01*
X61128Y-40725D01*
X61113Y-40710D01*
X61128Y-40695D01*
X61173Y-40585D01*
X61174Y-40466D01*
X61174Y-39914D01*
X61128Y-39804D01*
X61073Y-39749D01*
X61128Y-39695D01*
X61173Y-39585D01*
X61174Y-39466D01*
X61174Y-38914D01*
X61128Y-38804D01*
X61073Y-38750D01*
X61499Y-38750D01*
X61500Y-38750D01*
X61691Y-38711D01*
X61853Y-38603D01*
X62000Y-38457D01*
X62000Y-42500D01*
X62038Y-42691D01*
X62146Y-42853D01*
X62146Y-42853D01*
X62396Y-43103D01*
X62558Y-43211D01*
X62750Y-43250D01*
X62750Y-43250D01*
X69749Y-43250D01*
X69750Y-43250D01*
X69941Y-43211D01*
X70103Y-43103D01*
X71103Y-42103D01*
X71103Y-42103D01*
X71211Y-41941D01*
X71250Y-41750D01*
X71250Y-38750D01*
X71250Y-38750D01*
X71250Y-38750D01*
X71225Y-38625D01*
X71250Y-38500D01*
X71242Y-38464D01*
X71607Y-38100D01*
X74473Y-38100D01*
X74519Y-38130D01*
X74375Y-38246D01*
X74272Y-38435D01*
X74266Y-38464D01*
X74315Y-38550D01*
X74950Y-38550D01*
X74950Y-38542D01*
X75050Y-38542D01*
X75050Y-38550D01*
X75684Y-38550D01*
X75733Y-38464D01*
X75727Y-38435D01*
X75624Y-38246D01*
X75480Y-38130D01*
X75639Y-38024D01*
X75770Y-37829D01*
X75815Y-37600D01*
X75770Y-37370D01*
X75639Y-37175D01*
X75526Y-37100D01*
X75639Y-37024D01*
X75770Y-36829D01*
X75815Y-36600D01*
X75770Y-36370D01*
X75639Y-36175D01*
X75526Y-36100D01*
X75639Y-36024D01*
X75770Y-35829D01*
X75815Y-35600D01*
X75770Y-35370D01*
X75639Y-35175D01*
X75526Y-35100D01*
X75639Y-35024D01*
X75770Y-34829D01*
X75815Y-34600D01*
X75770Y-34370D01*
X75639Y-34175D01*
X75526Y-34100D01*
X75639Y-34024D01*
X75770Y-33829D01*
X75815Y-33600D01*
X75770Y-33370D01*
X75639Y-33175D01*
X75526Y-33100D01*
X75639Y-33024D01*
X75770Y-32829D01*
X75815Y-32600D01*
X75770Y-32370D01*
X75639Y-32175D01*
X75445Y-32045D01*
X75215Y-32000D01*
X74784Y-32000D01*
X74554Y-32045D01*
X74473Y-32100D01*
X71557Y-32100D01*
X71000Y-31542D01*
X71000Y-31492D01*
X71087Y-31405D01*
X71193Y-31150D01*
X71193Y-30874D01*
X71088Y-30619D01*
X70969Y-30499D01*
X71087Y-30381D01*
X71193Y-30126D01*
X71193Y-29850D01*
X71088Y-29595D01*
X71000Y-29507D01*
X71000Y-28925D01*
X71054Y-28871D01*
X71154Y-28630D01*
X71154Y-28370D01*
X71055Y-28129D01*
X70871Y-27945D01*
X70630Y-27845D01*
X70370Y-27845D01*
X72370Y-27845D01*
X72129Y-27944D01*
X71945Y-28128D01*
X71845Y-28369D01*
X71845Y-28629D01*
X71944Y-28870D01*
X72000Y-28925D01*
X72000Y-29507D01*
X71912Y-29594D01*
X71806Y-29849D01*
X71806Y-30125D01*
X71911Y-30380D01*
X72030Y-30500D01*
X71912Y-30618D01*
X71806Y-30873D01*
X71806Y-31149D01*
X71911Y-31404D01*
X72106Y-31599D01*
X72361Y-31705D01*
X72637Y-31705D01*
X72892Y-31600D01*
X72992Y-31500D01*
X74473Y-31500D01*
X74554Y-31554D01*
X74784Y-31600D01*
X75215Y-31600D01*
X75445Y-31554D01*
X75639Y-31424D01*
X75770Y-31229D01*
X75815Y-31000D01*
X75770Y-30770D01*
X75639Y-30575D01*
X75526Y-30500D01*
X75639Y-30424D01*
X75770Y-30229D01*
X75815Y-30000D01*
X75770Y-29770D01*
X75639Y-29575D01*
X75526Y-29500D01*
X75639Y-29424D01*
X75770Y-29229D01*
X75815Y-29000D01*
X75770Y-28770D01*
X75639Y-28575D01*
X75526Y-28500D01*
X75639Y-28424D01*
X75770Y-28229D01*
X75815Y-28000D01*
X75770Y-27770D01*
X75639Y-27575D01*
X75526Y-27500D01*
X75639Y-27424D01*
X75770Y-27229D01*
X75815Y-27000D01*
X75770Y-26770D01*
X75639Y-26575D01*
X75526Y-26500D01*
X75639Y-26424D01*
X75770Y-26229D01*
X75815Y-26000D01*
X75770Y-25770D01*
X75639Y-25575D01*
X75526Y-25500D01*
X75639Y-25424D01*
X75770Y-25229D01*
X75815Y-25000D01*
X75770Y-24770D01*
X75639Y-24575D01*
X75526Y-24500D01*
X75639Y-24424D01*
X75770Y-24229D01*
X75775Y-24200D01*
X75815Y-24000D01*
X75770Y-23770D01*
X75639Y-23575D01*
X75445Y-23445D01*
X75215Y-23400D01*
X75829Y-23400D01*
X75950Y-23520D01*
X75950Y-24200D01*
X75950Y-24250D01*
X75950Y-38650D01*
X75684Y-38650D01*
X75050Y-38650D01*
X75050Y-38657D01*
X74950Y-38657D01*
X74950Y-38650D01*
X74315Y-38650D01*
X74266Y-38735D01*
X74272Y-38764D01*
X74375Y-38953D01*
X74519Y-39069D01*
X74360Y-39175D01*
X74229Y-39370D01*
X74184Y-39600D01*
X74229Y-39829D01*
X74360Y-40024D01*
X74554Y-40154D01*
X74784Y-40200D01*
X75215Y-40200D01*
X75445Y-40154D01*
X75639Y-40024D01*
X75770Y-39829D01*
X75815Y-39600D01*
X75770Y-39370D01*
X75639Y-39175D01*
X75480Y-39069D01*
X75624Y-38953D01*
X75727Y-38764D01*
X75733Y-38735D01*
X75684Y-38650D01*
X75950Y-38650D01*
X75950Y-48950D01*
X55050Y-48950D01*
X55050Y-23050D01*
X56020Y-23050D01*
X57020Y-22050D01*
X60250Y-22050D01*
X60750Y-22050D01*
X65750Y-22050D01*
X66250Y-22050D01*
X69979Y-22050D01*
M02*
