M48
;DRILL file {Pcbnew (2013-jul-07)-stable} date Wed 18 Feb 2015 14:42:34 CET
;FORMAT={-:-/ absolute / metric / decimal}
FMAT,2
METRIC,TZ
T1C0.600
T2C0.800
T3C0.900
%
G90
G05
M71
T1
X173.99Y-76.17
X173.99Y-78.77
X179.07Y-76.17
X179.07Y-78.77
X184.15Y-76.17
X184.15Y-78.77
T2
X142.24Y-60.96
X142.24Y-63.5
X142.24Y-66.04
X142.24Y-68.58
X142.24Y-71.12
X142.24Y-73.66
X142.24Y-78.74
X142.24Y-81.28
X142.24Y-83.82
X142.24Y-86.36
X142.24Y-88.9
X142.24Y-91.44
X142.24Y-95.885
X142.24Y-98.425
X142.24Y-102.87
X142.24Y-105.37
X153.67Y-89.535
X153.67Y-92.075
X153.67Y-94.615
X153.67Y-97.155
X153.67Y-99.695
X153.67Y-102.235
X153.67Y-104.775
X161.29Y-89.535
X161.29Y-92.075
X161.29Y-94.615
X161.29Y-97.155
X161.29Y-99.695
X161.29Y-102.235
X161.29Y-104.775
X165.1Y-106.045
X165.1Y-111.76
X167.005Y-80.645
X167.005Y-88.9
X167.005Y-92.075
X167.005Y-94.615
X167.005Y-97.155
X167.005Y-99.695
X172.72Y-83.185
X172.72Y-88.265
X173.99Y-62.23
X173.99Y-72.39
X174.625Y-92.075
X174.625Y-94.615
X174.625Y-97.155
X174.625Y-99.695
X175.895Y-105.41
X175.895Y-112.395
X179.07Y-62.23
X179.07Y-72.39
X184.15Y-62.23
X184.15Y-72.39
X190.5Y-60.96
X190.5Y-63.5
X190.5Y-66.04
X190.5Y-68.58
X190.5Y-71.12
X190.5Y-73.66
X190.5Y-76.2
X190.5Y-78.74
X190.5Y-82.804
X190.5Y-85.344
X190.5Y-90.424
X190.5Y-92.964
X190.5Y-95.504
X190.5Y-98.044
X190.5Y-100.584
T3
X190.5Y-87.884
T0
M30
