G04 (created by PCBNEW (2013-jul-07)-stable) date Wed 25 Feb 2015 16:28:17 CET*
%MOIN*%
G04 Gerber Fmt 3.4, Leading zero omitted, Abs format*
%FSLAX34Y34*%
G01*
G70*
G90*
G04 APERTURE LIST*
%ADD10C,0.00590551*%
%ADD11C,0.0001*%
%ADD12O,0.1X0.06*%
%ADD13R,0.06X0.06*%
%ADD14C,0.06*%
%ADD15C,0.066*%
%ADD16C,0.0748031*%
%ADD17R,0.0748031X0.0708661*%
%ADD18R,0.0748031X0.0551181*%
%ADD19R,0.0669291X0.0551181*%
%ADD20C,0.0708661*%
%ADD21C,0.0787402*%
%ADD22C,0.04*%
%ADD23C,0.05*%
%ADD24C,0.01*%
G04 APERTURE END LIST*
G54D10*
G54D11*
G36*
X79214Y-48683D02*
X78982Y-48681D01*
X78695Y-48677D01*
X78401Y-48673D01*
X78044Y-48668D01*
X77748Y-48663D01*
X77507Y-48657D01*
X77316Y-48648D01*
X77168Y-48636D01*
X77058Y-48619D01*
X76981Y-48596D01*
X76930Y-48565D01*
X76899Y-48524D01*
X76884Y-48474D01*
X76878Y-48411D01*
X76876Y-48335D01*
X76875Y-48313D01*
X76876Y-48192D01*
X76887Y-48092D01*
X76902Y-48041D01*
X76959Y-47975D01*
X77044Y-47929D01*
X77169Y-47900D01*
X77342Y-47886D01*
X77498Y-47883D01*
X77646Y-47881D01*
X77765Y-47875D01*
X77843Y-47867D01*
X77866Y-47858D01*
X77857Y-47814D01*
X77834Y-47729D01*
X77821Y-47684D01*
X78943Y-47684D01*
X79118Y-47668D01*
X79276Y-47621D01*
X79403Y-47542D01*
X79434Y-47509D01*
X79491Y-47394D01*
X79494Y-47266D01*
X79447Y-47143D01*
X79357Y-47041D01*
X79277Y-46995D01*
X79158Y-46965D01*
X79002Y-46951D01*
X78835Y-46954D01*
X78683Y-46973D01*
X78579Y-47004D01*
X78466Y-47078D01*
X78379Y-47171D01*
X78336Y-47265D01*
X78333Y-47289D01*
X78348Y-47363D01*
X78384Y-47452D01*
X78385Y-47454D01*
X78472Y-47554D01*
X78604Y-47627D01*
X78766Y-47670D01*
X78943Y-47684D01*
X77821Y-47684D01*
X77816Y-47670D01*
X77775Y-47458D01*
X77768Y-47222D01*
X77793Y-46992D01*
X77837Y-46830D01*
X77933Y-46640D01*
X78064Y-46472D01*
X78214Y-46347D01*
X78261Y-46319D01*
X78377Y-46260D01*
X78228Y-46158D01*
X78064Y-46012D01*
X77931Y-45818D01*
X77847Y-45633D01*
X77840Y-45603D01*
X79028Y-45603D01*
X79197Y-45569D01*
X79335Y-45503D01*
X79435Y-45413D01*
X79491Y-45304D01*
X79497Y-45184D01*
X79444Y-45059D01*
X79414Y-45020D01*
X79293Y-44924D01*
X79135Y-44866D01*
X78956Y-44846D01*
X78773Y-44862D01*
X78604Y-44915D01*
X78466Y-45005D01*
X78436Y-45035D01*
X78356Y-45153D01*
X78339Y-45261D01*
X78383Y-45369D01*
X78403Y-45396D01*
X78505Y-45494D01*
X78638Y-45559D01*
X78819Y-45597D01*
X78835Y-45599D01*
X79028Y-45603D01*
X77840Y-45603D01*
X77801Y-45454D01*
X77783Y-45245D01*
X77791Y-45030D01*
X77826Y-44836D01*
X77860Y-44738D01*
X77901Y-44640D01*
X77913Y-44579D01*
X77900Y-44532D01*
X77883Y-44506D01*
X77844Y-44406D01*
X77831Y-44273D01*
X77842Y-44133D01*
X77877Y-44014D01*
X77902Y-43971D01*
X77971Y-43883D01*
X79399Y-43883D01*
X80827Y-43883D01*
X80914Y-43986D01*
X80981Y-44111D01*
X81005Y-44261D01*
X80987Y-44409D01*
X80925Y-44534D01*
X80919Y-44540D01*
X80884Y-44578D01*
X80848Y-44604D01*
X80798Y-44621D01*
X80722Y-44632D01*
X80606Y-44638D01*
X80438Y-44643D01*
X80405Y-44644D01*
X79971Y-44655D01*
X80024Y-44794D01*
X80057Y-44926D01*
X80076Y-45112D01*
X80080Y-45250D01*
X80079Y-45410D01*
X80070Y-45525D01*
X80050Y-45618D01*
X80014Y-45710D01*
X79996Y-45750D01*
X79877Y-45946D01*
X79730Y-46107D01*
X79586Y-46207D01*
X79520Y-46244D01*
X79509Y-46268D01*
X79546Y-46294D01*
X79550Y-46296D01*
X79672Y-46386D01*
X79799Y-46514D01*
X79914Y-46660D01*
X79999Y-46802D01*
X80020Y-46853D01*
X80062Y-47031D01*
X80082Y-47239D01*
X80081Y-47453D01*
X80058Y-47652D01*
X80013Y-47813D01*
X80007Y-47828D01*
X79966Y-47926D01*
X79953Y-47987D01*
X79967Y-48034D01*
X79984Y-48061D01*
X80015Y-48145D01*
X80031Y-48265D01*
X80029Y-48391D01*
X80009Y-48495D01*
X79999Y-48518D01*
X79946Y-48577D01*
X79865Y-48634D01*
X79857Y-48638D01*
X79825Y-48652D01*
X79784Y-48663D01*
X79727Y-48672D01*
X79648Y-48678D01*
X79541Y-48682D01*
X79398Y-48683D01*
X79214Y-48683D01*
X79214Y-48683D01*
X79214Y-48683D01*
G37*
G54D12*
X61250Y-24250D03*
X61250Y-25250D03*
X61250Y-26250D03*
X61250Y-29250D03*
X61250Y-28250D03*
X61250Y-27250D03*
X61250Y-31250D03*
X61250Y-32250D03*
X61250Y-33250D03*
X61250Y-35250D03*
X61250Y-36250D03*
X80250Y-24250D03*
X80250Y-25250D03*
X80250Y-26250D03*
X80250Y-27250D03*
X80250Y-28250D03*
X80250Y-29250D03*
X80250Y-30250D03*
X80250Y-31250D03*
X80250Y-32850D03*
X80250Y-33850D03*
X80250Y-34850D03*
X80250Y-35850D03*
X80250Y-36850D03*
X80250Y-37850D03*
X80250Y-38850D03*
X80250Y-39850D03*
X61250Y-34250D03*
G54D13*
X64905Y-28460D03*
G54D14*
X64905Y-27460D03*
X64905Y-26460D03*
X66094Y-26460D03*
X66094Y-27460D03*
X66094Y-28460D03*
G54D15*
X70000Y-31250D03*
X70000Y-30250D03*
G54D16*
X73250Y-35000D03*
X73250Y-41000D03*
X73250Y-44250D03*
X71000Y-45750D03*
G54D17*
X65750Y-41500D03*
G54D18*
X65750Y-40500D03*
X65750Y-39500D03*
X65750Y-38500D03*
X65750Y-37500D03*
X65750Y-36500D03*
X65750Y-35500D03*
X68750Y-35500D03*
X68750Y-36500D03*
X68750Y-37500D03*
X68750Y-38500D03*
X68750Y-39500D03*
X68750Y-40500D03*
G54D19*
X68750Y-41500D03*
G54D20*
X71250Y-35000D03*
G54D16*
X71250Y-32000D03*
X61250Y-40750D03*
X61250Y-41734D03*
X61250Y-39000D03*
X61250Y-38000D03*
G54D17*
X71000Y-39500D03*
G54D18*
X71000Y-38500D03*
X71000Y-37500D03*
X71000Y-36500D03*
X74000Y-36500D03*
X74000Y-37500D03*
X74000Y-38500D03*
X74000Y-39500D03*
G54D20*
X77750Y-24750D03*
X77750Y-28750D03*
X75750Y-24750D03*
X75750Y-28750D03*
X73750Y-24750D03*
X73750Y-28750D03*
G54D16*
X71000Y-42000D03*
X73250Y-33000D03*
G54D21*
X77750Y-31261D03*
X77750Y-30238D03*
X75750Y-31261D03*
X75750Y-30238D03*
X73700Y-31211D03*
X73700Y-30188D03*
G54D20*
X72000Y-28750D03*
X72000Y-24750D03*
X70000Y-24750D03*
X70000Y-28750D03*
G54D22*
X73750Y-31261D02*
X73750Y-32000D01*
X76600Y-33850D02*
X80250Y-33850D01*
X75250Y-32500D02*
X76600Y-33850D01*
X74250Y-32500D02*
X75250Y-32500D01*
X73750Y-32000D02*
X74250Y-32500D01*
G54D23*
X66094Y-28460D02*
X64905Y-28460D01*
X64905Y-28460D02*
X64866Y-28500D01*
X64866Y-28500D02*
X63000Y-28500D01*
X63000Y-28500D02*
X62750Y-28750D01*
X62750Y-28750D02*
X62750Y-34000D01*
X62750Y-34000D02*
X62500Y-34250D01*
X62500Y-34250D02*
X61250Y-34250D01*
G54D22*
X61250Y-36250D02*
X61250Y-38000D01*
X74000Y-38500D02*
X75500Y-38500D01*
X75500Y-38500D02*
X75750Y-38750D01*
X68750Y-36500D02*
X67750Y-36500D01*
X67750Y-36500D02*
X67750Y-42750D01*
X67750Y-42750D02*
X68000Y-43000D01*
X68000Y-43000D02*
X75000Y-43000D01*
X75000Y-43000D02*
X76000Y-42000D01*
X76000Y-42000D02*
X76000Y-39000D01*
X76000Y-39000D02*
X75750Y-38750D01*
X75750Y-38750D02*
X75750Y-38750D01*
X80250Y-37850D02*
X76650Y-37850D01*
X76000Y-38500D02*
X74000Y-38500D01*
X76650Y-37850D02*
X76000Y-38500D01*
X61250Y-39000D02*
X61250Y-40750D01*
X77750Y-30238D02*
X77750Y-28750D01*
X75750Y-30238D02*
X75750Y-28750D01*
X73750Y-30238D02*
X73750Y-28750D01*
X65750Y-38500D02*
X66500Y-38500D01*
X67250Y-34000D02*
X71750Y-34000D01*
X66750Y-34500D02*
X67250Y-34000D01*
X66750Y-38250D02*
X66750Y-34500D01*
X66500Y-38500D02*
X66750Y-38250D01*
X71000Y-39500D02*
X71849Y-39500D01*
X72250Y-34500D02*
X71750Y-34000D01*
X72250Y-39099D02*
X72250Y-34500D01*
X71849Y-39500D02*
X72250Y-39099D01*
X80250Y-34850D02*
X76100Y-34850D01*
X75250Y-34000D02*
X72500Y-34000D01*
X76100Y-34850D02*
X75250Y-34000D01*
X71750Y-34000D02*
X72500Y-34000D01*
X80250Y-32850D02*
X76600Y-32850D01*
X75750Y-32000D02*
X75750Y-31261D01*
X76600Y-32850D02*
X75750Y-32000D01*
X80250Y-31250D02*
X77761Y-31250D01*
X77761Y-31250D02*
X77750Y-31261D01*
X68750Y-35500D02*
X69500Y-35500D01*
X73250Y-37500D02*
X74000Y-37500D01*
X73000Y-37750D02*
X73250Y-37500D01*
X73000Y-39500D02*
X73000Y-37750D01*
X71500Y-41000D02*
X73000Y-39500D01*
X70500Y-41000D02*
X71500Y-41000D01*
X70000Y-40500D02*
X70500Y-41000D01*
X70000Y-36000D02*
X70000Y-40500D01*
X69500Y-35500D02*
X70000Y-36000D01*
X80250Y-36850D02*
X76400Y-36850D01*
X75750Y-37500D02*
X74000Y-37500D01*
X76400Y-36850D02*
X75750Y-37500D01*
X74000Y-36500D02*
X75500Y-36500D01*
X75500Y-36500D02*
X76150Y-35850D01*
X73250Y-33000D02*
X65500Y-33000D01*
X65000Y-35500D02*
X65750Y-35500D01*
X64500Y-35000D02*
X65000Y-35500D01*
X64500Y-34000D02*
X64500Y-35000D01*
X65500Y-33000D02*
X64500Y-34000D01*
X73250Y-35000D02*
X74000Y-35000D01*
X74000Y-35000D02*
X74850Y-35850D01*
X80250Y-35850D02*
X76150Y-35850D01*
X76150Y-35850D02*
X74850Y-35850D01*
G54D23*
X64905Y-26460D02*
X66094Y-26460D01*
X66094Y-26460D02*
X66133Y-26500D01*
X66133Y-26500D02*
X71000Y-26500D01*
X71000Y-26500D02*
X72000Y-27500D01*
X72000Y-27500D02*
X72000Y-28750D01*
G54D22*
X70000Y-30250D02*
X70000Y-28750D01*
G54D23*
X73250Y-44250D02*
X67250Y-44250D01*
X63750Y-42750D02*
X63750Y-41000D01*
X64500Y-43500D02*
X63750Y-42750D01*
X66500Y-43500D02*
X64500Y-43500D01*
X67250Y-44250D02*
X66500Y-43500D01*
X73250Y-41000D02*
X74250Y-41000D01*
X75000Y-39500D02*
X74000Y-39500D01*
X75250Y-39750D02*
X75000Y-39500D01*
X75250Y-40000D02*
X75250Y-39750D01*
X74250Y-41000D02*
X75250Y-40000D01*
X67000Y-27500D02*
X66133Y-27500D01*
X68250Y-27500D02*
X68500Y-27750D01*
X68500Y-27750D02*
X68500Y-30000D01*
X67250Y-31250D02*
X68500Y-30000D01*
X67000Y-27500D02*
X68250Y-27500D01*
X66133Y-27500D02*
X66094Y-27460D01*
X66094Y-27460D02*
X64905Y-27460D01*
X67250Y-31250D02*
X65500Y-31250D01*
X64250Y-41500D02*
X65750Y-41500D01*
X63750Y-41000D02*
X64250Y-41500D01*
X63750Y-33000D02*
X63750Y-41000D01*
X65500Y-31250D02*
X63750Y-33000D01*
X70000Y-31250D02*
X67250Y-31250D01*
G54D10*
G36*
X71750Y-38892D02*
X71642Y-39000D01*
X71638Y-39000D01*
X71628Y-38975D01*
X71613Y-38960D01*
X71628Y-38945D01*
X71673Y-38835D01*
X71674Y-38716D01*
X71674Y-38164D01*
X71628Y-38054D01*
X71573Y-37999D01*
X71628Y-37945D01*
X71673Y-37835D01*
X71674Y-37716D01*
X71674Y-37164D01*
X71628Y-37054D01*
X71544Y-36970D01*
X71536Y-36966D01*
X71586Y-36917D01*
X71624Y-36825D01*
X71624Y-36174D01*
X71604Y-36127D01*
X71604Y-35425D01*
X71250Y-35070D01*
X71179Y-35141D01*
X71179Y-35000D01*
X70824Y-34645D01*
X70723Y-34679D01*
X70641Y-34905D01*
X70651Y-35145D01*
X70723Y-35320D01*
X70824Y-35354D01*
X71179Y-35000D01*
X71179Y-35141D01*
X70895Y-35425D01*
X70929Y-35526D01*
X71155Y-35608D01*
X71395Y-35598D01*
X71570Y-35526D01*
X71604Y-35425D01*
X71604Y-36127D01*
X71586Y-36082D01*
X71515Y-36012D01*
X71423Y-35974D01*
X71324Y-35974D01*
X71112Y-35974D01*
X71050Y-36036D01*
X71050Y-36450D01*
X71561Y-36450D01*
X71624Y-36387D01*
X71624Y-36174D01*
X71624Y-36825D01*
X71624Y-36612D01*
X71561Y-36550D01*
X71050Y-36550D01*
X71050Y-36557D01*
X70950Y-36557D01*
X70950Y-36550D01*
X70942Y-36550D01*
X70942Y-36450D01*
X70950Y-36450D01*
X70950Y-36036D01*
X70887Y-35974D01*
X70675Y-35974D01*
X70576Y-35974D01*
X70500Y-36006D01*
X70500Y-36000D01*
X70461Y-35808D01*
X70353Y-35646D01*
X70353Y-35646D01*
X69853Y-35146D01*
X69691Y-35038D01*
X69500Y-34999D01*
X69499Y-35000D01*
X69323Y-35000D01*
X69294Y-34970D01*
X69183Y-34924D01*
X69064Y-34924D01*
X68316Y-34924D01*
X68206Y-34969D01*
X68121Y-35054D01*
X68076Y-35164D01*
X68075Y-35283D01*
X68075Y-35835D01*
X68121Y-35945D01*
X68176Y-36000D01*
X67750Y-36000D01*
X67558Y-36038D01*
X67396Y-36146D01*
X67288Y-36308D01*
X67250Y-36500D01*
X67250Y-34707D01*
X67457Y-34500D01*
X70920Y-34500D01*
X70895Y-34574D01*
X71250Y-34929D01*
X71255Y-34923D01*
X71326Y-34994D01*
X71320Y-35000D01*
X71675Y-35354D01*
X71750Y-35329D01*
X71750Y-38892D01*
X71750Y-38892D01*
G37*
G54D24*
X71750Y-38892D02*
X71642Y-39000D01*
X71638Y-39000D01*
X71628Y-38975D01*
X71613Y-38960D01*
X71628Y-38945D01*
X71673Y-38835D01*
X71674Y-38716D01*
X71674Y-38164D01*
X71628Y-38054D01*
X71573Y-37999D01*
X71628Y-37945D01*
X71673Y-37835D01*
X71674Y-37716D01*
X71674Y-37164D01*
X71628Y-37054D01*
X71544Y-36970D01*
X71536Y-36966D01*
X71586Y-36917D01*
X71624Y-36825D01*
X71624Y-36174D01*
X71604Y-36127D01*
X71604Y-35425D01*
X71250Y-35070D01*
X71179Y-35141D01*
X71179Y-35000D01*
X70824Y-34645D01*
X70723Y-34679D01*
X70641Y-34905D01*
X70651Y-35145D01*
X70723Y-35320D01*
X70824Y-35354D01*
X71179Y-35000D01*
X71179Y-35141D01*
X70895Y-35425D01*
X70929Y-35526D01*
X71155Y-35608D01*
X71395Y-35598D01*
X71570Y-35526D01*
X71604Y-35425D01*
X71604Y-36127D01*
X71586Y-36082D01*
X71515Y-36012D01*
X71423Y-35974D01*
X71324Y-35974D01*
X71112Y-35974D01*
X71050Y-36036D01*
X71050Y-36450D01*
X71561Y-36450D01*
X71624Y-36387D01*
X71624Y-36174D01*
X71624Y-36825D01*
X71624Y-36612D01*
X71561Y-36550D01*
X71050Y-36550D01*
X71050Y-36557D01*
X70950Y-36557D01*
X70950Y-36550D01*
X70942Y-36550D01*
X70942Y-36450D01*
X70950Y-36450D01*
X70950Y-36036D01*
X70887Y-35974D01*
X70675Y-35974D01*
X70576Y-35974D01*
X70500Y-36006D01*
X70500Y-36000D01*
X70461Y-35808D01*
X70353Y-35646D01*
X70353Y-35646D01*
X69853Y-35146D01*
X69691Y-35038D01*
X69500Y-34999D01*
X69499Y-35000D01*
X69323Y-35000D01*
X69294Y-34970D01*
X69183Y-34924D01*
X69064Y-34924D01*
X68316Y-34924D01*
X68206Y-34969D01*
X68121Y-35054D01*
X68076Y-35164D01*
X68075Y-35283D01*
X68075Y-35835D01*
X68121Y-35945D01*
X68176Y-36000D01*
X67750Y-36000D01*
X67558Y-36038D01*
X67396Y-36146D01*
X67288Y-36308D01*
X67250Y-36500D01*
X67250Y-34707D01*
X67457Y-34500D01*
X70920Y-34500D01*
X70895Y-34574D01*
X71250Y-34929D01*
X71255Y-34923D01*
X71326Y-34994D01*
X71320Y-35000D01*
X71675Y-35354D01*
X71750Y-35329D01*
X71750Y-38892D01*
G54D10*
G36*
X75500Y-41792D02*
X74792Y-42500D01*
X71628Y-42500D01*
X71628Y-42099D01*
X71618Y-41851D01*
X71542Y-41667D01*
X71439Y-41631D01*
X71070Y-42000D01*
X71439Y-42368D01*
X71542Y-42332D01*
X71628Y-42099D01*
X71628Y-42500D01*
X71347Y-42500D01*
X71368Y-42439D01*
X71000Y-42070D01*
X70929Y-42141D01*
X70929Y-42000D01*
X70560Y-41631D01*
X70457Y-41667D01*
X70371Y-41900D01*
X70381Y-42148D01*
X70457Y-42332D01*
X70560Y-42368D01*
X70929Y-42000D01*
X70929Y-42141D01*
X70631Y-42439D01*
X70652Y-42500D01*
X69334Y-42500D01*
X69334Y-41825D01*
X69334Y-41612D01*
X69272Y-41550D01*
X68800Y-41550D01*
X68800Y-41963D01*
X68862Y-42025D01*
X69035Y-42025D01*
X69134Y-42025D01*
X69226Y-41987D01*
X69296Y-41917D01*
X69334Y-41825D01*
X69334Y-42500D01*
X68250Y-42500D01*
X68250Y-41963D01*
X68273Y-41987D01*
X68365Y-42025D01*
X68464Y-42025D01*
X68637Y-42025D01*
X68700Y-41963D01*
X68700Y-41550D01*
X68692Y-41550D01*
X68692Y-41450D01*
X68700Y-41450D01*
X68700Y-41442D01*
X68800Y-41442D01*
X68800Y-41450D01*
X69272Y-41450D01*
X69334Y-41387D01*
X69334Y-41174D01*
X69296Y-41082D01*
X69258Y-41044D01*
X69293Y-41030D01*
X69378Y-40945D01*
X69423Y-40835D01*
X69424Y-40716D01*
X69424Y-40164D01*
X69378Y-40054D01*
X69323Y-39999D01*
X69378Y-39945D01*
X69423Y-39835D01*
X69424Y-39716D01*
X69424Y-39164D01*
X69378Y-39054D01*
X69323Y-38999D01*
X69378Y-38945D01*
X69423Y-38835D01*
X69424Y-38716D01*
X69424Y-38164D01*
X69378Y-38054D01*
X69323Y-37999D01*
X69378Y-37945D01*
X69423Y-37835D01*
X69424Y-37716D01*
X69424Y-37164D01*
X69378Y-37054D01*
X69323Y-36999D01*
X69378Y-36945D01*
X69423Y-36835D01*
X69424Y-36716D01*
X69424Y-36164D01*
X69400Y-36107D01*
X69500Y-36207D01*
X69500Y-40499D01*
X69499Y-40500D01*
X69538Y-40691D01*
X69646Y-40853D01*
X70146Y-41353D01*
X70146Y-41353D01*
X70308Y-41461D01*
X70500Y-41500D01*
X70652Y-41500D01*
X70631Y-41560D01*
X71000Y-41929D01*
X71368Y-41560D01*
X71347Y-41500D01*
X71499Y-41500D01*
X71500Y-41500D01*
X71500Y-41500D01*
X71691Y-41461D01*
X71853Y-41353D01*
X73339Y-39867D01*
X73371Y-39945D01*
X73455Y-40029D01*
X73566Y-40075D01*
X73685Y-40075D01*
X74396Y-40075D01*
X74022Y-40450D01*
X73653Y-40450D01*
X73632Y-40428D01*
X73384Y-40326D01*
X73116Y-40325D01*
X72868Y-40428D01*
X72678Y-40617D01*
X72576Y-40865D01*
X72575Y-41133D01*
X72678Y-41381D01*
X72867Y-41571D01*
X73115Y-41673D01*
X73383Y-41674D01*
X73631Y-41571D01*
X73653Y-41550D01*
X74250Y-41550D01*
X74460Y-41508D01*
X74638Y-41388D01*
X75500Y-40527D01*
X75500Y-41792D01*
X75500Y-41792D01*
G37*
G54D24*
X75500Y-41792D02*
X74792Y-42500D01*
X71628Y-42500D01*
X71628Y-42099D01*
X71618Y-41851D01*
X71542Y-41667D01*
X71439Y-41631D01*
X71070Y-42000D01*
X71439Y-42368D01*
X71542Y-42332D01*
X71628Y-42099D01*
X71628Y-42500D01*
X71347Y-42500D01*
X71368Y-42439D01*
X71000Y-42070D01*
X70929Y-42141D01*
X70929Y-42000D01*
X70560Y-41631D01*
X70457Y-41667D01*
X70371Y-41900D01*
X70381Y-42148D01*
X70457Y-42332D01*
X70560Y-42368D01*
X70929Y-42000D01*
X70929Y-42141D01*
X70631Y-42439D01*
X70652Y-42500D01*
X69334Y-42500D01*
X69334Y-41825D01*
X69334Y-41612D01*
X69272Y-41550D01*
X68800Y-41550D01*
X68800Y-41963D01*
X68862Y-42025D01*
X69035Y-42025D01*
X69134Y-42025D01*
X69226Y-41987D01*
X69296Y-41917D01*
X69334Y-41825D01*
X69334Y-42500D01*
X68250Y-42500D01*
X68250Y-41963D01*
X68273Y-41987D01*
X68365Y-42025D01*
X68464Y-42025D01*
X68637Y-42025D01*
X68700Y-41963D01*
X68700Y-41550D01*
X68692Y-41550D01*
X68692Y-41450D01*
X68700Y-41450D01*
X68700Y-41442D01*
X68800Y-41442D01*
X68800Y-41450D01*
X69272Y-41450D01*
X69334Y-41387D01*
X69334Y-41174D01*
X69296Y-41082D01*
X69258Y-41044D01*
X69293Y-41030D01*
X69378Y-40945D01*
X69423Y-40835D01*
X69424Y-40716D01*
X69424Y-40164D01*
X69378Y-40054D01*
X69323Y-39999D01*
X69378Y-39945D01*
X69423Y-39835D01*
X69424Y-39716D01*
X69424Y-39164D01*
X69378Y-39054D01*
X69323Y-38999D01*
X69378Y-38945D01*
X69423Y-38835D01*
X69424Y-38716D01*
X69424Y-38164D01*
X69378Y-38054D01*
X69323Y-37999D01*
X69378Y-37945D01*
X69423Y-37835D01*
X69424Y-37716D01*
X69424Y-37164D01*
X69378Y-37054D01*
X69323Y-36999D01*
X69378Y-36945D01*
X69423Y-36835D01*
X69424Y-36716D01*
X69424Y-36164D01*
X69400Y-36107D01*
X69500Y-36207D01*
X69500Y-40499D01*
X69499Y-40500D01*
X69538Y-40691D01*
X69646Y-40853D01*
X70146Y-41353D01*
X70146Y-41353D01*
X70308Y-41461D01*
X70500Y-41500D01*
X70652Y-41500D01*
X70631Y-41560D01*
X71000Y-41929D01*
X71368Y-41560D01*
X71347Y-41500D01*
X71499Y-41500D01*
X71500Y-41500D01*
X71500Y-41500D01*
X71691Y-41461D01*
X71853Y-41353D01*
X73339Y-39867D01*
X73371Y-39945D01*
X73455Y-40029D01*
X73566Y-40075D01*
X73685Y-40075D01*
X74396Y-40075D01*
X74022Y-40450D01*
X73653Y-40450D01*
X73632Y-40428D01*
X73384Y-40326D01*
X73116Y-40325D01*
X72868Y-40428D01*
X72678Y-40617D01*
X72576Y-40865D01*
X72575Y-41133D01*
X72678Y-41381D01*
X72867Y-41571D01*
X73115Y-41673D01*
X73383Y-41674D01*
X73631Y-41571D01*
X73653Y-41550D01*
X74250Y-41550D01*
X74460Y-41508D01*
X74638Y-41388D01*
X75500Y-40527D01*
X75500Y-41792D01*
G54D10*
G36*
X81200Y-43450D02*
X81065Y-43450D01*
X81065Y-39850D01*
X81065Y-37850D01*
X81020Y-37620D01*
X80889Y-37425D01*
X80776Y-37350D01*
X80889Y-37274D01*
X81020Y-37079D01*
X81065Y-36850D01*
X81020Y-36620D01*
X80889Y-36425D01*
X80776Y-36350D01*
X80889Y-36274D01*
X81020Y-36079D01*
X81065Y-35850D01*
X81020Y-35620D01*
X80889Y-35425D01*
X80776Y-35350D01*
X80889Y-35274D01*
X81020Y-35079D01*
X81065Y-34850D01*
X81020Y-34620D01*
X80889Y-34425D01*
X80776Y-34350D01*
X80889Y-34274D01*
X81020Y-34079D01*
X81065Y-33850D01*
X81020Y-33620D01*
X80889Y-33425D01*
X80776Y-33350D01*
X80889Y-33274D01*
X81020Y-33079D01*
X81065Y-32850D01*
X81065Y-31250D01*
X81020Y-31020D01*
X80889Y-30825D01*
X80776Y-30750D01*
X80889Y-30674D01*
X81020Y-30479D01*
X81065Y-30250D01*
X81020Y-30020D01*
X80889Y-29825D01*
X80776Y-29750D01*
X80889Y-29674D01*
X81020Y-29479D01*
X81065Y-29250D01*
X81020Y-29020D01*
X80889Y-28825D01*
X80776Y-28750D01*
X80889Y-28674D01*
X81020Y-28479D01*
X81065Y-28250D01*
X81020Y-28020D01*
X80889Y-27825D01*
X80776Y-27750D01*
X80889Y-27674D01*
X81020Y-27479D01*
X81065Y-27250D01*
X81020Y-27020D01*
X80889Y-26825D01*
X80776Y-26750D01*
X80889Y-26674D01*
X81020Y-26479D01*
X81065Y-26250D01*
X81020Y-26020D01*
X80889Y-25825D01*
X80776Y-25750D01*
X80889Y-25674D01*
X81020Y-25479D01*
X81065Y-25250D01*
X81020Y-25020D01*
X80889Y-24825D01*
X80776Y-24750D01*
X80889Y-24674D01*
X81020Y-24479D01*
X81065Y-24250D01*
X81020Y-24020D01*
X80889Y-23825D01*
X80695Y-23695D01*
X80465Y-23650D01*
X80034Y-23650D01*
X79804Y-23695D01*
X79610Y-23825D01*
X79479Y-24020D01*
X79434Y-24250D01*
X79479Y-24479D01*
X79610Y-24674D01*
X79723Y-24750D01*
X79610Y-24825D01*
X79479Y-25020D01*
X79434Y-25250D01*
X79479Y-25479D01*
X79610Y-25674D01*
X79723Y-25750D01*
X79610Y-25825D01*
X79479Y-26020D01*
X79434Y-26250D01*
X79479Y-26479D01*
X79610Y-26674D01*
X79723Y-26750D01*
X79610Y-26825D01*
X79479Y-27020D01*
X79434Y-27250D01*
X79479Y-27479D01*
X79610Y-27674D01*
X79723Y-27750D01*
X79610Y-27825D01*
X79479Y-28020D01*
X79434Y-28250D01*
X79479Y-28479D01*
X79610Y-28674D01*
X79723Y-28750D01*
X79610Y-28825D01*
X79479Y-29020D01*
X79434Y-29250D01*
X79479Y-29479D01*
X79610Y-29674D01*
X79723Y-29750D01*
X79610Y-29825D01*
X79479Y-30020D01*
X79434Y-30250D01*
X79479Y-30479D01*
X79610Y-30674D01*
X79723Y-30750D01*
X78219Y-30750D01*
X78219Y-30749D01*
X78337Y-30631D01*
X78443Y-30376D01*
X78443Y-30100D01*
X78338Y-29845D01*
X78250Y-29757D01*
X78250Y-29175D01*
X78304Y-29121D01*
X78404Y-28880D01*
X78404Y-28620D01*
X78358Y-28510D01*
X78358Y-24844D01*
X78348Y-24604D01*
X78276Y-24429D01*
X78175Y-24395D01*
X78104Y-24466D01*
X78104Y-24324D01*
X78070Y-24223D01*
X77844Y-24141D01*
X77604Y-24151D01*
X77429Y-24223D01*
X77395Y-24324D01*
X77750Y-24679D01*
X78104Y-24324D01*
X78104Y-24466D01*
X77820Y-24750D01*
X78175Y-25104D01*
X78276Y-25070D01*
X78358Y-24844D01*
X78358Y-28510D01*
X78305Y-28379D01*
X78121Y-28195D01*
X78104Y-28188D01*
X78104Y-25175D01*
X77750Y-24820D01*
X77679Y-24891D01*
X77679Y-24750D01*
X77324Y-24395D01*
X77223Y-24429D01*
X77141Y-24655D01*
X77151Y-24895D01*
X77223Y-25070D01*
X77324Y-25104D01*
X77679Y-24750D01*
X77679Y-24891D01*
X77395Y-25175D01*
X77429Y-25276D01*
X77655Y-25358D01*
X77895Y-25348D01*
X78070Y-25276D01*
X78104Y-25175D01*
X78104Y-28188D01*
X77880Y-28095D01*
X77620Y-28095D01*
X77379Y-28194D01*
X77195Y-28378D01*
X77095Y-28619D01*
X77095Y-28879D01*
X77194Y-29120D01*
X77250Y-29175D01*
X77250Y-29757D01*
X77162Y-29844D01*
X77056Y-30099D01*
X77056Y-30375D01*
X77161Y-30630D01*
X77280Y-30750D01*
X77162Y-30868D01*
X77056Y-31123D01*
X77056Y-31399D01*
X77161Y-31654D01*
X77356Y-31849D01*
X77611Y-31955D01*
X77887Y-31955D01*
X78142Y-31850D01*
X78242Y-31750D01*
X79723Y-31750D01*
X79804Y-31804D01*
X80034Y-31850D01*
X80465Y-31850D01*
X80695Y-31804D01*
X80889Y-31674D01*
X81020Y-31479D01*
X81065Y-31250D01*
X81065Y-32850D01*
X81020Y-32620D01*
X80889Y-32425D01*
X80695Y-32295D01*
X80465Y-32250D01*
X80034Y-32250D01*
X79804Y-32295D01*
X79723Y-32350D01*
X76807Y-32350D01*
X76250Y-31792D01*
X76250Y-31742D01*
X76337Y-31655D01*
X76443Y-31400D01*
X76443Y-31124D01*
X76338Y-30869D01*
X76219Y-30749D01*
X76337Y-30631D01*
X76443Y-30376D01*
X76443Y-30100D01*
X76338Y-29845D01*
X76250Y-29757D01*
X76250Y-29175D01*
X76304Y-29121D01*
X76404Y-28880D01*
X76404Y-28620D01*
X76358Y-28510D01*
X76358Y-24844D01*
X76348Y-24604D01*
X76276Y-24429D01*
X76175Y-24395D01*
X76104Y-24466D01*
X76104Y-24324D01*
X76070Y-24223D01*
X75844Y-24141D01*
X75604Y-24151D01*
X75429Y-24223D01*
X75395Y-24324D01*
X75750Y-24679D01*
X76104Y-24324D01*
X76104Y-24466D01*
X75820Y-24750D01*
X76175Y-25104D01*
X76276Y-25070D01*
X76358Y-24844D01*
X76358Y-28510D01*
X76305Y-28379D01*
X76121Y-28195D01*
X76104Y-28188D01*
X76104Y-25175D01*
X75750Y-24820D01*
X75679Y-24891D01*
X75679Y-24750D01*
X75324Y-24395D01*
X75223Y-24429D01*
X75141Y-24655D01*
X75151Y-24895D01*
X75223Y-25070D01*
X75324Y-25104D01*
X75679Y-24750D01*
X75679Y-24891D01*
X75395Y-25175D01*
X75429Y-25276D01*
X75655Y-25358D01*
X75895Y-25348D01*
X76070Y-25276D01*
X76104Y-25175D01*
X76104Y-28188D01*
X75880Y-28095D01*
X75620Y-28095D01*
X75379Y-28194D01*
X75195Y-28378D01*
X75095Y-28619D01*
X75095Y-28879D01*
X75194Y-29120D01*
X75250Y-29175D01*
X75250Y-29757D01*
X75162Y-29844D01*
X75056Y-30099D01*
X75056Y-30375D01*
X75161Y-30630D01*
X75280Y-30750D01*
X75162Y-30868D01*
X75056Y-31123D01*
X75056Y-31399D01*
X75161Y-31654D01*
X75250Y-31742D01*
X75250Y-31999D01*
X75249Y-31999D01*
X75249Y-32000D01*
X74457Y-32000D01*
X74250Y-31792D01*
X74250Y-31642D01*
X74287Y-31605D01*
X74393Y-31350D01*
X74393Y-31074D01*
X74288Y-30819D01*
X74169Y-30699D01*
X74287Y-30581D01*
X74393Y-30326D01*
X74393Y-30050D01*
X74288Y-29795D01*
X74250Y-29757D01*
X74250Y-29175D01*
X74304Y-29121D01*
X74404Y-28880D01*
X74404Y-28620D01*
X74358Y-28510D01*
X74358Y-24844D01*
X74348Y-24604D01*
X74276Y-24429D01*
X74175Y-24395D01*
X74104Y-24466D01*
X74104Y-24324D01*
X74070Y-24223D01*
X73844Y-24141D01*
X73604Y-24151D01*
X73429Y-24223D01*
X73395Y-24324D01*
X73750Y-24679D01*
X74104Y-24324D01*
X74104Y-24466D01*
X73820Y-24750D01*
X74175Y-25104D01*
X74276Y-25070D01*
X74358Y-24844D01*
X74358Y-28510D01*
X74305Y-28379D01*
X74121Y-28195D01*
X74104Y-28188D01*
X74104Y-25175D01*
X73750Y-24820D01*
X73679Y-24891D01*
X73679Y-24750D01*
X73324Y-24395D01*
X73223Y-24429D01*
X73141Y-24655D01*
X73151Y-24895D01*
X73223Y-25070D01*
X73324Y-25104D01*
X73679Y-24750D01*
X73679Y-24891D01*
X73395Y-25175D01*
X73429Y-25276D01*
X73655Y-25358D01*
X73895Y-25348D01*
X74070Y-25276D01*
X74104Y-25175D01*
X74104Y-28188D01*
X73880Y-28095D01*
X73620Y-28095D01*
X73379Y-28194D01*
X73195Y-28378D01*
X73095Y-28619D01*
X73095Y-28879D01*
X73194Y-29120D01*
X73250Y-29175D01*
X73250Y-29657D01*
X73112Y-29794D01*
X73006Y-30049D01*
X73006Y-30325D01*
X73111Y-30580D01*
X73230Y-30700D01*
X73112Y-30818D01*
X73006Y-31073D01*
X73006Y-31349D01*
X73111Y-31604D01*
X73250Y-31742D01*
X73250Y-31999D01*
X73249Y-32000D01*
X73288Y-32191D01*
X73378Y-32326D01*
X73116Y-32325D01*
X72868Y-32428D01*
X72796Y-32500D01*
X71878Y-32500D01*
X71878Y-32099D01*
X71868Y-31851D01*
X71792Y-31667D01*
X71689Y-31631D01*
X71618Y-31701D01*
X71618Y-31560D01*
X71582Y-31457D01*
X71349Y-31371D01*
X71101Y-31381D01*
X70917Y-31457D01*
X70881Y-31560D01*
X71250Y-31929D01*
X71618Y-31560D01*
X71618Y-31701D01*
X71320Y-32000D01*
X71689Y-32368D01*
X71792Y-32332D01*
X71878Y-32099D01*
X71878Y-32500D01*
X71597Y-32500D01*
X71618Y-32439D01*
X71250Y-32070D01*
X71179Y-32141D01*
X71179Y-32000D01*
X70810Y-31631D01*
X70707Y-31667D01*
X70621Y-31900D01*
X70631Y-32148D01*
X70707Y-32332D01*
X70810Y-32368D01*
X71179Y-32000D01*
X71179Y-32141D01*
X70881Y-32439D01*
X70902Y-32500D01*
X65500Y-32500D01*
X65308Y-32538D01*
X65146Y-32646D01*
X65146Y-32646D01*
X64300Y-33492D01*
X64300Y-33227D01*
X65727Y-31800D01*
X67250Y-31800D01*
X69681Y-31800D01*
X69874Y-31879D01*
X70124Y-31880D01*
X70356Y-31784D01*
X70533Y-31607D01*
X70629Y-31375D01*
X70630Y-31125D01*
X70534Y-30893D01*
X70390Y-30749D01*
X70533Y-30607D01*
X70629Y-30375D01*
X70630Y-30125D01*
X70534Y-29893D01*
X70500Y-29859D01*
X70500Y-29175D01*
X70554Y-29121D01*
X70654Y-28880D01*
X70654Y-28620D01*
X70555Y-28379D01*
X70371Y-28195D01*
X70130Y-28095D01*
X69870Y-28095D01*
X69629Y-28194D01*
X69445Y-28378D01*
X69345Y-28619D01*
X69345Y-28879D01*
X69444Y-29120D01*
X69500Y-29175D01*
X69500Y-29858D01*
X69466Y-29892D01*
X69370Y-30124D01*
X69369Y-30374D01*
X69465Y-30606D01*
X69559Y-30700D01*
X68577Y-30700D01*
X68888Y-30388D01*
X69008Y-30210D01*
X69050Y-30000D01*
X69050Y-27750D01*
X69008Y-27539D01*
X68888Y-27361D01*
X68888Y-27361D01*
X68638Y-27111D01*
X68547Y-27050D01*
X70772Y-27050D01*
X71450Y-27727D01*
X71450Y-28374D01*
X71445Y-28378D01*
X71345Y-28619D01*
X71345Y-28879D01*
X71444Y-29120D01*
X71628Y-29304D01*
X71869Y-29404D01*
X72129Y-29404D01*
X72370Y-29305D01*
X72554Y-29121D01*
X72654Y-28880D01*
X72654Y-28620D01*
X72608Y-28510D01*
X72608Y-24844D01*
X72598Y-24604D01*
X72526Y-24429D01*
X72425Y-24395D01*
X72354Y-24466D01*
X72354Y-24324D01*
X72320Y-24223D01*
X72094Y-24141D01*
X71854Y-24151D01*
X71679Y-24223D01*
X71645Y-24324D01*
X72000Y-24679D01*
X72354Y-24324D01*
X72354Y-24466D01*
X72070Y-24750D01*
X72425Y-25104D01*
X72526Y-25070D01*
X72608Y-24844D01*
X72608Y-28510D01*
X72555Y-28379D01*
X72550Y-28374D01*
X72550Y-27500D01*
X72508Y-27289D01*
X72388Y-27111D01*
X72354Y-27076D01*
X72354Y-25175D01*
X72000Y-24820D01*
X71929Y-24891D01*
X71929Y-24750D01*
X71574Y-24395D01*
X71473Y-24429D01*
X71391Y-24655D01*
X71401Y-24895D01*
X71473Y-25070D01*
X71574Y-25104D01*
X71929Y-24750D01*
X71929Y-24891D01*
X71645Y-25175D01*
X71679Y-25276D01*
X71905Y-25358D01*
X72145Y-25348D01*
X72320Y-25276D01*
X72354Y-25175D01*
X72354Y-27076D01*
X71388Y-26111D01*
X71210Y-25991D01*
X71000Y-25950D01*
X70608Y-25950D01*
X70608Y-24844D01*
X70598Y-24604D01*
X70526Y-24429D01*
X70425Y-24395D01*
X70354Y-24466D01*
X70354Y-24324D01*
X70320Y-24223D01*
X70094Y-24141D01*
X69854Y-24151D01*
X69679Y-24223D01*
X69645Y-24324D01*
X70000Y-24679D01*
X70354Y-24324D01*
X70354Y-24466D01*
X70070Y-24750D01*
X70425Y-25104D01*
X70526Y-25070D01*
X70608Y-24844D01*
X70608Y-25950D01*
X70354Y-25950D01*
X70354Y-25175D01*
X70000Y-24820D01*
X69929Y-24891D01*
X69929Y-24750D01*
X69574Y-24395D01*
X69473Y-24429D01*
X69391Y-24655D01*
X69401Y-24895D01*
X69473Y-25070D01*
X69574Y-25104D01*
X69929Y-24750D01*
X69929Y-24891D01*
X69645Y-25175D01*
X69679Y-25276D01*
X69905Y-25358D01*
X70145Y-25348D01*
X70320Y-25276D01*
X70354Y-25175D01*
X70354Y-25950D01*
X66429Y-25950D01*
X66214Y-25860D01*
X65975Y-25860D01*
X65854Y-25910D01*
X65145Y-25910D01*
X65025Y-25860D01*
X64786Y-25860D01*
X64566Y-25951D01*
X64397Y-26120D01*
X64305Y-26340D01*
X64305Y-26579D01*
X64396Y-26800D01*
X64556Y-26960D01*
X64397Y-27120D01*
X64305Y-27340D01*
X64305Y-27579D01*
X64396Y-27800D01*
X64483Y-27886D01*
X64435Y-27906D01*
X64391Y-27950D01*
X63000Y-27950D01*
X62789Y-27991D01*
X62611Y-28111D01*
X62361Y-28361D01*
X62241Y-28539D01*
X62200Y-28750D01*
X62200Y-33700D01*
X62065Y-33700D01*
X62065Y-31250D01*
X62065Y-29250D01*
X62020Y-29020D01*
X61889Y-28825D01*
X61776Y-28750D01*
X61889Y-28674D01*
X62020Y-28479D01*
X62065Y-28250D01*
X62020Y-28020D01*
X61889Y-27825D01*
X61776Y-27750D01*
X61889Y-27674D01*
X62020Y-27479D01*
X62065Y-27250D01*
X62020Y-27020D01*
X61889Y-26825D01*
X61776Y-26750D01*
X61889Y-26674D01*
X62020Y-26479D01*
X62065Y-26250D01*
X62020Y-26020D01*
X61889Y-25825D01*
X61776Y-25750D01*
X61889Y-25674D01*
X62020Y-25479D01*
X62065Y-25250D01*
X62020Y-25020D01*
X61889Y-24825D01*
X61776Y-24750D01*
X61889Y-24674D01*
X62020Y-24479D01*
X62065Y-24250D01*
X62020Y-24020D01*
X61889Y-23825D01*
X61695Y-23695D01*
X61465Y-23650D01*
X61034Y-23650D01*
X60804Y-23695D01*
X60610Y-23825D01*
X60479Y-24020D01*
X60434Y-24250D01*
X60479Y-24479D01*
X60610Y-24674D01*
X60723Y-24750D01*
X60610Y-24825D01*
X60479Y-25020D01*
X60434Y-25250D01*
X60479Y-25479D01*
X60610Y-25674D01*
X60723Y-25750D01*
X60610Y-25825D01*
X60479Y-26020D01*
X60434Y-26250D01*
X60479Y-26479D01*
X60610Y-26674D01*
X60723Y-26750D01*
X60610Y-26825D01*
X60479Y-27020D01*
X60434Y-27250D01*
X60479Y-27479D01*
X60610Y-27674D01*
X60723Y-27750D01*
X60610Y-27825D01*
X60479Y-28020D01*
X60434Y-28250D01*
X60479Y-28479D01*
X60610Y-28674D01*
X60723Y-28750D01*
X60610Y-28825D01*
X60479Y-29020D01*
X60434Y-29250D01*
X60479Y-29479D01*
X60610Y-29674D01*
X60804Y-29804D01*
X61034Y-29850D01*
X61465Y-29850D01*
X61695Y-29804D01*
X61889Y-29674D01*
X62020Y-29479D01*
X62065Y-29250D01*
X62065Y-31250D01*
X62020Y-31020D01*
X61889Y-30825D01*
X61695Y-30695D01*
X61465Y-30650D01*
X61034Y-30650D01*
X60804Y-30695D01*
X60610Y-30825D01*
X60479Y-31020D01*
X60434Y-31250D01*
X60479Y-31479D01*
X60610Y-31674D01*
X60769Y-31780D01*
X60625Y-31896D01*
X60522Y-32085D01*
X60516Y-32114D01*
X60565Y-32200D01*
X61200Y-32200D01*
X61200Y-32192D01*
X61300Y-32192D01*
X61300Y-32200D01*
X61934Y-32200D01*
X61983Y-32114D01*
X61977Y-32085D01*
X61874Y-31896D01*
X61730Y-31780D01*
X61889Y-31674D01*
X62020Y-31479D01*
X62065Y-31250D01*
X62065Y-33700D01*
X61754Y-33700D01*
X61874Y-33603D01*
X61977Y-33414D01*
X61983Y-33385D01*
X61983Y-33114D01*
X61977Y-33085D01*
X61874Y-32896D01*
X61706Y-32761D01*
X61669Y-32750D01*
X61706Y-32738D01*
X61874Y-32603D01*
X61977Y-32414D01*
X61983Y-32385D01*
X61934Y-32300D01*
X61300Y-32300D01*
X61300Y-32700D01*
X61300Y-32800D01*
X61300Y-33200D01*
X61934Y-33200D01*
X61983Y-33114D01*
X61983Y-33385D01*
X61934Y-33300D01*
X61300Y-33300D01*
X61300Y-33307D01*
X61200Y-33307D01*
X61200Y-33300D01*
X61200Y-33200D01*
X61200Y-32800D01*
X61200Y-32700D01*
X61200Y-32300D01*
X60565Y-32300D01*
X60516Y-32385D01*
X60522Y-32414D01*
X60625Y-32603D01*
X60793Y-32738D01*
X60830Y-32750D01*
X60793Y-32761D01*
X60625Y-32896D01*
X60522Y-33085D01*
X60516Y-33114D01*
X60565Y-33200D01*
X61200Y-33200D01*
X61200Y-33300D01*
X60565Y-33300D01*
X60516Y-33385D01*
X60522Y-33414D01*
X60625Y-33603D01*
X60769Y-33719D01*
X60610Y-33825D01*
X60479Y-34020D01*
X60434Y-34250D01*
X60479Y-34479D01*
X60610Y-34674D01*
X60723Y-34750D01*
X60610Y-34825D01*
X60479Y-35020D01*
X60434Y-35250D01*
X60479Y-35479D01*
X60610Y-35674D01*
X60723Y-35750D01*
X60610Y-35825D01*
X60479Y-36020D01*
X60434Y-36250D01*
X60479Y-36479D01*
X60610Y-36674D01*
X60750Y-36767D01*
X60750Y-37546D01*
X60678Y-37617D01*
X60576Y-37865D01*
X60575Y-38133D01*
X60678Y-38381D01*
X60796Y-38500D01*
X60678Y-38617D01*
X60576Y-38865D01*
X60575Y-39133D01*
X60678Y-39381D01*
X60750Y-39453D01*
X60750Y-40296D01*
X60678Y-40367D01*
X60576Y-40615D01*
X60575Y-40883D01*
X60678Y-41131D01*
X60867Y-41321D01*
X60935Y-41349D01*
X61250Y-41663D01*
X61563Y-41349D01*
X61631Y-41321D01*
X61821Y-41132D01*
X61923Y-40884D01*
X61924Y-40616D01*
X61821Y-40368D01*
X61750Y-40296D01*
X61750Y-39453D01*
X61821Y-39382D01*
X61923Y-39134D01*
X61924Y-38866D01*
X61821Y-38618D01*
X61703Y-38499D01*
X61821Y-38382D01*
X61923Y-38134D01*
X61924Y-37866D01*
X61821Y-37618D01*
X61750Y-37546D01*
X61750Y-36767D01*
X61889Y-36674D01*
X62020Y-36479D01*
X62065Y-36250D01*
X62020Y-36020D01*
X61889Y-35825D01*
X61776Y-35750D01*
X61889Y-35674D01*
X62020Y-35479D01*
X62065Y-35250D01*
X62020Y-35020D01*
X61889Y-34825D01*
X61851Y-34800D01*
X62500Y-34800D01*
X62710Y-34758D01*
X62888Y-34638D01*
X63138Y-34388D01*
X63138Y-34388D01*
X63200Y-34297D01*
X63200Y-41000D01*
X63200Y-42750D01*
X63241Y-42960D01*
X63361Y-43138D01*
X64111Y-43888D01*
X64111Y-43888D01*
X64182Y-43936D01*
X64289Y-44008D01*
X64499Y-44049D01*
X64500Y-44050D01*
X66272Y-44050D01*
X66861Y-44638D01*
X66861Y-44638D01*
X66932Y-44686D01*
X67039Y-44758D01*
X67249Y-44799D01*
X67250Y-44800D01*
X72846Y-44800D01*
X72867Y-44821D01*
X73115Y-44923D01*
X73383Y-44924D01*
X73631Y-44821D01*
X73821Y-44632D01*
X73923Y-44384D01*
X73924Y-44116D01*
X73821Y-43868D01*
X73632Y-43678D01*
X73384Y-43576D01*
X73116Y-43575D01*
X72868Y-43678D01*
X72846Y-43700D01*
X67477Y-43700D01*
X66888Y-43111D01*
X66710Y-42991D01*
X66500Y-42950D01*
X64727Y-42950D01*
X64300Y-42522D01*
X64300Y-42050D01*
X65147Y-42050D01*
X65205Y-42108D01*
X65316Y-42154D01*
X65435Y-42154D01*
X66183Y-42154D01*
X66293Y-42108D01*
X66378Y-42024D01*
X66423Y-41914D01*
X66424Y-41794D01*
X66424Y-41086D01*
X66378Y-40975D01*
X66363Y-40960D01*
X66378Y-40945D01*
X66423Y-40835D01*
X66424Y-40716D01*
X66424Y-40164D01*
X66378Y-40054D01*
X66323Y-39999D01*
X66378Y-39945D01*
X66423Y-39835D01*
X66424Y-39716D01*
X66424Y-39164D01*
X66378Y-39054D01*
X66323Y-39000D01*
X66499Y-39000D01*
X66500Y-39000D01*
X66500Y-39000D01*
X66691Y-38961D01*
X66853Y-38853D01*
X67103Y-38603D01*
X67103Y-38603D01*
X67103Y-38603D01*
X67211Y-38441D01*
X67250Y-38250D01*
X67250Y-42749D01*
X67249Y-42750D01*
X67288Y-42941D01*
X67396Y-43103D01*
X67646Y-43353D01*
X67646Y-43353D01*
X67808Y-43461D01*
X68000Y-43500D01*
X74999Y-43500D01*
X75000Y-43500D01*
X75000Y-43500D01*
X75191Y-43461D01*
X75353Y-43353D01*
X76353Y-42353D01*
X76353Y-42353D01*
X76353Y-42353D01*
X76461Y-42191D01*
X76500Y-42000D01*
X76500Y-39000D01*
X76461Y-38808D01*
X76436Y-38770D01*
X76857Y-38350D01*
X79723Y-38350D01*
X79769Y-38380D01*
X79625Y-38496D01*
X79522Y-38685D01*
X79516Y-38714D01*
X79565Y-38800D01*
X80200Y-38800D01*
X80200Y-38792D01*
X80300Y-38792D01*
X80300Y-38800D01*
X80934Y-38800D01*
X80983Y-38714D01*
X80977Y-38685D01*
X80874Y-38496D01*
X80730Y-38380D01*
X80889Y-38274D01*
X81020Y-38079D01*
X81065Y-37850D01*
X81065Y-39850D01*
X81020Y-39620D01*
X80889Y-39425D01*
X80730Y-39319D01*
X80874Y-39203D01*
X80977Y-39014D01*
X80983Y-38985D01*
X80934Y-38900D01*
X80300Y-38900D01*
X80300Y-38907D01*
X80200Y-38907D01*
X80200Y-38900D01*
X79565Y-38900D01*
X79516Y-38985D01*
X79522Y-39014D01*
X79625Y-39203D01*
X79769Y-39319D01*
X79610Y-39425D01*
X79479Y-39620D01*
X79434Y-39850D01*
X79479Y-40079D01*
X79610Y-40274D01*
X79804Y-40404D01*
X80034Y-40450D01*
X80465Y-40450D01*
X80695Y-40404D01*
X80889Y-40274D01*
X81020Y-40079D01*
X81065Y-39850D01*
X81065Y-43450D01*
X79500Y-43450D01*
X76700Y-43450D01*
X76700Y-49200D01*
X71628Y-49200D01*
X71628Y-45849D01*
X71618Y-45601D01*
X71542Y-45417D01*
X71439Y-45381D01*
X71368Y-45451D01*
X71368Y-45310D01*
X71332Y-45207D01*
X71099Y-45121D01*
X70851Y-45131D01*
X70667Y-45207D01*
X70631Y-45310D01*
X71000Y-45679D01*
X71368Y-45310D01*
X71368Y-45451D01*
X71070Y-45750D01*
X71439Y-46118D01*
X71542Y-46082D01*
X71628Y-45849D01*
X71628Y-49200D01*
X71368Y-49200D01*
X71368Y-46189D01*
X71000Y-45820D01*
X70929Y-45891D01*
X70929Y-45750D01*
X70560Y-45381D01*
X70457Y-45417D01*
X70371Y-45650D01*
X70381Y-45898D01*
X70457Y-46082D01*
X70560Y-46118D01*
X70929Y-45750D01*
X70929Y-45891D01*
X70631Y-46189D01*
X70667Y-46292D01*
X70900Y-46378D01*
X71148Y-46368D01*
X71332Y-46292D01*
X71368Y-46189D01*
X71368Y-49200D01*
X65250Y-49200D01*
X65050Y-49200D01*
X65050Y-44488D01*
X65043Y-44453D01*
X65023Y-44424D01*
X64994Y-44405D01*
X64960Y-44398D01*
X62204Y-44398D01*
X62170Y-44405D01*
X62141Y-44424D01*
X62122Y-44453D01*
X62115Y-44488D01*
X62115Y-49200D01*
X62000Y-49200D01*
X61878Y-49200D01*
X61878Y-41833D01*
X61868Y-41585D01*
X61792Y-41401D01*
X61689Y-41365D01*
X61320Y-41734D01*
X61689Y-42103D01*
X61792Y-42066D01*
X61878Y-41833D01*
X61878Y-49200D01*
X61618Y-49200D01*
X61618Y-42173D01*
X61250Y-41804D01*
X61179Y-41875D01*
X61179Y-41734D01*
X60810Y-41365D01*
X60707Y-41401D01*
X60621Y-41634D01*
X60631Y-41882D01*
X60707Y-42066D01*
X60810Y-42103D01*
X61179Y-41734D01*
X61179Y-41875D01*
X60881Y-42173D01*
X60917Y-42276D01*
X61150Y-42362D01*
X61398Y-42352D01*
X61582Y-42276D01*
X61618Y-42173D01*
X61618Y-49200D01*
X60300Y-49200D01*
X60300Y-23300D01*
X61270Y-23300D01*
X62270Y-22300D01*
X75229Y-22300D01*
X76229Y-23300D01*
X80729Y-23300D01*
X81200Y-23770D01*
X81200Y-43450D01*
X81200Y-43450D01*
G37*
G54D24*
X81200Y-43450D02*
X81065Y-43450D01*
X81065Y-39850D01*
X81065Y-37850D01*
X81020Y-37620D01*
X80889Y-37425D01*
X80776Y-37350D01*
X80889Y-37274D01*
X81020Y-37079D01*
X81065Y-36850D01*
X81020Y-36620D01*
X80889Y-36425D01*
X80776Y-36350D01*
X80889Y-36274D01*
X81020Y-36079D01*
X81065Y-35850D01*
X81020Y-35620D01*
X80889Y-35425D01*
X80776Y-35350D01*
X80889Y-35274D01*
X81020Y-35079D01*
X81065Y-34850D01*
X81020Y-34620D01*
X80889Y-34425D01*
X80776Y-34350D01*
X80889Y-34274D01*
X81020Y-34079D01*
X81065Y-33850D01*
X81020Y-33620D01*
X80889Y-33425D01*
X80776Y-33350D01*
X80889Y-33274D01*
X81020Y-33079D01*
X81065Y-32850D01*
X81065Y-31250D01*
X81020Y-31020D01*
X80889Y-30825D01*
X80776Y-30750D01*
X80889Y-30674D01*
X81020Y-30479D01*
X81065Y-30250D01*
X81020Y-30020D01*
X80889Y-29825D01*
X80776Y-29750D01*
X80889Y-29674D01*
X81020Y-29479D01*
X81065Y-29250D01*
X81020Y-29020D01*
X80889Y-28825D01*
X80776Y-28750D01*
X80889Y-28674D01*
X81020Y-28479D01*
X81065Y-28250D01*
X81020Y-28020D01*
X80889Y-27825D01*
X80776Y-27750D01*
X80889Y-27674D01*
X81020Y-27479D01*
X81065Y-27250D01*
X81020Y-27020D01*
X80889Y-26825D01*
X80776Y-26750D01*
X80889Y-26674D01*
X81020Y-26479D01*
X81065Y-26250D01*
X81020Y-26020D01*
X80889Y-25825D01*
X80776Y-25750D01*
X80889Y-25674D01*
X81020Y-25479D01*
X81065Y-25250D01*
X81020Y-25020D01*
X80889Y-24825D01*
X80776Y-24750D01*
X80889Y-24674D01*
X81020Y-24479D01*
X81065Y-24250D01*
X81020Y-24020D01*
X80889Y-23825D01*
X80695Y-23695D01*
X80465Y-23650D01*
X80034Y-23650D01*
X79804Y-23695D01*
X79610Y-23825D01*
X79479Y-24020D01*
X79434Y-24250D01*
X79479Y-24479D01*
X79610Y-24674D01*
X79723Y-24750D01*
X79610Y-24825D01*
X79479Y-25020D01*
X79434Y-25250D01*
X79479Y-25479D01*
X79610Y-25674D01*
X79723Y-25750D01*
X79610Y-25825D01*
X79479Y-26020D01*
X79434Y-26250D01*
X79479Y-26479D01*
X79610Y-26674D01*
X79723Y-26750D01*
X79610Y-26825D01*
X79479Y-27020D01*
X79434Y-27250D01*
X79479Y-27479D01*
X79610Y-27674D01*
X79723Y-27750D01*
X79610Y-27825D01*
X79479Y-28020D01*
X79434Y-28250D01*
X79479Y-28479D01*
X79610Y-28674D01*
X79723Y-28750D01*
X79610Y-28825D01*
X79479Y-29020D01*
X79434Y-29250D01*
X79479Y-29479D01*
X79610Y-29674D01*
X79723Y-29750D01*
X79610Y-29825D01*
X79479Y-30020D01*
X79434Y-30250D01*
X79479Y-30479D01*
X79610Y-30674D01*
X79723Y-30750D01*
X78219Y-30750D01*
X78219Y-30749D01*
X78337Y-30631D01*
X78443Y-30376D01*
X78443Y-30100D01*
X78338Y-29845D01*
X78250Y-29757D01*
X78250Y-29175D01*
X78304Y-29121D01*
X78404Y-28880D01*
X78404Y-28620D01*
X78358Y-28510D01*
X78358Y-24844D01*
X78348Y-24604D01*
X78276Y-24429D01*
X78175Y-24395D01*
X78104Y-24466D01*
X78104Y-24324D01*
X78070Y-24223D01*
X77844Y-24141D01*
X77604Y-24151D01*
X77429Y-24223D01*
X77395Y-24324D01*
X77750Y-24679D01*
X78104Y-24324D01*
X78104Y-24466D01*
X77820Y-24750D01*
X78175Y-25104D01*
X78276Y-25070D01*
X78358Y-24844D01*
X78358Y-28510D01*
X78305Y-28379D01*
X78121Y-28195D01*
X78104Y-28188D01*
X78104Y-25175D01*
X77750Y-24820D01*
X77679Y-24891D01*
X77679Y-24750D01*
X77324Y-24395D01*
X77223Y-24429D01*
X77141Y-24655D01*
X77151Y-24895D01*
X77223Y-25070D01*
X77324Y-25104D01*
X77679Y-24750D01*
X77679Y-24891D01*
X77395Y-25175D01*
X77429Y-25276D01*
X77655Y-25358D01*
X77895Y-25348D01*
X78070Y-25276D01*
X78104Y-25175D01*
X78104Y-28188D01*
X77880Y-28095D01*
X77620Y-28095D01*
X77379Y-28194D01*
X77195Y-28378D01*
X77095Y-28619D01*
X77095Y-28879D01*
X77194Y-29120D01*
X77250Y-29175D01*
X77250Y-29757D01*
X77162Y-29844D01*
X77056Y-30099D01*
X77056Y-30375D01*
X77161Y-30630D01*
X77280Y-30750D01*
X77162Y-30868D01*
X77056Y-31123D01*
X77056Y-31399D01*
X77161Y-31654D01*
X77356Y-31849D01*
X77611Y-31955D01*
X77887Y-31955D01*
X78142Y-31850D01*
X78242Y-31750D01*
X79723Y-31750D01*
X79804Y-31804D01*
X80034Y-31850D01*
X80465Y-31850D01*
X80695Y-31804D01*
X80889Y-31674D01*
X81020Y-31479D01*
X81065Y-31250D01*
X81065Y-32850D01*
X81020Y-32620D01*
X80889Y-32425D01*
X80695Y-32295D01*
X80465Y-32250D01*
X80034Y-32250D01*
X79804Y-32295D01*
X79723Y-32350D01*
X76807Y-32350D01*
X76250Y-31792D01*
X76250Y-31742D01*
X76337Y-31655D01*
X76443Y-31400D01*
X76443Y-31124D01*
X76338Y-30869D01*
X76219Y-30749D01*
X76337Y-30631D01*
X76443Y-30376D01*
X76443Y-30100D01*
X76338Y-29845D01*
X76250Y-29757D01*
X76250Y-29175D01*
X76304Y-29121D01*
X76404Y-28880D01*
X76404Y-28620D01*
X76358Y-28510D01*
X76358Y-24844D01*
X76348Y-24604D01*
X76276Y-24429D01*
X76175Y-24395D01*
X76104Y-24466D01*
X76104Y-24324D01*
X76070Y-24223D01*
X75844Y-24141D01*
X75604Y-24151D01*
X75429Y-24223D01*
X75395Y-24324D01*
X75750Y-24679D01*
X76104Y-24324D01*
X76104Y-24466D01*
X75820Y-24750D01*
X76175Y-25104D01*
X76276Y-25070D01*
X76358Y-24844D01*
X76358Y-28510D01*
X76305Y-28379D01*
X76121Y-28195D01*
X76104Y-28188D01*
X76104Y-25175D01*
X75750Y-24820D01*
X75679Y-24891D01*
X75679Y-24750D01*
X75324Y-24395D01*
X75223Y-24429D01*
X75141Y-24655D01*
X75151Y-24895D01*
X75223Y-25070D01*
X75324Y-25104D01*
X75679Y-24750D01*
X75679Y-24891D01*
X75395Y-25175D01*
X75429Y-25276D01*
X75655Y-25358D01*
X75895Y-25348D01*
X76070Y-25276D01*
X76104Y-25175D01*
X76104Y-28188D01*
X75880Y-28095D01*
X75620Y-28095D01*
X75379Y-28194D01*
X75195Y-28378D01*
X75095Y-28619D01*
X75095Y-28879D01*
X75194Y-29120D01*
X75250Y-29175D01*
X75250Y-29757D01*
X75162Y-29844D01*
X75056Y-30099D01*
X75056Y-30375D01*
X75161Y-30630D01*
X75280Y-30750D01*
X75162Y-30868D01*
X75056Y-31123D01*
X75056Y-31399D01*
X75161Y-31654D01*
X75250Y-31742D01*
X75250Y-31999D01*
X75249Y-31999D01*
X75249Y-32000D01*
X74457Y-32000D01*
X74250Y-31792D01*
X74250Y-31642D01*
X74287Y-31605D01*
X74393Y-31350D01*
X74393Y-31074D01*
X74288Y-30819D01*
X74169Y-30699D01*
X74287Y-30581D01*
X74393Y-30326D01*
X74393Y-30050D01*
X74288Y-29795D01*
X74250Y-29757D01*
X74250Y-29175D01*
X74304Y-29121D01*
X74404Y-28880D01*
X74404Y-28620D01*
X74358Y-28510D01*
X74358Y-24844D01*
X74348Y-24604D01*
X74276Y-24429D01*
X74175Y-24395D01*
X74104Y-24466D01*
X74104Y-24324D01*
X74070Y-24223D01*
X73844Y-24141D01*
X73604Y-24151D01*
X73429Y-24223D01*
X73395Y-24324D01*
X73750Y-24679D01*
X74104Y-24324D01*
X74104Y-24466D01*
X73820Y-24750D01*
X74175Y-25104D01*
X74276Y-25070D01*
X74358Y-24844D01*
X74358Y-28510D01*
X74305Y-28379D01*
X74121Y-28195D01*
X74104Y-28188D01*
X74104Y-25175D01*
X73750Y-24820D01*
X73679Y-24891D01*
X73679Y-24750D01*
X73324Y-24395D01*
X73223Y-24429D01*
X73141Y-24655D01*
X73151Y-24895D01*
X73223Y-25070D01*
X73324Y-25104D01*
X73679Y-24750D01*
X73679Y-24891D01*
X73395Y-25175D01*
X73429Y-25276D01*
X73655Y-25358D01*
X73895Y-25348D01*
X74070Y-25276D01*
X74104Y-25175D01*
X74104Y-28188D01*
X73880Y-28095D01*
X73620Y-28095D01*
X73379Y-28194D01*
X73195Y-28378D01*
X73095Y-28619D01*
X73095Y-28879D01*
X73194Y-29120D01*
X73250Y-29175D01*
X73250Y-29657D01*
X73112Y-29794D01*
X73006Y-30049D01*
X73006Y-30325D01*
X73111Y-30580D01*
X73230Y-30700D01*
X73112Y-30818D01*
X73006Y-31073D01*
X73006Y-31349D01*
X73111Y-31604D01*
X73250Y-31742D01*
X73250Y-31999D01*
X73249Y-32000D01*
X73288Y-32191D01*
X73378Y-32326D01*
X73116Y-32325D01*
X72868Y-32428D01*
X72796Y-32500D01*
X71878Y-32500D01*
X71878Y-32099D01*
X71868Y-31851D01*
X71792Y-31667D01*
X71689Y-31631D01*
X71618Y-31701D01*
X71618Y-31560D01*
X71582Y-31457D01*
X71349Y-31371D01*
X71101Y-31381D01*
X70917Y-31457D01*
X70881Y-31560D01*
X71250Y-31929D01*
X71618Y-31560D01*
X71618Y-31701D01*
X71320Y-32000D01*
X71689Y-32368D01*
X71792Y-32332D01*
X71878Y-32099D01*
X71878Y-32500D01*
X71597Y-32500D01*
X71618Y-32439D01*
X71250Y-32070D01*
X71179Y-32141D01*
X71179Y-32000D01*
X70810Y-31631D01*
X70707Y-31667D01*
X70621Y-31900D01*
X70631Y-32148D01*
X70707Y-32332D01*
X70810Y-32368D01*
X71179Y-32000D01*
X71179Y-32141D01*
X70881Y-32439D01*
X70902Y-32500D01*
X65500Y-32500D01*
X65308Y-32538D01*
X65146Y-32646D01*
X65146Y-32646D01*
X64300Y-33492D01*
X64300Y-33227D01*
X65727Y-31800D01*
X67250Y-31800D01*
X69681Y-31800D01*
X69874Y-31879D01*
X70124Y-31880D01*
X70356Y-31784D01*
X70533Y-31607D01*
X70629Y-31375D01*
X70630Y-31125D01*
X70534Y-30893D01*
X70390Y-30749D01*
X70533Y-30607D01*
X70629Y-30375D01*
X70630Y-30125D01*
X70534Y-29893D01*
X70500Y-29859D01*
X70500Y-29175D01*
X70554Y-29121D01*
X70654Y-28880D01*
X70654Y-28620D01*
X70555Y-28379D01*
X70371Y-28195D01*
X70130Y-28095D01*
X69870Y-28095D01*
X69629Y-28194D01*
X69445Y-28378D01*
X69345Y-28619D01*
X69345Y-28879D01*
X69444Y-29120D01*
X69500Y-29175D01*
X69500Y-29858D01*
X69466Y-29892D01*
X69370Y-30124D01*
X69369Y-30374D01*
X69465Y-30606D01*
X69559Y-30700D01*
X68577Y-30700D01*
X68888Y-30388D01*
X69008Y-30210D01*
X69050Y-30000D01*
X69050Y-27750D01*
X69008Y-27539D01*
X68888Y-27361D01*
X68888Y-27361D01*
X68638Y-27111D01*
X68547Y-27050D01*
X70772Y-27050D01*
X71450Y-27727D01*
X71450Y-28374D01*
X71445Y-28378D01*
X71345Y-28619D01*
X71345Y-28879D01*
X71444Y-29120D01*
X71628Y-29304D01*
X71869Y-29404D01*
X72129Y-29404D01*
X72370Y-29305D01*
X72554Y-29121D01*
X72654Y-28880D01*
X72654Y-28620D01*
X72608Y-28510D01*
X72608Y-24844D01*
X72598Y-24604D01*
X72526Y-24429D01*
X72425Y-24395D01*
X72354Y-24466D01*
X72354Y-24324D01*
X72320Y-24223D01*
X72094Y-24141D01*
X71854Y-24151D01*
X71679Y-24223D01*
X71645Y-24324D01*
X72000Y-24679D01*
X72354Y-24324D01*
X72354Y-24466D01*
X72070Y-24750D01*
X72425Y-25104D01*
X72526Y-25070D01*
X72608Y-24844D01*
X72608Y-28510D01*
X72555Y-28379D01*
X72550Y-28374D01*
X72550Y-27500D01*
X72508Y-27289D01*
X72388Y-27111D01*
X72354Y-27076D01*
X72354Y-25175D01*
X72000Y-24820D01*
X71929Y-24891D01*
X71929Y-24750D01*
X71574Y-24395D01*
X71473Y-24429D01*
X71391Y-24655D01*
X71401Y-24895D01*
X71473Y-25070D01*
X71574Y-25104D01*
X71929Y-24750D01*
X71929Y-24891D01*
X71645Y-25175D01*
X71679Y-25276D01*
X71905Y-25358D01*
X72145Y-25348D01*
X72320Y-25276D01*
X72354Y-25175D01*
X72354Y-27076D01*
X71388Y-26111D01*
X71210Y-25991D01*
X71000Y-25950D01*
X70608Y-25950D01*
X70608Y-24844D01*
X70598Y-24604D01*
X70526Y-24429D01*
X70425Y-24395D01*
X70354Y-24466D01*
X70354Y-24324D01*
X70320Y-24223D01*
X70094Y-24141D01*
X69854Y-24151D01*
X69679Y-24223D01*
X69645Y-24324D01*
X70000Y-24679D01*
X70354Y-24324D01*
X70354Y-24466D01*
X70070Y-24750D01*
X70425Y-25104D01*
X70526Y-25070D01*
X70608Y-24844D01*
X70608Y-25950D01*
X70354Y-25950D01*
X70354Y-25175D01*
X70000Y-24820D01*
X69929Y-24891D01*
X69929Y-24750D01*
X69574Y-24395D01*
X69473Y-24429D01*
X69391Y-24655D01*
X69401Y-24895D01*
X69473Y-25070D01*
X69574Y-25104D01*
X69929Y-24750D01*
X69929Y-24891D01*
X69645Y-25175D01*
X69679Y-25276D01*
X69905Y-25358D01*
X70145Y-25348D01*
X70320Y-25276D01*
X70354Y-25175D01*
X70354Y-25950D01*
X66429Y-25950D01*
X66214Y-25860D01*
X65975Y-25860D01*
X65854Y-25910D01*
X65145Y-25910D01*
X65025Y-25860D01*
X64786Y-25860D01*
X64566Y-25951D01*
X64397Y-26120D01*
X64305Y-26340D01*
X64305Y-26579D01*
X64396Y-26800D01*
X64556Y-26960D01*
X64397Y-27120D01*
X64305Y-27340D01*
X64305Y-27579D01*
X64396Y-27800D01*
X64483Y-27886D01*
X64435Y-27906D01*
X64391Y-27950D01*
X63000Y-27950D01*
X62789Y-27991D01*
X62611Y-28111D01*
X62361Y-28361D01*
X62241Y-28539D01*
X62200Y-28750D01*
X62200Y-33700D01*
X62065Y-33700D01*
X62065Y-31250D01*
X62065Y-29250D01*
X62020Y-29020D01*
X61889Y-28825D01*
X61776Y-28750D01*
X61889Y-28674D01*
X62020Y-28479D01*
X62065Y-28250D01*
X62020Y-28020D01*
X61889Y-27825D01*
X61776Y-27750D01*
X61889Y-27674D01*
X62020Y-27479D01*
X62065Y-27250D01*
X62020Y-27020D01*
X61889Y-26825D01*
X61776Y-26750D01*
X61889Y-26674D01*
X62020Y-26479D01*
X62065Y-26250D01*
X62020Y-26020D01*
X61889Y-25825D01*
X61776Y-25750D01*
X61889Y-25674D01*
X62020Y-25479D01*
X62065Y-25250D01*
X62020Y-25020D01*
X61889Y-24825D01*
X61776Y-24750D01*
X61889Y-24674D01*
X62020Y-24479D01*
X62065Y-24250D01*
X62020Y-24020D01*
X61889Y-23825D01*
X61695Y-23695D01*
X61465Y-23650D01*
X61034Y-23650D01*
X60804Y-23695D01*
X60610Y-23825D01*
X60479Y-24020D01*
X60434Y-24250D01*
X60479Y-24479D01*
X60610Y-24674D01*
X60723Y-24750D01*
X60610Y-24825D01*
X60479Y-25020D01*
X60434Y-25250D01*
X60479Y-25479D01*
X60610Y-25674D01*
X60723Y-25750D01*
X60610Y-25825D01*
X60479Y-26020D01*
X60434Y-26250D01*
X60479Y-26479D01*
X60610Y-26674D01*
X60723Y-26750D01*
X60610Y-26825D01*
X60479Y-27020D01*
X60434Y-27250D01*
X60479Y-27479D01*
X60610Y-27674D01*
X60723Y-27750D01*
X60610Y-27825D01*
X60479Y-28020D01*
X60434Y-28250D01*
X60479Y-28479D01*
X60610Y-28674D01*
X60723Y-28750D01*
X60610Y-28825D01*
X60479Y-29020D01*
X60434Y-29250D01*
X60479Y-29479D01*
X60610Y-29674D01*
X60804Y-29804D01*
X61034Y-29850D01*
X61465Y-29850D01*
X61695Y-29804D01*
X61889Y-29674D01*
X62020Y-29479D01*
X62065Y-29250D01*
X62065Y-31250D01*
X62020Y-31020D01*
X61889Y-30825D01*
X61695Y-30695D01*
X61465Y-30650D01*
X61034Y-30650D01*
X60804Y-30695D01*
X60610Y-30825D01*
X60479Y-31020D01*
X60434Y-31250D01*
X60479Y-31479D01*
X60610Y-31674D01*
X60769Y-31780D01*
X60625Y-31896D01*
X60522Y-32085D01*
X60516Y-32114D01*
X60565Y-32200D01*
X61200Y-32200D01*
X61200Y-32192D01*
X61300Y-32192D01*
X61300Y-32200D01*
X61934Y-32200D01*
X61983Y-32114D01*
X61977Y-32085D01*
X61874Y-31896D01*
X61730Y-31780D01*
X61889Y-31674D01*
X62020Y-31479D01*
X62065Y-31250D01*
X62065Y-33700D01*
X61754Y-33700D01*
X61874Y-33603D01*
X61977Y-33414D01*
X61983Y-33385D01*
X61983Y-33114D01*
X61977Y-33085D01*
X61874Y-32896D01*
X61706Y-32761D01*
X61669Y-32750D01*
X61706Y-32738D01*
X61874Y-32603D01*
X61977Y-32414D01*
X61983Y-32385D01*
X61934Y-32300D01*
X61300Y-32300D01*
X61300Y-32700D01*
X61300Y-32800D01*
X61300Y-33200D01*
X61934Y-33200D01*
X61983Y-33114D01*
X61983Y-33385D01*
X61934Y-33300D01*
X61300Y-33300D01*
X61300Y-33307D01*
X61200Y-33307D01*
X61200Y-33300D01*
X61200Y-33200D01*
X61200Y-32800D01*
X61200Y-32700D01*
X61200Y-32300D01*
X60565Y-32300D01*
X60516Y-32385D01*
X60522Y-32414D01*
X60625Y-32603D01*
X60793Y-32738D01*
X60830Y-32750D01*
X60793Y-32761D01*
X60625Y-32896D01*
X60522Y-33085D01*
X60516Y-33114D01*
X60565Y-33200D01*
X61200Y-33200D01*
X61200Y-33300D01*
X60565Y-33300D01*
X60516Y-33385D01*
X60522Y-33414D01*
X60625Y-33603D01*
X60769Y-33719D01*
X60610Y-33825D01*
X60479Y-34020D01*
X60434Y-34250D01*
X60479Y-34479D01*
X60610Y-34674D01*
X60723Y-34750D01*
X60610Y-34825D01*
X60479Y-35020D01*
X60434Y-35250D01*
X60479Y-35479D01*
X60610Y-35674D01*
X60723Y-35750D01*
X60610Y-35825D01*
X60479Y-36020D01*
X60434Y-36250D01*
X60479Y-36479D01*
X60610Y-36674D01*
X60750Y-36767D01*
X60750Y-37546D01*
X60678Y-37617D01*
X60576Y-37865D01*
X60575Y-38133D01*
X60678Y-38381D01*
X60796Y-38500D01*
X60678Y-38617D01*
X60576Y-38865D01*
X60575Y-39133D01*
X60678Y-39381D01*
X60750Y-39453D01*
X60750Y-40296D01*
X60678Y-40367D01*
X60576Y-40615D01*
X60575Y-40883D01*
X60678Y-41131D01*
X60867Y-41321D01*
X60935Y-41349D01*
X61250Y-41663D01*
X61563Y-41349D01*
X61631Y-41321D01*
X61821Y-41132D01*
X61923Y-40884D01*
X61924Y-40616D01*
X61821Y-40368D01*
X61750Y-40296D01*
X61750Y-39453D01*
X61821Y-39382D01*
X61923Y-39134D01*
X61924Y-38866D01*
X61821Y-38618D01*
X61703Y-38499D01*
X61821Y-38382D01*
X61923Y-38134D01*
X61924Y-37866D01*
X61821Y-37618D01*
X61750Y-37546D01*
X61750Y-36767D01*
X61889Y-36674D01*
X62020Y-36479D01*
X62065Y-36250D01*
X62020Y-36020D01*
X61889Y-35825D01*
X61776Y-35750D01*
X61889Y-35674D01*
X62020Y-35479D01*
X62065Y-35250D01*
X62020Y-35020D01*
X61889Y-34825D01*
X61851Y-34800D01*
X62500Y-34800D01*
X62710Y-34758D01*
X62888Y-34638D01*
X63138Y-34388D01*
X63138Y-34388D01*
X63200Y-34297D01*
X63200Y-41000D01*
X63200Y-42750D01*
X63241Y-42960D01*
X63361Y-43138D01*
X64111Y-43888D01*
X64111Y-43888D01*
X64182Y-43936D01*
X64289Y-44008D01*
X64499Y-44049D01*
X64500Y-44050D01*
X66272Y-44050D01*
X66861Y-44638D01*
X66861Y-44638D01*
X66932Y-44686D01*
X67039Y-44758D01*
X67249Y-44799D01*
X67250Y-44800D01*
X72846Y-44800D01*
X72867Y-44821D01*
X73115Y-44923D01*
X73383Y-44924D01*
X73631Y-44821D01*
X73821Y-44632D01*
X73923Y-44384D01*
X73924Y-44116D01*
X73821Y-43868D01*
X73632Y-43678D01*
X73384Y-43576D01*
X73116Y-43575D01*
X72868Y-43678D01*
X72846Y-43700D01*
X67477Y-43700D01*
X66888Y-43111D01*
X66710Y-42991D01*
X66500Y-42950D01*
X64727Y-42950D01*
X64300Y-42522D01*
X64300Y-42050D01*
X65147Y-42050D01*
X65205Y-42108D01*
X65316Y-42154D01*
X65435Y-42154D01*
X66183Y-42154D01*
X66293Y-42108D01*
X66378Y-42024D01*
X66423Y-41914D01*
X66424Y-41794D01*
X66424Y-41086D01*
X66378Y-40975D01*
X66363Y-40960D01*
X66378Y-40945D01*
X66423Y-40835D01*
X66424Y-40716D01*
X66424Y-40164D01*
X66378Y-40054D01*
X66323Y-39999D01*
X66378Y-39945D01*
X66423Y-39835D01*
X66424Y-39716D01*
X66424Y-39164D01*
X66378Y-39054D01*
X66323Y-39000D01*
X66499Y-39000D01*
X66500Y-39000D01*
X66500Y-39000D01*
X66691Y-38961D01*
X66853Y-38853D01*
X67103Y-38603D01*
X67103Y-38603D01*
X67103Y-38603D01*
X67211Y-38441D01*
X67250Y-38250D01*
X67250Y-42749D01*
X67249Y-42750D01*
X67288Y-42941D01*
X67396Y-43103D01*
X67646Y-43353D01*
X67646Y-43353D01*
X67808Y-43461D01*
X68000Y-43500D01*
X74999Y-43500D01*
X75000Y-43500D01*
X75000Y-43500D01*
X75191Y-43461D01*
X75353Y-43353D01*
X76353Y-42353D01*
X76353Y-42353D01*
X76353Y-42353D01*
X76461Y-42191D01*
X76500Y-42000D01*
X76500Y-39000D01*
X76461Y-38808D01*
X76436Y-38770D01*
X76857Y-38350D01*
X79723Y-38350D01*
X79769Y-38380D01*
X79625Y-38496D01*
X79522Y-38685D01*
X79516Y-38714D01*
X79565Y-38800D01*
X80200Y-38800D01*
X80200Y-38792D01*
X80300Y-38792D01*
X80300Y-38800D01*
X80934Y-38800D01*
X80983Y-38714D01*
X80977Y-38685D01*
X80874Y-38496D01*
X80730Y-38380D01*
X80889Y-38274D01*
X81020Y-38079D01*
X81065Y-37850D01*
X81065Y-39850D01*
X81020Y-39620D01*
X80889Y-39425D01*
X80730Y-39319D01*
X80874Y-39203D01*
X80977Y-39014D01*
X80983Y-38985D01*
X80934Y-38900D01*
X80300Y-38900D01*
X80300Y-38907D01*
X80200Y-38907D01*
X80200Y-38900D01*
X79565Y-38900D01*
X79516Y-38985D01*
X79522Y-39014D01*
X79625Y-39203D01*
X79769Y-39319D01*
X79610Y-39425D01*
X79479Y-39620D01*
X79434Y-39850D01*
X79479Y-40079D01*
X79610Y-40274D01*
X79804Y-40404D01*
X80034Y-40450D01*
X80465Y-40450D01*
X80695Y-40404D01*
X80889Y-40274D01*
X81020Y-40079D01*
X81065Y-39850D01*
X81065Y-43450D01*
X79500Y-43450D01*
X76700Y-43450D01*
X76700Y-49200D01*
X71628Y-49200D01*
X71628Y-45849D01*
X71618Y-45601D01*
X71542Y-45417D01*
X71439Y-45381D01*
X71368Y-45451D01*
X71368Y-45310D01*
X71332Y-45207D01*
X71099Y-45121D01*
X70851Y-45131D01*
X70667Y-45207D01*
X70631Y-45310D01*
X71000Y-45679D01*
X71368Y-45310D01*
X71368Y-45451D01*
X71070Y-45750D01*
X71439Y-46118D01*
X71542Y-46082D01*
X71628Y-45849D01*
X71628Y-49200D01*
X71368Y-49200D01*
X71368Y-46189D01*
X71000Y-45820D01*
X70929Y-45891D01*
X70929Y-45750D01*
X70560Y-45381D01*
X70457Y-45417D01*
X70371Y-45650D01*
X70381Y-45898D01*
X70457Y-46082D01*
X70560Y-46118D01*
X70929Y-45750D01*
X70929Y-45891D01*
X70631Y-46189D01*
X70667Y-46292D01*
X70900Y-46378D01*
X71148Y-46368D01*
X71332Y-46292D01*
X71368Y-46189D01*
X71368Y-49200D01*
X65250Y-49200D01*
X65050Y-49200D01*
X65050Y-44488D01*
X65043Y-44453D01*
X65023Y-44424D01*
X64994Y-44405D01*
X64960Y-44398D01*
X62204Y-44398D01*
X62170Y-44405D01*
X62141Y-44424D01*
X62122Y-44453D01*
X62115Y-44488D01*
X62115Y-49200D01*
X62000Y-49200D01*
X61878Y-49200D01*
X61878Y-41833D01*
X61868Y-41585D01*
X61792Y-41401D01*
X61689Y-41365D01*
X61320Y-41734D01*
X61689Y-42103D01*
X61792Y-42066D01*
X61878Y-41833D01*
X61878Y-49200D01*
X61618Y-49200D01*
X61618Y-42173D01*
X61250Y-41804D01*
X61179Y-41875D01*
X61179Y-41734D01*
X60810Y-41365D01*
X60707Y-41401D01*
X60621Y-41634D01*
X60631Y-41882D01*
X60707Y-42066D01*
X60810Y-42103D01*
X61179Y-41734D01*
X61179Y-41875D01*
X60881Y-42173D01*
X60917Y-42276D01*
X61150Y-42362D01*
X61398Y-42352D01*
X61582Y-42276D01*
X61618Y-42173D01*
X61618Y-49200D01*
X60300Y-49200D01*
X60300Y-23300D01*
X61270Y-23300D01*
X62270Y-22300D01*
X75229Y-22300D01*
X76229Y-23300D01*
X80729Y-23300D01*
X81200Y-23770D01*
X81200Y-43450D01*
M02*
