M48
;DRILL file {Pcbnew (2013-jul-07)-stable} date Thu 12 Feb 2015 08:58:10 CET
;FORMAT={-:-/ absolute / metric / decimal}
FMAT,2
METRIC,TZ
T1C0.600
T2C0.800
T3C0.813
%
G90
G05
M71
T1
X61.018Y-31.248
X61.272Y-21.088
X61.272Y-25.914
X63.618Y-31.248
X63.872Y-21.088
X63.872Y-25.914
T2
X29.298Y-20.58
X29.298Y-27.692
X33.148Y-61.22
X34.378Y-26.168
X34.378Y-33.788
X35.648Y-61.22
X36.918Y-26.168
X36.918Y-33.788
X39.204Y-61.22
X39.458Y-26.168
X39.458Y-33.788
X41.744Y-61.22
X41.998Y-26.168
X41.998Y-33.788
X44.03Y-48.012
X44.03Y-55.632
X44.538Y-26.168
X44.538Y-33.788
X46.57Y-48.012
X46.57Y-55.632
X47.078Y-26.168
X47.078Y-33.788
X49.11Y-48.012
X49.11Y-55.632
X49.618Y-26.168
X49.618Y-33.788
X51.65Y-48.012
X51.65Y-55.632
X68.16Y-21.088
X68.16Y-25.914
X68.16Y-31.248
X78.32Y-21.088
X78.32Y-25.914
X78.32Y-31.248
T3
X38.061Y-16.135
X40.601Y-16.135
X43.141Y-16.135
X45.681Y-16.135
X47.205Y-64.395
X48.221Y-16.135
X49.745Y-64.395
X50.761Y-16.135
X52.285Y-64.395
X53.301Y-16.135
X54.825Y-64.395
X55.841Y-16.135
X57.365Y-64.395
X59.905Y-16.135
X59.905Y-64.395
X62.445Y-16.135
X64.985Y-16.135
X64.985Y-64.395
X67.525Y-16.135
X67.525Y-64.395
X70.065Y-16.135
X70.065Y-64.395
X72.605Y-16.135
X72.605Y-64.395
X75.145Y-16.135
X75.145Y-64.395
X77.685Y-16.135
X77.685Y-64.395
T0
M30
