G04 (created by PCBNEW (2013-jul-07)-stable) date Tue 24 Feb 2015 11:31:29 CET*
%MOIN*%
G04 Gerber Fmt 3.4, Leading zero omitted, Abs format*
%FSLAX34Y34*%
G01*
G70*
G90*
G04 APERTURE LIST*
%ADD10C,0.00590551*%
G04 APERTURE END LIST*
G54D10*
X81590Y-49606D02*
X81590Y-49600D01*
X81496Y-49606D02*
X81590Y-49606D01*
X77165Y-49606D02*
X81496Y-49606D01*
X77165Y-45669D02*
X77165Y-49606D01*
X73228Y-45669D02*
X77165Y-45669D01*
X73228Y-49606D02*
X73228Y-45669D01*
X64960Y-49606D02*
X73228Y-49606D01*
X64960Y-44488D02*
X64960Y-49606D01*
X62204Y-44488D02*
X64960Y-44488D01*
X62204Y-49606D02*
X62204Y-44488D01*
X61811Y-49606D02*
X62204Y-49606D01*
X61417Y-49606D02*
X61811Y-49606D01*
X59842Y-49606D02*
X61417Y-49606D01*
X81578Y-23647D02*
X81578Y-23844D01*
X80594Y-22663D02*
X81578Y-23647D01*
X76263Y-22663D02*
X80594Y-22663D01*
X75279Y-21679D02*
X76263Y-22663D01*
X62090Y-21679D02*
X75279Y-21679D01*
X61106Y-22663D02*
X62090Y-21679D01*
X59728Y-22663D02*
X61106Y-22663D01*
X59728Y-49631D02*
X59728Y-22663D01*
X81578Y-23844D02*
X81578Y-49631D01*
M02*
