M48
;DRILL file {Pcbnew (2013-jul-07)-stable} date Tue 24 Feb 2015 11:31:31 CET
;FORMAT={-:-/ absolute / metric / decimal}
FMAT,2
METRIC,TZ
T1C0.600
T2C0.800
T3C0.813
%
G90
G05
M71
T1
X187.198Y-76.678
X187.198Y-79.278
X192.405Y-76.805
X192.405Y-79.405
X197.485Y-76.805
X197.485Y-79.405
T2
X155.575Y-96.52
X155.575Y-99.06
X155.575Y-103.505
X155.575Y-106.005
X167.005Y-90.17
X167.005Y-92.71
X167.005Y-95.25
X167.005Y-97.79
X167.005Y-100.33
X167.005Y-102.87
X167.005Y-105.41
X174.625Y-90.17
X174.625Y-92.71
X174.625Y-95.25
X174.625Y-97.79
X174.625Y-100.33
X174.625Y-102.87
X174.625Y-105.41
X177.8Y-62.865
X177.8Y-73.025
X178.435Y-106.68
X178.435Y-111.76
X180.34Y-92.71
X180.34Y-95.25
X180.34Y-97.79
X180.34Y-100.33
X180.975Y-81.28
X180.975Y-88.9
X182.88Y-62.865
X182.88Y-73.025
X186.055Y-83.82
X186.055Y-88.9
X187.325Y-62.865
X187.325Y-73.025
X187.96Y-92.71
X187.96Y-95.25
X187.96Y-97.79
X187.96Y-100.33
X189.23Y-106.045
X189.23Y-111.76
X192.405Y-62.865
X192.405Y-73.025
X197.485Y-62.865
X197.485Y-73.025
T3
X155.575Y-61.595
X155.575Y-64.135
X155.575Y-66.675
X155.575Y-69.215
X155.575Y-71.755
X155.575Y-74.295
X155.575Y-79.375
X155.575Y-81.915
X155.575Y-84.455
X155.575Y-86.995
X155.575Y-89.535
X155.575Y-92.075
X164.86Y-67.21
X164.86Y-69.75
X164.86Y-72.29
X167.88Y-67.21
X167.88Y-69.75
X167.88Y-72.29
X177.8Y-76.835
X177.8Y-79.375
X203.835Y-61.595
X203.835Y-64.135
X203.835Y-66.675
X203.835Y-69.215
X203.835Y-71.755
X203.835Y-74.295
X203.835Y-76.835
X203.835Y-79.375
X203.835Y-83.439
X203.835Y-85.979
X203.835Y-88.519
X203.835Y-91.059
X203.835Y-93.599
X203.835Y-96.139
X203.835Y-98.679
X203.835Y-101.219
T0
M30
