G04 (created by PCBNEW (2013-jul-07)-stable) date Tue 24 Feb 2015 11:31:29 CET*
%MOIN*%
G04 Gerber Fmt 3.4, Leading zero omitted, Abs format*
%FSLAX34Y34*%
G01*
G70*
G90*
G04 APERTURE LIST*
%ADD10C,0.00590551*%
%ADD11C,0.0001*%
%ADD12R,0.06X0.06*%
%ADD13C,0.06*%
%ADD14C,0.066*%
%ADD15C,0.0748031*%
%ADD16R,0.0748031X0.0708661*%
%ADD17R,0.0748031X0.0551181*%
%ADD18R,0.0669291X0.0551181*%
%ADD19C,0.0708661*%
%ADD20C,0.0787402*%
%ADD21O,0.1X0.06*%
%ADD22C,0.04*%
%ADD23C,0.05*%
%ADD24C,0.01*%
G04 APERTURE END LIST*
G54D10*
G54D11*
G36*
X67067Y-47214D02*
X67069Y-46982D01*
X67073Y-46695D01*
X67077Y-46401D01*
X67082Y-46044D01*
X67087Y-45748D01*
X67093Y-45507D01*
X67102Y-45316D01*
X67114Y-45168D01*
X67131Y-45058D01*
X67154Y-44981D01*
X67185Y-44930D01*
X67226Y-44899D01*
X67276Y-44884D01*
X67339Y-44878D01*
X67415Y-44876D01*
X67437Y-44875D01*
X67558Y-44876D01*
X67658Y-44887D01*
X67709Y-44902D01*
X67775Y-44959D01*
X67821Y-45044D01*
X67850Y-45169D01*
X67864Y-45342D01*
X67867Y-45498D01*
X67869Y-45646D01*
X67875Y-45765D01*
X67883Y-45843D01*
X67892Y-45866D01*
X67936Y-45857D01*
X68021Y-45834D01*
X68066Y-45821D01*
X68066Y-46943D01*
X68082Y-47118D01*
X68129Y-47276D01*
X68208Y-47403D01*
X68241Y-47434D01*
X68356Y-47491D01*
X68484Y-47494D01*
X68607Y-47447D01*
X68709Y-47357D01*
X68755Y-47277D01*
X68785Y-47158D01*
X68799Y-47002D01*
X68796Y-46835D01*
X68777Y-46683D01*
X68746Y-46579D01*
X68672Y-46466D01*
X68579Y-46379D01*
X68485Y-46336D01*
X68461Y-46333D01*
X68387Y-46348D01*
X68298Y-46384D01*
X68296Y-46385D01*
X68196Y-46472D01*
X68123Y-46604D01*
X68080Y-46766D01*
X68066Y-46943D01*
X68066Y-45821D01*
X68080Y-45816D01*
X68292Y-45775D01*
X68528Y-45768D01*
X68758Y-45793D01*
X68920Y-45837D01*
X69110Y-45933D01*
X69278Y-46064D01*
X69403Y-46214D01*
X69431Y-46261D01*
X69490Y-46377D01*
X69592Y-46228D01*
X69738Y-46064D01*
X69932Y-45931D01*
X70117Y-45847D01*
X70147Y-45840D01*
X70147Y-47028D01*
X70181Y-47197D01*
X70247Y-47335D01*
X70337Y-47435D01*
X70446Y-47491D01*
X70566Y-47497D01*
X70691Y-47444D01*
X70730Y-47414D01*
X70826Y-47293D01*
X70884Y-47135D01*
X70904Y-46956D01*
X70888Y-46773D01*
X70835Y-46604D01*
X70745Y-46466D01*
X70715Y-46436D01*
X70597Y-46356D01*
X70489Y-46339D01*
X70381Y-46383D01*
X70354Y-46403D01*
X70256Y-46505D01*
X70191Y-46638D01*
X70153Y-46819D01*
X70151Y-46835D01*
X70147Y-47028D01*
X70147Y-45840D01*
X70296Y-45801D01*
X70505Y-45783D01*
X70720Y-45791D01*
X70914Y-45826D01*
X71012Y-45860D01*
X71110Y-45901D01*
X71171Y-45913D01*
X71218Y-45900D01*
X71244Y-45883D01*
X71344Y-45844D01*
X71477Y-45831D01*
X71617Y-45842D01*
X71736Y-45877D01*
X71779Y-45902D01*
X71867Y-45971D01*
X71867Y-47399D01*
X71867Y-48827D01*
X71764Y-48914D01*
X71639Y-48981D01*
X71489Y-49005D01*
X71341Y-48987D01*
X71216Y-48925D01*
X71210Y-48919D01*
X71172Y-48884D01*
X71146Y-48848D01*
X71129Y-48798D01*
X71118Y-48722D01*
X71112Y-48606D01*
X71107Y-48438D01*
X71106Y-48405D01*
X71095Y-47971D01*
X70956Y-48024D01*
X70824Y-48057D01*
X70638Y-48076D01*
X70500Y-48080D01*
X70340Y-48079D01*
X70225Y-48070D01*
X70132Y-48050D01*
X70040Y-48014D01*
X70000Y-47996D01*
X69804Y-47877D01*
X69643Y-47730D01*
X69543Y-47586D01*
X69506Y-47520D01*
X69482Y-47509D01*
X69456Y-47546D01*
X69454Y-47550D01*
X69364Y-47672D01*
X69236Y-47799D01*
X69090Y-47914D01*
X68948Y-47999D01*
X68897Y-48020D01*
X68719Y-48062D01*
X68511Y-48082D01*
X68297Y-48081D01*
X68098Y-48058D01*
X67937Y-48013D01*
X67922Y-48007D01*
X67824Y-47966D01*
X67763Y-47953D01*
X67716Y-47967D01*
X67689Y-47984D01*
X67605Y-48015D01*
X67485Y-48031D01*
X67359Y-48029D01*
X67255Y-48009D01*
X67232Y-47999D01*
X67173Y-47946D01*
X67116Y-47865D01*
X67112Y-47857D01*
X67098Y-47825D01*
X67087Y-47784D01*
X67078Y-47727D01*
X67072Y-47648D01*
X67068Y-47541D01*
X67067Y-47398D01*
X67067Y-47214D01*
X67067Y-47214D01*
X67067Y-47214D01*
G37*
G54D12*
X64905Y-28460D03*
G54D13*
X64905Y-27460D03*
X64905Y-26460D03*
X66094Y-26460D03*
X66094Y-27460D03*
X66094Y-28460D03*
G54D14*
X70000Y-31250D03*
X70000Y-30250D03*
G54D15*
X73250Y-35000D03*
X74500Y-41750D03*
X74500Y-44000D03*
X70250Y-44000D03*
G54D16*
X65750Y-41500D03*
G54D17*
X65750Y-40500D03*
X65750Y-39500D03*
X65750Y-38500D03*
X65750Y-37500D03*
X65750Y-36500D03*
X65750Y-35500D03*
X68750Y-35500D03*
X68750Y-36500D03*
X68750Y-37500D03*
X68750Y-38500D03*
X68750Y-39500D03*
X68750Y-40500D03*
G54D18*
X68750Y-41500D03*
G54D19*
X71250Y-35000D03*
G54D15*
X71250Y-32000D03*
X61250Y-40750D03*
X61250Y-41734D03*
X61250Y-39000D03*
X61250Y-38000D03*
G54D16*
X71000Y-39500D03*
G54D17*
X71000Y-38500D03*
X71000Y-37500D03*
X71000Y-36500D03*
X74000Y-36500D03*
X74000Y-37500D03*
X74000Y-38500D03*
X74000Y-39500D03*
G54D19*
X77750Y-24750D03*
X77750Y-28750D03*
X75750Y-24750D03*
X75750Y-28750D03*
X73750Y-24750D03*
X73750Y-28750D03*
G54D15*
X70250Y-42000D03*
X73250Y-33000D03*
G54D20*
X77750Y-31261D03*
X77750Y-30238D03*
X75750Y-31261D03*
X75750Y-30238D03*
X73700Y-31211D03*
X73700Y-30188D03*
G54D19*
X72000Y-28750D03*
X72000Y-24750D03*
X70000Y-24750D03*
X70000Y-28750D03*
G54D21*
X61250Y-24250D03*
X61250Y-25250D03*
X61250Y-26250D03*
X61250Y-29250D03*
X61250Y-28250D03*
X61250Y-27250D03*
X61250Y-31250D03*
X61250Y-32250D03*
X61250Y-33250D03*
X61250Y-35250D03*
X61250Y-36250D03*
X80250Y-24250D03*
X80250Y-25250D03*
X80250Y-26250D03*
X80250Y-27250D03*
X80250Y-28250D03*
X80250Y-29250D03*
X80250Y-30250D03*
X80250Y-31250D03*
X80250Y-32850D03*
X80250Y-33850D03*
X80250Y-34850D03*
X80250Y-35850D03*
X80250Y-36850D03*
X80250Y-37850D03*
X80250Y-38850D03*
X80250Y-39850D03*
X61250Y-34250D03*
G54D22*
X73750Y-31261D02*
X73750Y-32000D01*
X76600Y-33850D02*
X80250Y-33850D01*
X75250Y-32500D02*
X76600Y-33850D01*
X74250Y-32500D02*
X75250Y-32500D01*
X73750Y-32000D02*
X74250Y-32500D01*
G54D23*
X66094Y-28460D02*
X64905Y-28460D01*
X64905Y-28460D02*
X64866Y-28500D01*
X64866Y-28500D02*
X63000Y-28500D01*
X63000Y-28500D02*
X62750Y-28750D01*
X62750Y-28750D02*
X62750Y-34000D01*
X62750Y-34000D02*
X62500Y-34250D01*
X62500Y-34250D02*
X61250Y-34250D01*
G54D22*
X61250Y-36250D02*
X61250Y-38000D01*
X74000Y-38500D02*
X75500Y-38500D01*
X75500Y-38500D02*
X75750Y-38750D01*
X68750Y-36500D02*
X67750Y-36500D01*
X67750Y-36500D02*
X67750Y-42750D01*
X67750Y-42750D02*
X68000Y-43000D01*
X68000Y-43000D02*
X75000Y-43000D01*
X75000Y-43000D02*
X76000Y-42000D01*
X76000Y-42000D02*
X76000Y-39000D01*
X76000Y-39000D02*
X75750Y-38750D01*
X75750Y-38750D02*
X75750Y-38750D01*
X80250Y-37850D02*
X76650Y-37850D01*
X76000Y-38500D02*
X74000Y-38500D01*
X76650Y-37850D02*
X76000Y-38500D01*
X61250Y-39000D02*
X61250Y-40750D01*
X77750Y-30238D02*
X77750Y-28750D01*
X75750Y-30238D02*
X75750Y-28750D01*
X73750Y-30238D02*
X73750Y-28750D01*
X71000Y-39500D02*
X71849Y-39500D01*
X72250Y-34500D02*
X71750Y-34000D01*
X72250Y-39099D02*
X72250Y-34500D01*
X71849Y-39500D02*
X72250Y-39099D01*
X80250Y-34850D02*
X76100Y-34850D01*
X75250Y-34000D02*
X72500Y-34000D01*
X76100Y-34850D02*
X75250Y-34000D01*
X65750Y-38500D02*
X66750Y-38500D01*
X68000Y-34000D02*
X71750Y-34000D01*
X71750Y-34000D02*
X72500Y-34000D01*
X67000Y-35000D02*
X68000Y-34000D01*
X67000Y-38250D02*
X67000Y-35000D01*
X66750Y-38500D02*
X67000Y-38250D01*
X80250Y-32850D02*
X76600Y-32850D01*
X75750Y-32000D02*
X75750Y-31261D01*
X76600Y-32850D02*
X75750Y-32000D01*
X80250Y-31250D02*
X77761Y-31250D01*
X77761Y-31250D02*
X77750Y-31261D01*
X68750Y-35500D02*
X69500Y-35500D01*
X73250Y-37500D02*
X74000Y-37500D01*
X73000Y-37750D02*
X73250Y-37500D01*
X73000Y-39500D02*
X73000Y-37750D01*
X71500Y-41000D02*
X73000Y-39500D01*
X70500Y-41000D02*
X71500Y-41000D01*
X70000Y-40500D02*
X70500Y-41000D01*
X70000Y-36000D02*
X70000Y-40500D01*
X69500Y-35500D02*
X70000Y-36000D01*
X80250Y-36850D02*
X76400Y-36850D01*
X75750Y-37500D02*
X74000Y-37500D01*
X76400Y-36850D02*
X75750Y-37500D01*
X73250Y-33000D02*
X65500Y-33000D01*
X65000Y-35500D02*
X65750Y-35500D01*
X64500Y-35000D02*
X65000Y-35500D01*
X64500Y-34000D02*
X64500Y-35000D01*
X65500Y-33000D02*
X64500Y-34000D01*
X73250Y-35000D02*
X74000Y-35000D01*
X74000Y-35000D02*
X74850Y-35850D01*
X80250Y-35850D02*
X74850Y-35850D01*
X74850Y-35850D02*
X74650Y-35850D01*
X74650Y-35850D02*
X74000Y-36500D01*
G54D23*
X64905Y-26460D02*
X66094Y-26460D01*
X66094Y-26460D02*
X66133Y-26500D01*
X66133Y-26500D02*
X71000Y-26500D01*
X71000Y-26500D02*
X72000Y-27500D01*
X72000Y-27500D02*
X72000Y-28750D01*
G54D22*
X70000Y-30250D02*
X70000Y-28750D01*
G54D23*
X67000Y-27500D02*
X66133Y-27500D01*
X68250Y-27500D02*
X68500Y-27750D01*
X68500Y-27750D02*
X68500Y-30000D01*
X67250Y-31250D02*
X68500Y-30000D01*
X67000Y-27500D02*
X68250Y-27500D01*
X66133Y-27500D02*
X66094Y-27460D01*
X66094Y-27460D02*
X64905Y-27460D01*
X74500Y-44000D02*
X72250Y-44000D01*
X63750Y-42500D02*
X63750Y-41000D01*
X64250Y-43000D02*
X63750Y-42500D01*
X66750Y-43000D02*
X64250Y-43000D01*
X69000Y-45250D02*
X66750Y-43000D01*
X71000Y-45250D02*
X69000Y-45250D01*
X72250Y-44000D02*
X71000Y-45250D01*
X67250Y-31250D02*
X65500Y-31250D01*
X64250Y-41500D02*
X65750Y-41500D01*
X63750Y-41000D02*
X64250Y-41500D01*
X63750Y-33000D02*
X63750Y-41000D01*
X65500Y-31250D02*
X63750Y-33000D01*
X70000Y-31250D02*
X67250Y-31250D01*
X74000Y-39500D02*
X74500Y-39500D01*
X74500Y-41000D02*
X74500Y-41750D01*
X75250Y-40250D02*
X74500Y-41000D01*
X75250Y-39750D02*
X75250Y-40250D01*
X75000Y-39500D02*
X75250Y-39750D01*
X74500Y-39500D02*
X75000Y-39500D01*
G54D10*
G36*
X71750Y-38892D02*
X71642Y-39000D01*
X71638Y-39000D01*
X71628Y-38975D01*
X71613Y-38960D01*
X71628Y-38945D01*
X71673Y-38835D01*
X71674Y-38716D01*
X71674Y-38164D01*
X71628Y-38054D01*
X71573Y-37999D01*
X71628Y-37945D01*
X71673Y-37835D01*
X71674Y-37716D01*
X71674Y-37164D01*
X71628Y-37054D01*
X71544Y-36970D01*
X71536Y-36966D01*
X71586Y-36917D01*
X71624Y-36825D01*
X71624Y-36174D01*
X71604Y-36127D01*
X71604Y-35425D01*
X71250Y-35070D01*
X71179Y-35141D01*
X71179Y-35000D01*
X70824Y-34645D01*
X70723Y-34679D01*
X70641Y-34905D01*
X70651Y-35145D01*
X70723Y-35320D01*
X70824Y-35354D01*
X71179Y-35000D01*
X71179Y-35141D01*
X70895Y-35425D01*
X70929Y-35526D01*
X71155Y-35608D01*
X71395Y-35598D01*
X71570Y-35526D01*
X71604Y-35425D01*
X71604Y-36127D01*
X71586Y-36082D01*
X71515Y-36012D01*
X71423Y-35974D01*
X71324Y-35974D01*
X71112Y-35974D01*
X71050Y-36036D01*
X71050Y-36450D01*
X71561Y-36450D01*
X71624Y-36387D01*
X71624Y-36174D01*
X71624Y-36825D01*
X71624Y-36612D01*
X71561Y-36550D01*
X71050Y-36550D01*
X71050Y-36557D01*
X70950Y-36557D01*
X70950Y-36550D01*
X70942Y-36550D01*
X70942Y-36450D01*
X70950Y-36450D01*
X70950Y-36036D01*
X70887Y-35974D01*
X70675Y-35974D01*
X70576Y-35974D01*
X70500Y-36006D01*
X70500Y-36000D01*
X70461Y-35808D01*
X70353Y-35646D01*
X70353Y-35646D01*
X69853Y-35146D01*
X69691Y-35038D01*
X69500Y-34999D01*
X69499Y-35000D01*
X69323Y-35000D01*
X69294Y-34970D01*
X69183Y-34924D01*
X69064Y-34924D01*
X68316Y-34924D01*
X68206Y-34969D01*
X68121Y-35054D01*
X68076Y-35164D01*
X68075Y-35283D01*
X68075Y-35835D01*
X68121Y-35945D01*
X68176Y-36000D01*
X67750Y-36000D01*
X67558Y-36038D01*
X67500Y-36077D01*
X67500Y-35207D01*
X68207Y-34500D01*
X70920Y-34500D01*
X70895Y-34574D01*
X71250Y-34929D01*
X71255Y-34923D01*
X71326Y-34994D01*
X71320Y-35000D01*
X71675Y-35354D01*
X71750Y-35329D01*
X71750Y-38892D01*
X71750Y-38892D01*
G37*
G54D24*
X71750Y-38892D02*
X71642Y-39000D01*
X71638Y-39000D01*
X71628Y-38975D01*
X71613Y-38960D01*
X71628Y-38945D01*
X71673Y-38835D01*
X71674Y-38716D01*
X71674Y-38164D01*
X71628Y-38054D01*
X71573Y-37999D01*
X71628Y-37945D01*
X71673Y-37835D01*
X71674Y-37716D01*
X71674Y-37164D01*
X71628Y-37054D01*
X71544Y-36970D01*
X71536Y-36966D01*
X71586Y-36917D01*
X71624Y-36825D01*
X71624Y-36174D01*
X71604Y-36127D01*
X71604Y-35425D01*
X71250Y-35070D01*
X71179Y-35141D01*
X71179Y-35000D01*
X70824Y-34645D01*
X70723Y-34679D01*
X70641Y-34905D01*
X70651Y-35145D01*
X70723Y-35320D01*
X70824Y-35354D01*
X71179Y-35000D01*
X71179Y-35141D01*
X70895Y-35425D01*
X70929Y-35526D01*
X71155Y-35608D01*
X71395Y-35598D01*
X71570Y-35526D01*
X71604Y-35425D01*
X71604Y-36127D01*
X71586Y-36082D01*
X71515Y-36012D01*
X71423Y-35974D01*
X71324Y-35974D01*
X71112Y-35974D01*
X71050Y-36036D01*
X71050Y-36450D01*
X71561Y-36450D01*
X71624Y-36387D01*
X71624Y-36174D01*
X71624Y-36825D01*
X71624Y-36612D01*
X71561Y-36550D01*
X71050Y-36550D01*
X71050Y-36557D01*
X70950Y-36557D01*
X70950Y-36550D01*
X70942Y-36550D01*
X70942Y-36450D01*
X70950Y-36450D01*
X70950Y-36036D01*
X70887Y-35974D01*
X70675Y-35974D01*
X70576Y-35974D01*
X70500Y-36006D01*
X70500Y-36000D01*
X70461Y-35808D01*
X70353Y-35646D01*
X70353Y-35646D01*
X69853Y-35146D01*
X69691Y-35038D01*
X69500Y-34999D01*
X69499Y-35000D01*
X69323Y-35000D01*
X69294Y-34970D01*
X69183Y-34924D01*
X69064Y-34924D01*
X68316Y-34924D01*
X68206Y-34969D01*
X68121Y-35054D01*
X68076Y-35164D01*
X68075Y-35283D01*
X68075Y-35835D01*
X68121Y-35945D01*
X68176Y-36000D01*
X67750Y-36000D01*
X67558Y-36038D01*
X67500Y-36077D01*
X67500Y-35207D01*
X68207Y-34500D01*
X70920Y-34500D01*
X70895Y-34574D01*
X71250Y-34929D01*
X71255Y-34923D01*
X71326Y-34994D01*
X71320Y-35000D01*
X71675Y-35354D01*
X71750Y-35329D01*
X71750Y-38892D01*
G54D10*
G36*
X72027Y-43500D02*
X71861Y-43611D01*
X71022Y-44450D01*
X70878Y-44450D01*
X70878Y-44099D01*
X70868Y-43851D01*
X70792Y-43667D01*
X70689Y-43631D01*
X70320Y-44000D01*
X70689Y-44368D01*
X70792Y-44332D01*
X70878Y-44099D01*
X70878Y-44450D01*
X70615Y-44450D01*
X70618Y-44439D01*
X70250Y-44070D01*
X70179Y-44141D01*
X70179Y-44000D01*
X69810Y-43631D01*
X69707Y-43667D01*
X69621Y-43900D01*
X69631Y-44148D01*
X69707Y-44332D01*
X69810Y-44368D01*
X70179Y-44000D01*
X70179Y-44141D01*
X69881Y-44439D01*
X69884Y-44450D01*
X68977Y-44450D01*
X68027Y-43500D01*
X69902Y-43500D01*
X69881Y-43560D01*
X70250Y-43929D01*
X70618Y-43560D01*
X70597Y-43500D01*
X72027Y-43500D01*
X72027Y-43500D01*
G37*
G54D24*
X72027Y-43500D02*
X71861Y-43611D01*
X71022Y-44450D01*
X70878Y-44450D01*
X70878Y-44099D01*
X70868Y-43851D01*
X70792Y-43667D01*
X70689Y-43631D01*
X70320Y-44000D01*
X70689Y-44368D01*
X70792Y-44332D01*
X70878Y-44099D01*
X70878Y-44450D01*
X70615Y-44450D01*
X70618Y-44439D01*
X70250Y-44070D01*
X70179Y-44141D01*
X70179Y-44000D01*
X69810Y-43631D01*
X69707Y-43667D01*
X69621Y-43900D01*
X69631Y-44148D01*
X69707Y-44332D01*
X69810Y-44368D01*
X70179Y-44000D01*
X70179Y-44141D01*
X69881Y-44439D01*
X69884Y-44450D01*
X68977Y-44450D01*
X68027Y-43500D01*
X69902Y-43500D01*
X69881Y-43560D01*
X70250Y-43929D01*
X70618Y-43560D01*
X70597Y-43500D01*
X72027Y-43500D01*
G54D10*
G36*
X75500Y-41792D02*
X74792Y-42500D01*
X70878Y-42500D01*
X70878Y-42099D01*
X70868Y-41851D01*
X70792Y-41667D01*
X70689Y-41631D01*
X70320Y-42000D01*
X70689Y-42368D01*
X70792Y-42332D01*
X70878Y-42099D01*
X70878Y-42500D01*
X70597Y-42500D01*
X70618Y-42439D01*
X70250Y-42070D01*
X70179Y-42141D01*
X70179Y-42000D01*
X69810Y-41631D01*
X69707Y-41667D01*
X69621Y-41900D01*
X69631Y-42148D01*
X69707Y-42332D01*
X69810Y-42368D01*
X70179Y-42000D01*
X70179Y-42141D01*
X69881Y-42439D01*
X69902Y-42500D01*
X69334Y-42500D01*
X69334Y-41825D01*
X69334Y-41612D01*
X69272Y-41550D01*
X68800Y-41550D01*
X68800Y-41963D01*
X68862Y-42025D01*
X69035Y-42025D01*
X69134Y-42025D01*
X69226Y-41987D01*
X69296Y-41917D01*
X69334Y-41825D01*
X69334Y-42500D01*
X68250Y-42500D01*
X68250Y-41963D01*
X68273Y-41987D01*
X68365Y-42025D01*
X68464Y-42025D01*
X68637Y-42025D01*
X68700Y-41963D01*
X68700Y-41550D01*
X68692Y-41550D01*
X68692Y-41450D01*
X68700Y-41450D01*
X68700Y-41442D01*
X68800Y-41442D01*
X68800Y-41450D01*
X69272Y-41450D01*
X69334Y-41387D01*
X69334Y-41174D01*
X69296Y-41082D01*
X69258Y-41044D01*
X69293Y-41030D01*
X69378Y-40945D01*
X69423Y-40835D01*
X69424Y-40716D01*
X69424Y-40164D01*
X69378Y-40054D01*
X69323Y-39999D01*
X69378Y-39945D01*
X69423Y-39835D01*
X69424Y-39716D01*
X69424Y-39164D01*
X69378Y-39054D01*
X69323Y-38999D01*
X69378Y-38945D01*
X69423Y-38835D01*
X69424Y-38716D01*
X69424Y-38164D01*
X69378Y-38054D01*
X69323Y-37999D01*
X69378Y-37945D01*
X69423Y-37835D01*
X69424Y-37716D01*
X69424Y-37164D01*
X69378Y-37054D01*
X69323Y-36999D01*
X69378Y-36945D01*
X69423Y-36835D01*
X69424Y-36716D01*
X69424Y-36164D01*
X69400Y-36107D01*
X69500Y-36207D01*
X69500Y-40499D01*
X69499Y-40500D01*
X69538Y-40691D01*
X69646Y-40853D01*
X70146Y-41353D01*
X70146Y-41353D01*
X70183Y-41378D01*
X70101Y-41381D01*
X69917Y-41457D01*
X69881Y-41560D01*
X70250Y-41929D01*
X70618Y-41560D01*
X70597Y-41500D01*
X71499Y-41500D01*
X71500Y-41500D01*
X71500Y-41500D01*
X71691Y-41461D01*
X71853Y-41353D01*
X73339Y-39867D01*
X73371Y-39945D01*
X73455Y-40029D01*
X73566Y-40075D01*
X73685Y-40075D01*
X74433Y-40075D01*
X74495Y-40050D01*
X74500Y-40050D01*
X74672Y-40050D01*
X74111Y-40611D01*
X73991Y-40789D01*
X73950Y-41000D01*
X73950Y-41346D01*
X73928Y-41367D01*
X73826Y-41615D01*
X73825Y-41883D01*
X73928Y-42131D01*
X74117Y-42321D01*
X74365Y-42423D01*
X74633Y-42424D01*
X74881Y-42321D01*
X75071Y-42132D01*
X75173Y-41884D01*
X75174Y-41616D01*
X75071Y-41368D01*
X75050Y-41346D01*
X75050Y-41227D01*
X75500Y-40777D01*
X75500Y-41792D01*
X75500Y-41792D01*
G37*
G54D24*
X75500Y-41792D02*
X74792Y-42500D01*
X70878Y-42500D01*
X70878Y-42099D01*
X70868Y-41851D01*
X70792Y-41667D01*
X70689Y-41631D01*
X70320Y-42000D01*
X70689Y-42368D01*
X70792Y-42332D01*
X70878Y-42099D01*
X70878Y-42500D01*
X70597Y-42500D01*
X70618Y-42439D01*
X70250Y-42070D01*
X70179Y-42141D01*
X70179Y-42000D01*
X69810Y-41631D01*
X69707Y-41667D01*
X69621Y-41900D01*
X69631Y-42148D01*
X69707Y-42332D01*
X69810Y-42368D01*
X70179Y-42000D01*
X70179Y-42141D01*
X69881Y-42439D01*
X69902Y-42500D01*
X69334Y-42500D01*
X69334Y-41825D01*
X69334Y-41612D01*
X69272Y-41550D01*
X68800Y-41550D01*
X68800Y-41963D01*
X68862Y-42025D01*
X69035Y-42025D01*
X69134Y-42025D01*
X69226Y-41987D01*
X69296Y-41917D01*
X69334Y-41825D01*
X69334Y-42500D01*
X68250Y-42500D01*
X68250Y-41963D01*
X68273Y-41987D01*
X68365Y-42025D01*
X68464Y-42025D01*
X68637Y-42025D01*
X68700Y-41963D01*
X68700Y-41550D01*
X68692Y-41550D01*
X68692Y-41450D01*
X68700Y-41450D01*
X68700Y-41442D01*
X68800Y-41442D01*
X68800Y-41450D01*
X69272Y-41450D01*
X69334Y-41387D01*
X69334Y-41174D01*
X69296Y-41082D01*
X69258Y-41044D01*
X69293Y-41030D01*
X69378Y-40945D01*
X69423Y-40835D01*
X69424Y-40716D01*
X69424Y-40164D01*
X69378Y-40054D01*
X69323Y-39999D01*
X69378Y-39945D01*
X69423Y-39835D01*
X69424Y-39716D01*
X69424Y-39164D01*
X69378Y-39054D01*
X69323Y-38999D01*
X69378Y-38945D01*
X69423Y-38835D01*
X69424Y-38716D01*
X69424Y-38164D01*
X69378Y-38054D01*
X69323Y-37999D01*
X69378Y-37945D01*
X69423Y-37835D01*
X69424Y-37716D01*
X69424Y-37164D01*
X69378Y-37054D01*
X69323Y-36999D01*
X69378Y-36945D01*
X69423Y-36835D01*
X69424Y-36716D01*
X69424Y-36164D01*
X69400Y-36107D01*
X69500Y-36207D01*
X69500Y-40499D01*
X69499Y-40500D01*
X69538Y-40691D01*
X69646Y-40853D01*
X70146Y-41353D01*
X70146Y-41353D01*
X70183Y-41378D01*
X70101Y-41381D01*
X69917Y-41457D01*
X69881Y-41560D01*
X70250Y-41929D01*
X70618Y-41560D01*
X70597Y-41500D01*
X71499Y-41500D01*
X71500Y-41500D01*
X71500Y-41500D01*
X71691Y-41461D01*
X71853Y-41353D01*
X73339Y-39867D01*
X73371Y-39945D01*
X73455Y-40029D01*
X73566Y-40075D01*
X73685Y-40075D01*
X74433Y-40075D01*
X74495Y-40050D01*
X74500Y-40050D01*
X74672Y-40050D01*
X74111Y-40611D01*
X73991Y-40789D01*
X73950Y-41000D01*
X73950Y-41346D01*
X73928Y-41367D01*
X73826Y-41615D01*
X73825Y-41883D01*
X73928Y-42131D01*
X74117Y-42321D01*
X74365Y-42423D01*
X74633Y-42424D01*
X74881Y-42321D01*
X75071Y-42132D01*
X75173Y-41884D01*
X75174Y-41616D01*
X75071Y-41368D01*
X75050Y-41346D01*
X75050Y-41227D01*
X75500Y-40777D01*
X75500Y-41792D01*
G54D10*
G36*
X81200Y-49200D02*
X81065Y-49200D01*
X81065Y-39850D01*
X81020Y-39620D01*
X80889Y-39425D01*
X80730Y-39319D01*
X80874Y-39203D01*
X80977Y-39014D01*
X80983Y-38985D01*
X80934Y-38900D01*
X80300Y-38900D01*
X80300Y-38907D01*
X80200Y-38907D01*
X80200Y-38900D01*
X79565Y-38900D01*
X79516Y-38985D01*
X79522Y-39014D01*
X79625Y-39203D01*
X79769Y-39319D01*
X79610Y-39425D01*
X79479Y-39620D01*
X79434Y-39850D01*
X79479Y-40079D01*
X79610Y-40274D01*
X79804Y-40404D01*
X80034Y-40450D01*
X80465Y-40450D01*
X80695Y-40404D01*
X80889Y-40274D01*
X81020Y-40079D01*
X81065Y-39850D01*
X81065Y-49200D01*
X77800Y-49200D01*
X77800Y-45200D01*
X72700Y-45200D01*
X72700Y-49200D01*
X72300Y-49200D01*
X72300Y-44727D01*
X72477Y-44550D01*
X74096Y-44550D01*
X74117Y-44571D01*
X74365Y-44673D01*
X74633Y-44674D01*
X74881Y-44571D01*
X75071Y-44382D01*
X75173Y-44134D01*
X75174Y-43866D01*
X75071Y-43618D01*
X74953Y-43500D01*
X74999Y-43500D01*
X75000Y-43500D01*
X75000Y-43500D01*
X75191Y-43461D01*
X75353Y-43353D01*
X76353Y-42353D01*
X76353Y-42353D01*
X76353Y-42353D01*
X76461Y-42191D01*
X76500Y-42000D01*
X76500Y-39000D01*
X76461Y-38808D01*
X76436Y-38770D01*
X76857Y-38350D01*
X79723Y-38350D01*
X79769Y-38380D01*
X79625Y-38496D01*
X79522Y-38685D01*
X79516Y-38714D01*
X79565Y-38800D01*
X80200Y-38800D01*
X80200Y-38792D01*
X80300Y-38792D01*
X80300Y-38800D01*
X80934Y-38800D01*
X80983Y-38714D01*
X80977Y-38685D01*
X80874Y-38496D01*
X80730Y-38380D01*
X80889Y-38274D01*
X81020Y-38079D01*
X81065Y-37850D01*
X81020Y-37620D01*
X80889Y-37425D01*
X80776Y-37350D01*
X80889Y-37274D01*
X81020Y-37079D01*
X81065Y-36850D01*
X81020Y-36620D01*
X80889Y-36425D01*
X80776Y-36350D01*
X80889Y-36274D01*
X81020Y-36079D01*
X81065Y-35850D01*
X81020Y-35620D01*
X80889Y-35425D01*
X80776Y-35350D01*
X80889Y-35274D01*
X81020Y-35079D01*
X81065Y-34850D01*
X81020Y-34620D01*
X80889Y-34425D01*
X80776Y-34350D01*
X80889Y-34274D01*
X81020Y-34079D01*
X81065Y-33850D01*
X81020Y-33620D01*
X80889Y-33425D01*
X80776Y-33350D01*
X80889Y-33274D01*
X81020Y-33079D01*
X81065Y-32850D01*
X81065Y-31250D01*
X81020Y-31020D01*
X80889Y-30825D01*
X80776Y-30750D01*
X80889Y-30674D01*
X81020Y-30479D01*
X81065Y-30250D01*
X81020Y-30020D01*
X80889Y-29825D01*
X80776Y-29750D01*
X80889Y-29674D01*
X81020Y-29479D01*
X81065Y-29250D01*
X81020Y-29020D01*
X80889Y-28825D01*
X80776Y-28750D01*
X80889Y-28674D01*
X81020Y-28479D01*
X81065Y-28250D01*
X81020Y-28020D01*
X80889Y-27825D01*
X80776Y-27750D01*
X80889Y-27674D01*
X81020Y-27479D01*
X81065Y-27250D01*
X81020Y-27020D01*
X80889Y-26825D01*
X80776Y-26750D01*
X80889Y-26674D01*
X81020Y-26479D01*
X81065Y-26250D01*
X81020Y-26020D01*
X80889Y-25825D01*
X80776Y-25750D01*
X80889Y-25674D01*
X81020Y-25479D01*
X81065Y-25250D01*
X81020Y-25020D01*
X80889Y-24825D01*
X80776Y-24750D01*
X80889Y-24674D01*
X81020Y-24479D01*
X81065Y-24250D01*
X81020Y-24020D01*
X80889Y-23825D01*
X80695Y-23695D01*
X80465Y-23650D01*
X80034Y-23650D01*
X79804Y-23695D01*
X79610Y-23825D01*
X79479Y-24020D01*
X79434Y-24250D01*
X79479Y-24479D01*
X79610Y-24674D01*
X79723Y-24750D01*
X79610Y-24825D01*
X79479Y-25020D01*
X79434Y-25250D01*
X79479Y-25479D01*
X79610Y-25674D01*
X79723Y-25750D01*
X79610Y-25825D01*
X79479Y-26020D01*
X79434Y-26250D01*
X79479Y-26479D01*
X79610Y-26674D01*
X79723Y-26750D01*
X79610Y-26825D01*
X79479Y-27020D01*
X79434Y-27250D01*
X79479Y-27479D01*
X79610Y-27674D01*
X79723Y-27750D01*
X79610Y-27825D01*
X79479Y-28020D01*
X79434Y-28250D01*
X79479Y-28479D01*
X79610Y-28674D01*
X79723Y-28750D01*
X79610Y-28825D01*
X79479Y-29020D01*
X79434Y-29250D01*
X79479Y-29479D01*
X79610Y-29674D01*
X79723Y-29750D01*
X79610Y-29825D01*
X79479Y-30020D01*
X79434Y-30250D01*
X79479Y-30479D01*
X79610Y-30674D01*
X79723Y-30750D01*
X78219Y-30750D01*
X78219Y-30749D01*
X78337Y-30631D01*
X78443Y-30376D01*
X78443Y-30100D01*
X78338Y-29845D01*
X78250Y-29757D01*
X78250Y-29175D01*
X78304Y-29121D01*
X78404Y-28880D01*
X78404Y-28620D01*
X78358Y-28510D01*
X78358Y-24844D01*
X78348Y-24604D01*
X78276Y-24429D01*
X78175Y-24395D01*
X78104Y-24466D01*
X78104Y-24324D01*
X78070Y-24223D01*
X77844Y-24141D01*
X77604Y-24151D01*
X77429Y-24223D01*
X77395Y-24324D01*
X77750Y-24679D01*
X78104Y-24324D01*
X78104Y-24466D01*
X77820Y-24750D01*
X78175Y-25104D01*
X78276Y-25070D01*
X78358Y-24844D01*
X78358Y-28510D01*
X78305Y-28379D01*
X78121Y-28195D01*
X78104Y-28188D01*
X78104Y-25175D01*
X77750Y-24820D01*
X77679Y-24891D01*
X77679Y-24750D01*
X77324Y-24395D01*
X77223Y-24429D01*
X77141Y-24655D01*
X77151Y-24895D01*
X77223Y-25070D01*
X77324Y-25104D01*
X77679Y-24750D01*
X77679Y-24891D01*
X77395Y-25175D01*
X77429Y-25276D01*
X77655Y-25358D01*
X77895Y-25348D01*
X78070Y-25276D01*
X78104Y-25175D01*
X78104Y-28188D01*
X77880Y-28095D01*
X77620Y-28095D01*
X77379Y-28194D01*
X77195Y-28378D01*
X77095Y-28619D01*
X77095Y-28879D01*
X77194Y-29120D01*
X77250Y-29175D01*
X77250Y-29757D01*
X77162Y-29844D01*
X77056Y-30099D01*
X77056Y-30375D01*
X77161Y-30630D01*
X77280Y-30750D01*
X77162Y-30868D01*
X77056Y-31123D01*
X77056Y-31399D01*
X77161Y-31654D01*
X77356Y-31849D01*
X77611Y-31955D01*
X77887Y-31955D01*
X78142Y-31850D01*
X78242Y-31750D01*
X79723Y-31750D01*
X79804Y-31804D01*
X80034Y-31850D01*
X80465Y-31850D01*
X80695Y-31804D01*
X80889Y-31674D01*
X81020Y-31479D01*
X81065Y-31250D01*
X81065Y-32850D01*
X81020Y-32620D01*
X80889Y-32425D01*
X80695Y-32295D01*
X80465Y-32250D01*
X80034Y-32250D01*
X79804Y-32295D01*
X79723Y-32350D01*
X76807Y-32350D01*
X76250Y-31792D01*
X76250Y-31742D01*
X76337Y-31655D01*
X76443Y-31400D01*
X76443Y-31124D01*
X76338Y-30869D01*
X76219Y-30749D01*
X76337Y-30631D01*
X76443Y-30376D01*
X76443Y-30100D01*
X76338Y-29845D01*
X76250Y-29757D01*
X76250Y-29175D01*
X76304Y-29121D01*
X76404Y-28880D01*
X76404Y-28620D01*
X76358Y-28510D01*
X76358Y-24844D01*
X76348Y-24604D01*
X76276Y-24429D01*
X76175Y-24395D01*
X76104Y-24466D01*
X76104Y-24324D01*
X76070Y-24223D01*
X75844Y-24141D01*
X75604Y-24151D01*
X75429Y-24223D01*
X75395Y-24324D01*
X75750Y-24679D01*
X76104Y-24324D01*
X76104Y-24466D01*
X75820Y-24750D01*
X76175Y-25104D01*
X76276Y-25070D01*
X76358Y-24844D01*
X76358Y-28510D01*
X76305Y-28379D01*
X76121Y-28195D01*
X76104Y-28188D01*
X76104Y-25175D01*
X75750Y-24820D01*
X75679Y-24891D01*
X75679Y-24750D01*
X75324Y-24395D01*
X75223Y-24429D01*
X75141Y-24655D01*
X75151Y-24895D01*
X75223Y-25070D01*
X75324Y-25104D01*
X75679Y-24750D01*
X75679Y-24891D01*
X75395Y-25175D01*
X75429Y-25276D01*
X75655Y-25358D01*
X75895Y-25348D01*
X76070Y-25276D01*
X76104Y-25175D01*
X76104Y-28188D01*
X75880Y-28095D01*
X75620Y-28095D01*
X75379Y-28194D01*
X75195Y-28378D01*
X75095Y-28619D01*
X75095Y-28879D01*
X75194Y-29120D01*
X75250Y-29175D01*
X75250Y-29757D01*
X75162Y-29844D01*
X75056Y-30099D01*
X75056Y-30375D01*
X75161Y-30630D01*
X75280Y-30750D01*
X75162Y-30868D01*
X75056Y-31123D01*
X75056Y-31399D01*
X75161Y-31654D01*
X75250Y-31742D01*
X75250Y-31999D01*
X75249Y-31999D01*
X75249Y-32000D01*
X74457Y-32000D01*
X74250Y-31792D01*
X74250Y-31642D01*
X74287Y-31605D01*
X74393Y-31350D01*
X74393Y-31074D01*
X74288Y-30819D01*
X74169Y-30699D01*
X74287Y-30581D01*
X74393Y-30326D01*
X74393Y-30050D01*
X74288Y-29795D01*
X74250Y-29757D01*
X74250Y-29175D01*
X74304Y-29121D01*
X74404Y-28880D01*
X74404Y-28620D01*
X74358Y-28510D01*
X74358Y-24844D01*
X74348Y-24604D01*
X74276Y-24429D01*
X74175Y-24395D01*
X74104Y-24466D01*
X74104Y-24324D01*
X74070Y-24223D01*
X73844Y-24141D01*
X73604Y-24151D01*
X73429Y-24223D01*
X73395Y-24324D01*
X73750Y-24679D01*
X74104Y-24324D01*
X74104Y-24466D01*
X73820Y-24750D01*
X74175Y-25104D01*
X74276Y-25070D01*
X74358Y-24844D01*
X74358Y-28510D01*
X74305Y-28379D01*
X74121Y-28195D01*
X74104Y-28188D01*
X74104Y-25175D01*
X73750Y-24820D01*
X73679Y-24891D01*
X73679Y-24750D01*
X73324Y-24395D01*
X73223Y-24429D01*
X73141Y-24655D01*
X73151Y-24895D01*
X73223Y-25070D01*
X73324Y-25104D01*
X73679Y-24750D01*
X73679Y-24891D01*
X73395Y-25175D01*
X73429Y-25276D01*
X73655Y-25358D01*
X73895Y-25348D01*
X74070Y-25276D01*
X74104Y-25175D01*
X74104Y-28188D01*
X73880Y-28095D01*
X73620Y-28095D01*
X73379Y-28194D01*
X73195Y-28378D01*
X73095Y-28619D01*
X73095Y-28879D01*
X73194Y-29120D01*
X73250Y-29175D01*
X73250Y-29657D01*
X73112Y-29794D01*
X73006Y-30049D01*
X73006Y-30325D01*
X73111Y-30580D01*
X73230Y-30700D01*
X73112Y-30818D01*
X73006Y-31073D01*
X73006Y-31349D01*
X73111Y-31604D01*
X73250Y-31742D01*
X73250Y-31999D01*
X73249Y-32000D01*
X73288Y-32191D01*
X73378Y-32326D01*
X73116Y-32325D01*
X72868Y-32428D01*
X72796Y-32500D01*
X71878Y-32500D01*
X71878Y-32099D01*
X71868Y-31851D01*
X71792Y-31667D01*
X71689Y-31631D01*
X71618Y-31701D01*
X71618Y-31560D01*
X71582Y-31457D01*
X71349Y-31371D01*
X71101Y-31381D01*
X70917Y-31457D01*
X70881Y-31560D01*
X71250Y-31929D01*
X71618Y-31560D01*
X71618Y-31701D01*
X71320Y-32000D01*
X71689Y-32368D01*
X71792Y-32332D01*
X71878Y-32099D01*
X71878Y-32500D01*
X71597Y-32500D01*
X71618Y-32439D01*
X71250Y-32070D01*
X71179Y-32141D01*
X71179Y-32000D01*
X70810Y-31631D01*
X70707Y-31667D01*
X70621Y-31900D01*
X70631Y-32148D01*
X70707Y-32332D01*
X70810Y-32368D01*
X71179Y-32000D01*
X71179Y-32141D01*
X70881Y-32439D01*
X70902Y-32500D01*
X65500Y-32500D01*
X65308Y-32538D01*
X65146Y-32646D01*
X65146Y-32646D01*
X64300Y-33492D01*
X64300Y-33227D01*
X65727Y-31800D01*
X67250Y-31800D01*
X69681Y-31800D01*
X69874Y-31879D01*
X70124Y-31880D01*
X70356Y-31784D01*
X70533Y-31607D01*
X70629Y-31375D01*
X70630Y-31125D01*
X70534Y-30893D01*
X70390Y-30749D01*
X70533Y-30607D01*
X70629Y-30375D01*
X70630Y-30125D01*
X70534Y-29893D01*
X70500Y-29859D01*
X70500Y-29175D01*
X70554Y-29121D01*
X70654Y-28880D01*
X70654Y-28620D01*
X70555Y-28379D01*
X70371Y-28195D01*
X70130Y-28095D01*
X69870Y-28095D01*
X69629Y-28194D01*
X69445Y-28378D01*
X69345Y-28619D01*
X69345Y-28879D01*
X69444Y-29120D01*
X69500Y-29175D01*
X69500Y-29858D01*
X69466Y-29892D01*
X69370Y-30124D01*
X69369Y-30374D01*
X69465Y-30606D01*
X69559Y-30700D01*
X68577Y-30700D01*
X68888Y-30388D01*
X69008Y-30210D01*
X69050Y-30000D01*
X69050Y-27750D01*
X69008Y-27539D01*
X68888Y-27361D01*
X68888Y-27361D01*
X68638Y-27111D01*
X68547Y-27050D01*
X70772Y-27050D01*
X71450Y-27727D01*
X71450Y-28374D01*
X71445Y-28378D01*
X71345Y-28619D01*
X71345Y-28879D01*
X71444Y-29120D01*
X71628Y-29304D01*
X71869Y-29404D01*
X72129Y-29404D01*
X72370Y-29305D01*
X72554Y-29121D01*
X72654Y-28880D01*
X72654Y-28620D01*
X72608Y-28510D01*
X72608Y-24844D01*
X72598Y-24604D01*
X72526Y-24429D01*
X72425Y-24395D01*
X72354Y-24466D01*
X72354Y-24324D01*
X72320Y-24223D01*
X72094Y-24141D01*
X71854Y-24151D01*
X71679Y-24223D01*
X71645Y-24324D01*
X72000Y-24679D01*
X72354Y-24324D01*
X72354Y-24466D01*
X72070Y-24750D01*
X72425Y-25104D01*
X72526Y-25070D01*
X72608Y-24844D01*
X72608Y-28510D01*
X72555Y-28379D01*
X72550Y-28374D01*
X72550Y-27500D01*
X72508Y-27289D01*
X72388Y-27111D01*
X72354Y-27076D01*
X72354Y-25175D01*
X72000Y-24820D01*
X71929Y-24891D01*
X71929Y-24750D01*
X71574Y-24395D01*
X71473Y-24429D01*
X71391Y-24655D01*
X71401Y-24895D01*
X71473Y-25070D01*
X71574Y-25104D01*
X71929Y-24750D01*
X71929Y-24891D01*
X71645Y-25175D01*
X71679Y-25276D01*
X71905Y-25358D01*
X72145Y-25348D01*
X72320Y-25276D01*
X72354Y-25175D01*
X72354Y-27076D01*
X71388Y-26111D01*
X71210Y-25991D01*
X71000Y-25950D01*
X70608Y-25950D01*
X70608Y-24844D01*
X70598Y-24604D01*
X70526Y-24429D01*
X70425Y-24395D01*
X70354Y-24466D01*
X70354Y-24324D01*
X70320Y-24223D01*
X70094Y-24141D01*
X69854Y-24151D01*
X69679Y-24223D01*
X69645Y-24324D01*
X70000Y-24679D01*
X70354Y-24324D01*
X70354Y-24466D01*
X70070Y-24750D01*
X70425Y-25104D01*
X70526Y-25070D01*
X70608Y-24844D01*
X70608Y-25950D01*
X70354Y-25950D01*
X70354Y-25175D01*
X70000Y-24820D01*
X69929Y-24891D01*
X69929Y-24750D01*
X69574Y-24395D01*
X69473Y-24429D01*
X69391Y-24655D01*
X69401Y-24895D01*
X69473Y-25070D01*
X69574Y-25104D01*
X69929Y-24750D01*
X69929Y-24891D01*
X69645Y-25175D01*
X69679Y-25276D01*
X69905Y-25358D01*
X70145Y-25348D01*
X70320Y-25276D01*
X70354Y-25175D01*
X70354Y-25950D01*
X66429Y-25950D01*
X66214Y-25860D01*
X65975Y-25860D01*
X65854Y-25910D01*
X65145Y-25910D01*
X65025Y-25860D01*
X64786Y-25860D01*
X64566Y-25951D01*
X64397Y-26120D01*
X64305Y-26340D01*
X64305Y-26579D01*
X64396Y-26800D01*
X64556Y-26960D01*
X64397Y-27120D01*
X64305Y-27340D01*
X64305Y-27579D01*
X64396Y-27800D01*
X64483Y-27886D01*
X64435Y-27906D01*
X64391Y-27950D01*
X63000Y-27950D01*
X62789Y-27991D01*
X62611Y-28111D01*
X62361Y-28361D01*
X62241Y-28539D01*
X62200Y-28750D01*
X62200Y-33700D01*
X62065Y-33700D01*
X62065Y-31250D01*
X62065Y-29250D01*
X62020Y-29020D01*
X61889Y-28825D01*
X61776Y-28750D01*
X61889Y-28674D01*
X62020Y-28479D01*
X62065Y-28250D01*
X62020Y-28020D01*
X61889Y-27825D01*
X61776Y-27750D01*
X61889Y-27674D01*
X62020Y-27479D01*
X62065Y-27250D01*
X62020Y-27020D01*
X61889Y-26825D01*
X61776Y-26750D01*
X61889Y-26674D01*
X62020Y-26479D01*
X62065Y-26250D01*
X62020Y-26020D01*
X61889Y-25825D01*
X61776Y-25750D01*
X61889Y-25674D01*
X62020Y-25479D01*
X62065Y-25250D01*
X62020Y-25020D01*
X61889Y-24825D01*
X61776Y-24750D01*
X61889Y-24674D01*
X62020Y-24479D01*
X62065Y-24250D01*
X62020Y-24020D01*
X61889Y-23825D01*
X61695Y-23695D01*
X61465Y-23650D01*
X61034Y-23650D01*
X60804Y-23695D01*
X60610Y-23825D01*
X60479Y-24020D01*
X60434Y-24250D01*
X60479Y-24479D01*
X60610Y-24674D01*
X60723Y-24750D01*
X60610Y-24825D01*
X60479Y-25020D01*
X60434Y-25250D01*
X60479Y-25479D01*
X60610Y-25674D01*
X60723Y-25750D01*
X60610Y-25825D01*
X60479Y-26020D01*
X60434Y-26250D01*
X60479Y-26479D01*
X60610Y-26674D01*
X60723Y-26750D01*
X60610Y-26825D01*
X60479Y-27020D01*
X60434Y-27250D01*
X60479Y-27479D01*
X60610Y-27674D01*
X60723Y-27750D01*
X60610Y-27825D01*
X60479Y-28020D01*
X60434Y-28250D01*
X60479Y-28479D01*
X60610Y-28674D01*
X60723Y-28750D01*
X60610Y-28825D01*
X60479Y-29020D01*
X60434Y-29250D01*
X60479Y-29479D01*
X60610Y-29674D01*
X60804Y-29804D01*
X61034Y-29850D01*
X61465Y-29850D01*
X61695Y-29804D01*
X61889Y-29674D01*
X62020Y-29479D01*
X62065Y-29250D01*
X62065Y-31250D01*
X62020Y-31020D01*
X61889Y-30825D01*
X61695Y-30695D01*
X61465Y-30650D01*
X61034Y-30650D01*
X60804Y-30695D01*
X60610Y-30825D01*
X60479Y-31020D01*
X60434Y-31250D01*
X60479Y-31479D01*
X60610Y-31674D01*
X60769Y-31780D01*
X60625Y-31896D01*
X60522Y-32085D01*
X60516Y-32114D01*
X60565Y-32200D01*
X61200Y-32200D01*
X61200Y-32192D01*
X61300Y-32192D01*
X61300Y-32200D01*
X61934Y-32200D01*
X61983Y-32114D01*
X61977Y-32085D01*
X61874Y-31896D01*
X61730Y-31780D01*
X61889Y-31674D01*
X62020Y-31479D01*
X62065Y-31250D01*
X62065Y-33700D01*
X61754Y-33700D01*
X61874Y-33603D01*
X61977Y-33414D01*
X61983Y-33385D01*
X61983Y-33114D01*
X61977Y-33085D01*
X61874Y-32896D01*
X61706Y-32761D01*
X61669Y-32750D01*
X61706Y-32738D01*
X61874Y-32603D01*
X61977Y-32414D01*
X61983Y-32385D01*
X61934Y-32300D01*
X61300Y-32300D01*
X61300Y-32700D01*
X61300Y-32800D01*
X61300Y-33200D01*
X61934Y-33200D01*
X61983Y-33114D01*
X61983Y-33385D01*
X61934Y-33300D01*
X61300Y-33300D01*
X61300Y-33307D01*
X61200Y-33307D01*
X61200Y-33300D01*
X61200Y-33200D01*
X61200Y-32800D01*
X61200Y-32700D01*
X61200Y-32300D01*
X60565Y-32300D01*
X60516Y-32385D01*
X60522Y-32414D01*
X60625Y-32603D01*
X60793Y-32738D01*
X60830Y-32750D01*
X60793Y-32761D01*
X60625Y-32896D01*
X60522Y-33085D01*
X60516Y-33114D01*
X60565Y-33200D01*
X61200Y-33200D01*
X61200Y-33300D01*
X60565Y-33300D01*
X60516Y-33385D01*
X60522Y-33414D01*
X60625Y-33603D01*
X60769Y-33719D01*
X60610Y-33825D01*
X60479Y-34020D01*
X60434Y-34250D01*
X60479Y-34479D01*
X60610Y-34674D01*
X60723Y-34750D01*
X60610Y-34825D01*
X60479Y-35020D01*
X60434Y-35250D01*
X60479Y-35479D01*
X60610Y-35674D01*
X60723Y-35750D01*
X60610Y-35825D01*
X60479Y-36020D01*
X60434Y-36250D01*
X60479Y-36479D01*
X60610Y-36674D01*
X60750Y-36767D01*
X60750Y-37546D01*
X60678Y-37617D01*
X60576Y-37865D01*
X60575Y-38133D01*
X60678Y-38381D01*
X60796Y-38500D01*
X60678Y-38617D01*
X60576Y-38865D01*
X60575Y-39133D01*
X60678Y-39381D01*
X60750Y-39453D01*
X60750Y-40296D01*
X60678Y-40367D01*
X60576Y-40615D01*
X60575Y-40883D01*
X60678Y-41131D01*
X60867Y-41321D01*
X60935Y-41349D01*
X61250Y-41663D01*
X61563Y-41349D01*
X61631Y-41321D01*
X61821Y-41132D01*
X61923Y-40884D01*
X61924Y-40616D01*
X61821Y-40368D01*
X61750Y-40296D01*
X61750Y-39453D01*
X61821Y-39382D01*
X61923Y-39134D01*
X61924Y-38866D01*
X61821Y-38618D01*
X61703Y-38499D01*
X61821Y-38382D01*
X61923Y-38134D01*
X61924Y-37866D01*
X61821Y-37618D01*
X61750Y-37546D01*
X61750Y-36767D01*
X61889Y-36674D01*
X62020Y-36479D01*
X62065Y-36250D01*
X62020Y-36020D01*
X61889Y-35825D01*
X61776Y-35750D01*
X61889Y-35674D01*
X62020Y-35479D01*
X62065Y-35250D01*
X62020Y-35020D01*
X61889Y-34825D01*
X61851Y-34800D01*
X62500Y-34800D01*
X62710Y-34758D01*
X62888Y-34638D01*
X63138Y-34388D01*
X63138Y-34388D01*
X63200Y-34297D01*
X63200Y-41000D01*
X63200Y-42500D01*
X63241Y-42710D01*
X63361Y-42888D01*
X63861Y-43388D01*
X64039Y-43508D01*
X64250Y-43550D01*
X66522Y-43550D01*
X67422Y-44450D01*
X66700Y-44450D01*
X66700Y-49200D01*
X65300Y-49200D01*
X65300Y-44200D01*
X61950Y-44200D01*
X61950Y-49200D01*
X61878Y-49200D01*
X61878Y-41833D01*
X61868Y-41585D01*
X61792Y-41401D01*
X61689Y-41365D01*
X61320Y-41734D01*
X61689Y-42103D01*
X61792Y-42066D01*
X61878Y-41833D01*
X61878Y-49200D01*
X61618Y-49200D01*
X61618Y-42173D01*
X61250Y-41804D01*
X61179Y-41875D01*
X61179Y-41734D01*
X60810Y-41365D01*
X60707Y-41401D01*
X60621Y-41634D01*
X60631Y-41882D01*
X60707Y-42066D01*
X60810Y-42103D01*
X61179Y-41734D01*
X61179Y-41875D01*
X60881Y-42173D01*
X60917Y-42276D01*
X61150Y-42362D01*
X61398Y-42352D01*
X61582Y-42276D01*
X61618Y-42173D01*
X61618Y-49200D01*
X60300Y-49200D01*
X60300Y-23300D01*
X61270Y-23300D01*
X62270Y-22300D01*
X75229Y-22300D01*
X76229Y-23300D01*
X80729Y-23300D01*
X81200Y-23770D01*
X81200Y-49200D01*
X81200Y-49200D01*
G37*
G54D24*
X81200Y-49200D02*
X81065Y-49200D01*
X81065Y-39850D01*
X81020Y-39620D01*
X80889Y-39425D01*
X80730Y-39319D01*
X80874Y-39203D01*
X80977Y-39014D01*
X80983Y-38985D01*
X80934Y-38900D01*
X80300Y-38900D01*
X80300Y-38907D01*
X80200Y-38907D01*
X80200Y-38900D01*
X79565Y-38900D01*
X79516Y-38985D01*
X79522Y-39014D01*
X79625Y-39203D01*
X79769Y-39319D01*
X79610Y-39425D01*
X79479Y-39620D01*
X79434Y-39850D01*
X79479Y-40079D01*
X79610Y-40274D01*
X79804Y-40404D01*
X80034Y-40450D01*
X80465Y-40450D01*
X80695Y-40404D01*
X80889Y-40274D01*
X81020Y-40079D01*
X81065Y-39850D01*
X81065Y-49200D01*
X77800Y-49200D01*
X77800Y-45200D01*
X72700Y-45200D01*
X72700Y-49200D01*
X72300Y-49200D01*
X72300Y-44727D01*
X72477Y-44550D01*
X74096Y-44550D01*
X74117Y-44571D01*
X74365Y-44673D01*
X74633Y-44674D01*
X74881Y-44571D01*
X75071Y-44382D01*
X75173Y-44134D01*
X75174Y-43866D01*
X75071Y-43618D01*
X74953Y-43500D01*
X74999Y-43500D01*
X75000Y-43500D01*
X75000Y-43500D01*
X75191Y-43461D01*
X75353Y-43353D01*
X76353Y-42353D01*
X76353Y-42353D01*
X76353Y-42353D01*
X76461Y-42191D01*
X76500Y-42000D01*
X76500Y-39000D01*
X76461Y-38808D01*
X76436Y-38770D01*
X76857Y-38350D01*
X79723Y-38350D01*
X79769Y-38380D01*
X79625Y-38496D01*
X79522Y-38685D01*
X79516Y-38714D01*
X79565Y-38800D01*
X80200Y-38800D01*
X80200Y-38792D01*
X80300Y-38792D01*
X80300Y-38800D01*
X80934Y-38800D01*
X80983Y-38714D01*
X80977Y-38685D01*
X80874Y-38496D01*
X80730Y-38380D01*
X80889Y-38274D01*
X81020Y-38079D01*
X81065Y-37850D01*
X81020Y-37620D01*
X80889Y-37425D01*
X80776Y-37350D01*
X80889Y-37274D01*
X81020Y-37079D01*
X81065Y-36850D01*
X81020Y-36620D01*
X80889Y-36425D01*
X80776Y-36350D01*
X80889Y-36274D01*
X81020Y-36079D01*
X81065Y-35850D01*
X81020Y-35620D01*
X80889Y-35425D01*
X80776Y-35350D01*
X80889Y-35274D01*
X81020Y-35079D01*
X81065Y-34850D01*
X81020Y-34620D01*
X80889Y-34425D01*
X80776Y-34350D01*
X80889Y-34274D01*
X81020Y-34079D01*
X81065Y-33850D01*
X81020Y-33620D01*
X80889Y-33425D01*
X80776Y-33350D01*
X80889Y-33274D01*
X81020Y-33079D01*
X81065Y-32850D01*
X81065Y-31250D01*
X81020Y-31020D01*
X80889Y-30825D01*
X80776Y-30750D01*
X80889Y-30674D01*
X81020Y-30479D01*
X81065Y-30250D01*
X81020Y-30020D01*
X80889Y-29825D01*
X80776Y-29750D01*
X80889Y-29674D01*
X81020Y-29479D01*
X81065Y-29250D01*
X81020Y-29020D01*
X80889Y-28825D01*
X80776Y-28750D01*
X80889Y-28674D01*
X81020Y-28479D01*
X81065Y-28250D01*
X81020Y-28020D01*
X80889Y-27825D01*
X80776Y-27750D01*
X80889Y-27674D01*
X81020Y-27479D01*
X81065Y-27250D01*
X81020Y-27020D01*
X80889Y-26825D01*
X80776Y-26750D01*
X80889Y-26674D01*
X81020Y-26479D01*
X81065Y-26250D01*
X81020Y-26020D01*
X80889Y-25825D01*
X80776Y-25750D01*
X80889Y-25674D01*
X81020Y-25479D01*
X81065Y-25250D01*
X81020Y-25020D01*
X80889Y-24825D01*
X80776Y-24750D01*
X80889Y-24674D01*
X81020Y-24479D01*
X81065Y-24250D01*
X81020Y-24020D01*
X80889Y-23825D01*
X80695Y-23695D01*
X80465Y-23650D01*
X80034Y-23650D01*
X79804Y-23695D01*
X79610Y-23825D01*
X79479Y-24020D01*
X79434Y-24250D01*
X79479Y-24479D01*
X79610Y-24674D01*
X79723Y-24750D01*
X79610Y-24825D01*
X79479Y-25020D01*
X79434Y-25250D01*
X79479Y-25479D01*
X79610Y-25674D01*
X79723Y-25750D01*
X79610Y-25825D01*
X79479Y-26020D01*
X79434Y-26250D01*
X79479Y-26479D01*
X79610Y-26674D01*
X79723Y-26750D01*
X79610Y-26825D01*
X79479Y-27020D01*
X79434Y-27250D01*
X79479Y-27479D01*
X79610Y-27674D01*
X79723Y-27750D01*
X79610Y-27825D01*
X79479Y-28020D01*
X79434Y-28250D01*
X79479Y-28479D01*
X79610Y-28674D01*
X79723Y-28750D01*
X79610Y-28825D01*
X79479Y-29020D01*
X79434Y-29250D01*
X79479Y-29479D01*
X79610Y-29674D01*
X79723Y-29750D01*
X79610Y-29825D01*
X79479Y-30020D01*
X79434Y-30250D01*
X79479Y-30479D01*
X79610Y-30674D01*
X79723Y-30750D01*
X78219Y-30750D01*
X78219Y-30749D01*
X78337Y-30631D01*
X78443Y-30376D01*
X78443Y-30100D01*
X78338Y-29845D01*
X78250Y-29757D01*
X78250Y-29175D01*
X78304Y-29121D01*
X78404Y-28880D01*
X78404Y-28620D01*
X78358Y-28510D01*
X78358Y-24844D01*
X78348Y-24604D01*
X78276Y-24429D01*
X78175Y-24395D01*
X78104Y-24466D01*
X78104Y-24324D01*
X78070Y-24223D01*
X77844Y-24141D01*
X77604Y-24151D01*
X77429Y-24223D01*
X77395Y-24324D01*
X77750Y-24679D01*
X78104Y-24324D01*
X78104Y-24466D01*
X77820Y-24750D01*
X78175Y-25104D01*
X78276Y-25070D01*
X78358Y-24844D01*
X78358Y-28510D01*
X78305Y-28379D01*
X78121Y-28195D01*
X78104Y-28188D01*
X78104Y-25175D01*
X77750Y-24820D01*
X77679Y-24891D01*
X77679Y-24750D01*
X77324Y-24395D01*
X77223Y-24429D01*
X77141Y-24655D01*
X77151Y-24895D01*
X77223Y-25070D01*
X77324Y-25104D01*
X77679Y-24750D01*
X77679Y-24891D01*
X77395Y-25175D01*
X77429Y-25276D01*
X77655Y-25358D01*
X77895Y-25348D01*
X78070Y-25276D01*
X78104Y-25175D01*
X78104Y-28188D01*
X77880Y-28095D01*
X77620Y-28095D01*
X77379Y-28194D01*
X77195Y-28378D01*
X77095Y-28619D01*
X77095Y-28879D01*
X77194Y-29120D01*
X77250Y-29175D01*
X77250Y-29757D01*
X77162Y-29844D01*
X77056Y-30099D01*
X77056Y-30375D01*
X77161Y-30630D01*
X77280Y-30750D01*
X77162Y-30868D01*
X77056Y-31123D01*
X77056Y-31399D01*
X77161Y-31654D01*
X77356Y-31849D01*
X77611Y-31955D01*
X77887Y-31955D01*
X78142Y-31850D01*
X78242Y-31750D01*
X79723Y-31750D01*
X79804Y-31804D01*
X80034Y-31850D01*
X80465Y-31850D01*
X80695Y-31804D01*
X80889Y-31674D01*
X81020Y-31479D01*
X81065Y-31250D01*
X81065Y-32850D01*
X81020Y-32620D01*
X80889Y-32425D01*
X80695Y-32295D01*
X80465Y-32250D01*
X80034Y-32250D01*
X79804Y-32295D01*
X79723Y-32350D01*
X76807Y-32350D01*
X76250Y-31792D01*
X76250Y-31742D01*
X76337Y-31655D01*
X76443Y-31400D01*
X76443Y-31124D01*
X76338Y-30869D01*
X76219Y-30749D01*
X76337Y-30631D01*
X76443Y-30376D01*
X76443Y-30100D01*
X76338Y-29845D01*
X76250Y-29757D01*
X76250Y-29175D01*
X76304Y-29121D01*
X76404Y-28880D01*
X76404Y-28620D01*
X76358Y-28510D01*
X76358Y-24844D01*
X76348Y-24604D01*
X76276Y-24429D01*
X76175Y-24395D01*
X76104Y-24466D01*
X76104Y-24324D01*
X76070Y-24223D01*
X75844Y-24141D01*
X75604Y-24151D01*
X75429Y-24223D01*
X75395Y-24324D01*
X75750Y-24679D01*
X76104Y-24324D01*
X76104Y-24466D01*
X75820Y-24750D01*
X76175Y-25104D01*
X76276Y-25070D01*
X76358Y-24844D01*
X76358Y-28510D01*
X76305Y-28379D01*
X76121Y-28195D01*
X76104Y-28188D01*
X76104Y-25175D01*
X75750Y-24820D01*
X75679Y-24891D01*
X75679Y-24750D01*
X75324Y-24395D01*
X75223Y-24429D01*
X75141Y-24655D01*
X75151Y-24895D01*
X75223Y-25070D01*
X75324Y-25104D01*
X75679Y-24750D01*
X75679Y-24891D01*
X75395Y-25175D01*
X75429Y-25276D01*
X75655Y-25358D01*
X75895Y-25348D01*
X76070Y-25276D01*
X76104Y-25175D01*
X76104Y-28188D01*
X75880Y-28095D01*
X75620Y-28095D01*
X75379Y-28194D01*
X75195Y-28378D01*
X75095Y-28619D01*
X75095Y-28879D01*
X75194Y-29120D01*
X75250Y-29175D01*
X75250Y-29757D01*
X75162Y-29844D01*
X75056Y-30099D01*
X75056Y-30375D01*
X75161Y-30630D01*
X75280Y-30750D01*
X75162Y-30868D01*
X75056Y-31123D01*
X75056Y-31399D01*
X75161Y-31654D01*
X75250Y-31742D01*
X75250Y-31999D01*
X75249Y-31999D01*
X75249Y-32000D01*
X74457Y-32000D01*
X74250Y-31792D01*
X74250Y-31642D01*
X74287Y-31605D01*
X74393Y-31350D01*
X74393Y-31074D01*
X74288Y-30819D01*
X74169Y-30699D01*
X74287Y-30581D01*
X74393Y-30326D01*
X74393Y-30050D01*
X74288Y-29795D01*
X74250Y-29757D01*
X74250Y-29175D01*
X74304Y-29121D01*
X74404Y-28880D01*
X74404Y-28620D01*
X74358Y-28510D01*
X74358Y-24844D01*
X74348Y-24604D01*
X74276Y-24429D01*
X74175Y-24395D01*
X74104Y-24466D01*
X74104Y-24324D01*
X74070Y-24223D01*
X73844Y-24141D01*
X73604Y-24151D01*
X73429Y-24223D01*
X73395Y-24324D01*
X73750Y-24679D01*
X74104Y-24324D01*
X74104Y-24466D01*
X73820Y-24750D01*
X74175Y-25104D01*
X74276Y-25070D01*
X74358Y-24844D01*
X74358Y-28510D01*
X74305Y-28379D01*
X74121Y-28195D01*
X74104Y-28188D01*
X74104Y-25175D01*
X73750Y-24820D01*
X73679Y-24891D01*
X73679Y-24750D01*
X73324Y-24395D01*
X73223Y-24429D01*
X73141Y-24655D01*
X73151Y-24895D01*
X73223Y-25070D01*
X73324Y-25104D01*
X73679Y-24750D01*
X73679Y-24891D01*
X73395Y-25175D01*
X73429Y-25276D01*
X73655Y-25358D01*
X73895Y-25348D01*
X74070Y-25276D01*
X74104Y-25175D01*
X74104Y-28188D01*
X73880Y-28095D01*
X73620Y-28095D01*
X73379Y-28194D01*
X73195Y-28378D01*
X73095Y-28619D01*
X73095Y-28879D01*
X73194Y-29120D01*
X73250Y-29175D01*
X73250Y-29657D01*
X73112Y-29794D01*
X73006Y-30049D01*
X73006Y-30325D01*
X73111Y-30580D01*
X73230Y-30700D01*
X73112Y-30818D01*
X73006Y-31073D01*
X73006Y-31349D01*
X73111Y-31604D01*
X73250Y-31742D01*
X73250Y-31999D01*
X73249Y-32000D01*
X73288Y-32191D01*
X73378Y-32326D01*
X73116Y-32325D01*
X72868Y-32428D01*
X72796Y-32500D01*
X71878Y-32500D01*
X71878Y-32099D01*
X71868Y-31851D01*
X71792Y-31667D01*
X71689Y-31631D01*
X71618Y-31701D01*
X71618Y-31560D01*
X71582Y-31457D01*
X71349Y-31371D01*
X71101Y-31381D01*
X70917Y-31457D01*
X70881Y-31560D01*
X71250Y-31929D01*
X71618Y-31560D01*
X71618Y-31701D01*
X71320Y-32000D01*
X71689Y-32368D01*
X71792Y-32332D01*
X71878Y-32099D01*
X71878Y-32500D01*
X71597Y-32500D01*
X71618Y-32439D01*
X71250Y-32070D01*
X71179Y-32141D01*
X71179Y-32000D01*
X70810Y-31631D01*
X70707Y-31667D01*
X70621Y-31900D01*
X70631Y-32148D01*
X70707Y-32332D01*
X70810Y-32368D01*
X71179Y-32000D01*
X71179Y-32141D01*
X70881Y-32439D01*
X70902Y-32500D01*
X65500Y-32500D01*
X65308Y-32538D01*
X65146Y-32646D01*
X65146Y-32646D01*
X64300Y-33492D01*
X64300Y-33227D01*
X65727Y-31800D01*
X67250Y-31800D01*
X69681Y-31800D01*
X69874Y-31879D01*
X70124Y-31880D01*
X70356Y-31784D01*
X70533Y-31607D01*
X70629Y-31375D01*
X70630Y-31125D01*
X70534Y-30893D01*
X70390Y-30749D01*
X70533Y-30607D01*
X70629Y-30375D01*
X70630Y-30125D01*
X70534Y-29893D01*
X70500Y-29859D01*
X70500Y-29175D01*
X70554Y-29121D01*
X70654Y-28880D01*
X70654Y-28620D01*
X70555Y-28379D01*
X70371Y-28195D01*
X70130Y-28095D01*
X69870Y-28095D01*
X69629Y-28194D01*
X69445Y-28378D01*
X69345Y-28619D01*
X69345Y-28879D01*
X69444Y-29120D01*
X69500Y-29175D01*
X69500Y-29858D01*
X69466Y-29892D01*
X69370Y-30124D01*
X69369Y-30374D01*
X69465Y-30606D01*
X69559Y-30700D01*
X68577Y-30700D01*
X68888Y-30388D01*
X69008Y-30210D01*
X69050Y-30000D01*
X69050Y-27750D01*
X69008Y-27539D01*
X68888Y-27361D01*
X68888Y-27361D01*
X68638Y-27111D01*
X68547Y-27050D01*
X70772Y-27050D01*
X71450Y-27727D01*
X71450Y-28374D01*
X71445Y-28378D01*
X71345Y-28619D01*
X71345Y-28879D01*
X71444Y-29120D01*
X71628Y-29304D01*
X71869Y-29404D01*
X72129Y-29404D01*
X72370Y-29305D01*
X72554Y-29121D01*
X72654Y-28880D01*
X72654Y-28620D01*
X72608Y-28510D01*
X72608Y-24844D01*
X72598Y-24604D01*
X72526Y-24429D01*
X72425Y-24395D01*
X72354Y-24466D01*
X72354Y-24324D01*
X72320Y-24223D01*
X72094Y-24141D01*
X71854Y-24151D01*
X71679Y-24223D01*
X71645Y-24324D01*
X72000Y-24679D01*
X72354Y-24324D01*
X72354Y-24466D01*
X72070Y-24750D01*
X72425Y-25104D01*
X72526Y-25070D01*
X72608Y-24844D01*
X72608Y-28510D01*
X72555Y-28379D01*
X72550Y-28374D01*
X72550Y-27500D01*
X72508Y-27289D01*
X72388Y-27111D01*
X72354Y-27076D01*
X72354Y-25175D01*
X72000Y-24820D01*
X71929Y-24891D01*
X71929Y-24750D01*
X71574Y-24395D01*
X71473Y-24429D01*
X71391Y-24655D01*
X71401Y-24895D01*
X71473Y-25070D01*
X71574Y-25104D01*
X71929Y-24750D01*
X71929Y-24891D01*
X71645Y-25175D01*
X71679Y-25276D01*
X71905Y-25358D01*
X72145Y-25348D01*
X72320Y-25276D01*
X72354Y-25175D01*
X72354Y-27076D01*
X71388Y-26111D01*
X71210Y-25991D01*
X71000Y-25950D01*
X70608Y-25950D01*
X70608Y-24844D01*
X70598Y-24604D01*
X70526Y-24429D01*
X70425Y-24395D01*
X70354Y-24466D01*
X70354Y-24324D01*
X70320Y-24223D01*
X70094Y-24141D01*
X69854Y-24151D01*
X69679Y-24223D01*
X69645Y-24324D01*
X70000Y-24679D01*
X70354Y-24324D01*
X70354Y-24466D01*
X70070Y-24750D01*
X70425Y-25104D01*
X70526Y-25070D01*
X70608Y-24844D01*
X70608Y-25950D01*
X70354Y-25950D01*
X70354Y-25175D01*
X70000Y-24820D01*
X69929Y-24891D01*
X69929Y-24750D01*
X69574Y-24395D01*
X69473Y-24429D01*
X69391Y-24655D01*
X69401Y-24895D01*
X69473Y-25070D01*
X69574Y-25104D01*
X69929Y-24750D01*
X69929Y-24891D01*
X69645Y-25175D01*
X69679Y-25276D01*
X69905Y-25358D01*
X70145Y-25348D01*
X70320Y-25276D01*
X70354Y-25175D01*
X70354Y-25950D01*
X66429Y-25950D01*
X66214Y-25860D01*
X65975Y-25860D01*
X65854Y-25910D01*
X65145Y-25910D01*
X65025Y-25860D01*
X64786Y-25860D01*
X64566Y-25951D01*
X64397Y-26120D01*
X64305Y-26340D01*
X64305Y-26579D01*
X64396Y-26800D01*
X64556Y-26960D01*
X64397Y-27120D01*
X64305Y-27340D01*
X64305Y-27579D01*
X64396Y-27800D01*
X64483Y-27886D01*
X64435Y-27906D01*
X64391Y-27950D01*
X63000Y-27950D01*
X62789Y-27991D01*
X62611Y-28111D01*
X62361Y-28361D01*
X62241Y-28539D01*
X62200Y-28750D01*
X62200Y-33700D01*
X62065Y-33700D01*
X62065Y-31250D01*
X62065Y-29250D01*
X62020Y-29020D01*
X61889Y-28825D01*
X61776Y-28750D01*
X61889Y-28674D01*
X62020Y-28479D01*
X62065Y-28250D01*
X62020Y-28020D01*
X61889Y-27825D01*
X61776Y-27750D01*
X61889Y-27674D01*
X62020Y-27479D01*
X62065Y-27250D01*
X62020Y-27020D01*
X61889Y-26825D01*
X61776Y-26750D01*
X61889Y-26674D01*
X62020Y-26479D01*
X62065Y-26250D01*
X62020Y-26020D01*
X61889Y-25825D01*
X61776Y-25750D01*
X61889Y-25674D01*
X62020Y-25479D01*
X62065Y-25250D01*
X62020Y-25020D01*
X61889Y-24825D01*
X61776Y-24750D01*
X61889Y-24674D01*
X62020Y-24479D01*
X62065Y-24250D01*
X62020Y-24020D01*
X61889Y-23825D01*
X61695Y-23695D01*
X61465Y-23650D01*
X61034Y-23650D01*
X60804Y-23695D01*
X60610Y-23825D01*
X60479Y-24020D01*
X60434Y-24250D01*
X60479Y-24479D01*
X60610Y-24674D01*
X60723Y-24750D01*
X60610Y-24825D01*
X60479Y-25020D01*
X60434Y-25250D01*
X60479Y-25479D01*
X60610Y-25674D01*
X60723Y-25750D01*
X60610Y-25825D01*
X60479Y-26020D01*
X60434Y-26250D01*
X60479Y-26479D01*
X60610Y-26674D01*
X60723Y-26750D01*
X60610Y-26825D01*
X60479Y-27020D01*
X60434Y-27250D01*
X60479Y-27479D01*
X60610Y-27674D01*
X60723Y-27750D01*
X60610Y-27825D01*
X60479Y-28020D01*
X60434Y-28250D01*
X60479Y-28479D01*
X60610Y-28674D01*
X60723Y-28750D01*
X60610Y-28825D01*
X60479Y-29020D01*
X60434Y-29250D01*
X60479Y-29479D01*
X60610Y-29674D01*
X60804Y-29804D01*
X61034Y-29850D01*
X61465Y-29850D01*
X61695Y-29804D01*
X61889Y-29674D01*
X62020Y-29479D01*
X62065Y-29250D01*
X62065Y-31250D01*
X62020Y-31020D01*
X61889Y-30825D01*
X61695Y-30695D01*
X61465Y-30650D01*
X61034Y-30650D01*
X60804Y-30695D01*
X60610Y-30825D01*
X60479Y-31020D01*
X60434Y-31250D01*
X60479Y-31479D01*
X60610Y-31674D01*
X60769Y-31780D01*
X60625Y-31896D01*
X60522Y-32085D01*
X60516Y-32114D01*
X60565Y-32200D01*
X61200Y-32200D01*
X61200Y-32192D01*
X61300Y-32192D01*
X61300Y-32200D01*
X61934Y-32200D01*
X61983Y-32114D01*
X61977Y-32085D01*
X61874Y-31896D01*
X61730Y-31780D01*
X61889Y-31674D01*
X62020Y-31479D01*
X62065Y-31250D01*
X62065Y-33700D01*
X61754Y-33700D01*
X61874Y-33603D01*
X61977Y-33414D01*
X61983Y-33385D01*
X61983Y-33114D01*
X61977Y-33085D01*
X61874Y-32896D01*
X61706Y-32761D01*
X61669Y-32750D01*
X61706Y-32738D01*
X61874Y-32603D01*
X61977Y-32414D01*
X61983Y-32385D01*
X61934Y-32300D01*
X61300Y-32300D01*
X61300Y-32700D01*
X61300Y-32800D01*
X61300Y-33200D01*
X61934Y-33200D01*
X61983Y-33114D01*
X61983Y-33385D01*
X61934Y-33300D01*
X61300Y-33300D01*
X61300Y-33307D01*
X61200Y-33307D01*
X61200Y-33300D01*
X61200Y-33200D01*
X61200Y-32800D01*
X61200Y-32700D01*
X61200Y-32300D01*
X60565Y-32300D01*
X60516Y-32385D01*
X60522Y-32414D01*
X60625Y-32603D01*
X60793Y-32738D01*
X60830Y-32750D01*
X60793Y-32761D01*
X60625Y-32896D01*
X60522Y-33085D01*
X60516Y-33114D01*
X60565Y-33200D01*
X61200Y-33200D01*
X61200Y-33300D01*
X60565Y-33300D01*
X60516Y-33385D01*
X60522Y-33414D01*
X60625Y-33603D01*
X60769Y-33719D01*
X60610Y-33825D01*
X60479Y-34020D01*
X60434Y-34250D01*
X60479Y-34479D01*
X60610Y-34674D01*
X60723Y-34750D01*
X60610Y-34825D01*
X60479Y-35020D01*
X60434Y-35250D01*
X60479Y-35479D01*
X60610Y-35674D01*
X60723Y-35750D01*
X60610Y-35825D01*
X60479Y-36020D01*
X60434Y-36250D01*
X60479Y-36479D01*
X60610Y-36674D01*
X60750Y-36767D01*
X60750Y-37546D01*
X60678Y-37617D01*
X60576Y-37865D01*
X60575Y-38133D01*
X60678Y-38381D01*
X60796Y-38500D01*
X60678Y-38617D01*
X60576Y-38865D01*
X60575Y-39133D01*
X60678Y-39381D01*
X60750Y-39453D01*
X60750Y-40296D01*
X60678Y-40367D01*
X60576Y-40615D01*
X60575Y-40883D01*
X60678Y-41131D01*
X60867Y-41321D01*
X60935Y-41349D01*
X61250Y-41663D01*
X61563Y-41349D01*
X61631Y-41321D01*
X61821Y-41132D01*
X61923Y-40884D01*
X61924Y-40616D01*
X61821Y-40368D01*
X61750Y-40296D01*
X61750Y-39453D01*
X61821Y-39382D01*
X61923Y-39134D01*
X61924Y-38866D01*
X61821Y-38618D01*
X61703Y-38499D01*
X61821Y-38382D01*
X61923Y-38134D01*
X61924Y-37866D01*
X61821Y-37618D01*
X61750Y-37546D01*
X61750Y-36767D01*
X61889Y-36674D01*
X62020Y-36479D01*
X62065Y-36250D01*
X62020Y-36020D01*
X61889Y-35825D01*
X61776Y-35750D01*
X61889Y-35674D01*
X62020Y-35479D01*
X62065Y-35250D01*
X62020Y-35020D01*
X61889Y-34825D01*
X61851Y-34800D01*
X62500Y-34800D01*
X62710Y-34758D01*
X62888Y-34638D01*
X63138Y-34388D01*
X63138Y-34388D01*
X63200Y-34297D01*
X63200Y-41000D01*
X63200Y-42500D01*
X63241Y-42710D01*
X63361Y-42888D01*
X63861Y-43388D01*
X64039Y-43508D01*
X64250Y-43550D01*
X66522Y-43550D01*
X67422Y-44450D01*
X66700Y-44450D01*
X66700Y-49200D01*
X65300Y-49200D01*
X65300Y-44200D01*
X61950Y-44200D01*
X61950Y-49200D01*
X61878Y-49200D01*
X61878Y-41833D01*
X61868Y-41585D01*
X61792Y-41401D01*
X61689Y-41365D01*
X61320Y-41734D01*
X61689Y-42103D01*
X61792Y-42066D01*
X61878Y-41833D01*
X61878Y-49200D01*
X61618Y-49200D01*
X61618Y-42173D01*
X61250Y-41804D01*
X61179Y-41875D01*
X61179Y-41734D01*
X60810Y-41365D01*
X60707Y-41401D01*
X60621Y-41634D01*
X60631Y-41882D01*
X60707Y-42066D01*
X60810Y-42103D01*
X61179Y-41734D01*
X61179Y-41875D01*
X60881Y-42173D01*
X60917Y-42276D01*
X61150Y-42362D01*
X61398Y-42352D01*
X61582Y-42276D01*
X61618Y-42173D01*
X61618Y-49200D01*
X60300Y-49200D01*
X60300Y-23300D01*
X61270Y-23300D01*
X62270Y-22300D01*
X75229Y-22300D01*
X76229Y-23300D01*
X80729Y-23300D01*
X81200Y-23770D01*
X81200Y-49200D01*
M02*
